<?xml version="1.0" encoding="iso-8859-1"?>
<!-- Generator: Adobe Illustrator 27.5.0, SVG Export Plug-In . SVG Version: 6.00 Build 0)  -->
<svg version="1.1" id="shapes" xmlns="http://www.w3.org/2000/svg" xmlns:xlink="http://www.w3.org/1999/xlink" x="0px" y="0px"
	 width="150px" height="150px" viewBox="0 0 150 150" enable-background="new 0 0 150 150" xml:space="preserve">
<g>
	<path d="M27.648,56.268c0.545-0.61,1.022-1.32,1.418-2.153c0.395-0.833,0.708-1.79,0.92-2.895c0.213-1.105,0.39-2.338,0.303-3.793
		c-0.009-0.144-0.033-0.295-0.048-0.442c-0.322,0.503-0.64,1.007-0.945,1.521c-0.029,0.975-0.173,1.842-0.33,2.644
		c-0.216,1.1-0.53,2.054-0.926,2.886c-0.396,0.832-0.874,1.542-1.418,2.152c-0.507,0.569-1.075,1.044-1.685,1.458
		c-0.1,0.272-0.185,0.552-0.281,0.826c0.405-0.197,0.799-0.41,1.174-0.653C26.492,57.387,27.103,56.878,27.648,56.268z"/>
	<path d="M27.572,58.974c0.746-0.299,1.454-0.656,2.111-1.091c0.656-0.436,1.261-0.95,1.799-1.564
		c0.538-0.614,1.009-1.329,1.398-2.167c0.389-0.838,0.694-1.799,0.901-2.909c0.206-1.109,0.355-2.349,0.293-3.804
		c-0.059-1.386-0.402-2.89-0.985-4.496c-0.197,0.254-0.402,0.502-0.595,0.76c0.43,1.336,0.686,2.598,0.731,3.771
		c0.056,1.447-0.081,2.707-0.286,3.82c-0.205,1.114-0.511,2.077-0.901,2.916c-0.39,0.839-0.864,1.552-1.405,2.164
		c-0.542,0.612-1.151,1.122-1.812,1.552c-0.662,0.43-1.376,0.781-2.128,1.073c-0.752,0.292-1.542,0.525-2.357,0.719
		c-0.036,0.009-0.073,0.015-0.109,0.023c-0.023,0.072-0.05,0.143-0.073,0.216c0.364-0.075,0.726-0.154,1.082-0.243
		C26.042,59.513,26.826,59.273,27.572,58.974z"/>
	<path d="M26.491,60.161c0.813-0.183,1.613-0.385,2.389-0.626c0.776-0.24,1.529-0.518,2.245-0.851
		c0.716-0.333,1.397-0.722,2.028-1.185c0.631-0.463,1.213-1,1.733-1.632c0.519-0.632,0.976-1.358,1.355-2.2
		c0.379-0.842,0.681-1.8,0.89-2.896c0.209-1.096,0.395-2.268,0.314-3.751c-0.082-1.483-0.462-3.086-1.111-4.798
		c-0.258-0.681-0.571-1.384-0.912-2.099c-0.183,0.207-0.362,0.416-0.542,0.626c0.251,0.551,0.487,1.095,0.687,1.624
		c0.647,1.709,1.024,3.308,1.102,4.785c0.078,1.477-0.101,2.663-0.31,3.762c-0.209,1.099-0.512,2.056-0.894,2.897
		c-0.382,0.84-0.842,1.563-1.367,2.19c-0.524,0.627-1.112,1.158-1.75,1.614c-0.638,0.456-1.325,0.836-2.049,1.16
		c-0.724,0.324-1.484,0.592-2.269,0.822c-0.784,0.23-1.593,0.423-2.413,0.595c-0.54,0.113-1.089,0.21-1.637,0.311
		c-0.018,0.058-0.032,0.118-0.05,0.176c0.032-0.006,0.064-0.012,0.095-0.019C24.853,60.506,25.678,60.344,26.491,60.161z"/>
	<path d="M27.683,60.531c0.792-0.206,1.582-0.417,2.359-0.649c0.777-0.231,1.541-0.483,2.281-0.771
		c0.74-0.288,1.457-0.612,2.14-0.989c0.682-0.377,1.33-0.806,1.931-1.306c0.601-0.5,1.156-1.069,1.652-1.728
		c0.496-0.658,0.933-1.406,1.299-2.261c0.365-0.855,0.658-1.819,0.865-2.912c0.207-1.093,0.418-2.22,0.322-3.722
		c-0.096-1.502-0.485-3.117-1.137-4.835c-0.446-1.173-1.024-2.398-1.706-3.663c-0.183,0.183-0.355,0.376-0.535,0.561
		c0.606,1.15,1.128,2.267,1.535,3.339c0.652,1.717,1.04,3.329,1.133,4.828c0.093,1.499-0.113,2.634-0.321,3.727
		c-0.208,1.093-0.504,2.055-0.873,2.906c-0.369,0.851-0.811,1.593-1.313,2.244s-1.064,1.213-1.673,1.703
		c-0.609,0.49-1.265,0.909-1.956,1.275c-0.691,0.366-1.417,0.678-2.166,0.954c-0.749,0.276-1.522,0.515-2.308,0.734
		c-0.786,0.219-1.584,0.418-2.385,0.612c-0.801,0.194-1.604,0.383-2.399,0.582c-0.232,0.058-0.456,0.127-0.686,0.187
		c-0.026,0.091-0.052,0.183-0.078,0.274c0.544-0.162,1.088-0.326,1.642-0.474C26.095,60.938,26.89,60.737,27.683,60.531z"/>
	<path d="M26.667,61.825c0.738-0.289,1.488-0.558,2.243-0.82c0.755-0.262,1.514-0.517,2.269-0.779
		c0.755-0.262,1.505-0.53,2.242-0.818c0.737-0.288,1.46-0.597,2.16-0.941c0.7-0.344,1.377-0.722,2.021-1.15
		c0.644-0.428,1.255-0.907,1.822-1.451c0.567-0.544,1.091-1.154,1.559-1.848s0.882-1.469,1.229-2.346
		c0.347-0.877,0.627-1.855,0.828-2.953c0.2-1.098,0.424-2.201,0.32-3.714c-0.104-1.514-0.496-3.133-1.146-4.847
		c-0.558-1.469-1.316-3.012-2.234-4.615c-0.183,0.164-0.368,0.325-0.549,0.492c0.873,1.54,1.596,3.024,2.133,4.438
		c0.652,1.716,1.044,3.335,1.146,4.846c0.102,1.512-0.119,2.618-0.322,3.714c-0.202,1.096-0.486,2.07-0.838,2.941
		c-0.352,0.871-0.771,1.64-1.247,2.324c-0.476,0.684-1.007,1.284-1.583,1.817c-0.576,0.533-1.196,0.999-1.849,1.414
		c-0.653,0.415-1.34,0.78-2.05,1.11c-0.71,0.33-1.443,0.624-2.19,0.898c-0.747,0.274-1.507,0.528-2.271,0.776
		s-1.532,0.489-2.295,0.738c-0.763,0.249-1.521,0.506-2.265,0.783c-0.744,0.278-1.475,0.576-2.183,0.908
		c-0.105,0.049-0.206,0.105-0.31,0.156c-0.049,0.19-0.086,0.385-0.133,0.576c0.434-0.251,0.874-0.491,1.328-0.711
		C25.205,62.423,25.93,62.114,26.667,61.825z"/>
	<path d="M24.321,65.532c0.587-0.541,1.204-1.031,1.846-1.483c0.641-0.452,1.306-0.864,1.988-1.249
		c0.681-0.385,1.38-0.742,2.087-1.084c0.707-0.341,1.424-0.666,2.141-0.987c0.718-0.321,1.438-0.637,2.151-0.961
		c0.713-0.324,1.421-0.656,2.114-1.008c0.693-0.352,1.372-0.725,2.028-1.131c0.656-0.406,1.29-0.846,1.891-1.333
		c0.602-0.487,1.172-1.021,1.701-1.618c0.529-0.596,1.018-1.254,1.455-1.989c0.437-0.735,0.824-1.548,1.148-2.453
		c0.325-0.906,0.588-1.905,0.778-3.016c0.19-1.11,0.416-2.207,0.309-3.725s-0.496-3.134-1.141-4.839
		c-0.61-1.615-1.456-3.314-2.497-5.081c-0.188,0.15-0.381,0.293-0.567,0.446c1.024,1.746,1.859,3.423,2.463,5.019
		c0.646,1.708,1.037,3.325,1.143,4.843c0.106,1.518-0.119,2.614-0.312,3.721c-0.193,1.107-0.46,2.1-0.791,2.999
		c-0.33,0.898-0.723,1.701-1.169,2.426s-0.942,1.371-1.481,1.954c-0.539,0.583-1.119,1.104-1.731,1.576s-1.256,0.897-1.923,1.288
		c-0.667,0.391-1.357,0.748-2.06,1.084s-1.422,0.653-2.145,0.961c-0.724,0.309-1.453,0.61-2.18,0.916
		c-0.727,0.306-1.452,0.617-2.167,0.946c-0.715,0.328-1.419,0.673-2.107,1.048c-0.687,0.374-1.357,0.777-2.001,1.22
		c-0.644,0.443-1.264,0.927-1.851,1.463c-0.306,0.28-0.603,0.575-0.891,0.885c-0.091,0.483-0.182,0.966-0.26,1.454
		c0.123-0.168,0.241-0.344,0.368-0.505C23.178,66.664,23.734,66.073,24.321,65.532z"/>
	<path d="M24.806,69.706c0.462-0.777,0.961-1.492,1.49-2.153c0.529-0.662,1.089-1.27,1.672-1.836
		c0.584-0.566,1.192-1.089,1.818-1.579c0.626-0.49,1.271-0.947,1.927-1.382c0.656-0.435,1.324-0.847,1.998-1.246
		c0.674-0.4,1.353-0.787,2.031-1.173c0.678-0.386,1.355-0.769,2.024-1.162c0.669-0.393,1.33-0.795,1.976-1.218
		c0.646-0.423,1.277-0.866,1.886-1.341c0.609-0.475,1.196-0.983,1.752-1.535c0.556-0.552,1.083-1.149,1.571-1.803
		c0.488-0.654,0.938-1.367,1.34-2.15c0.403-0.784,0.758-1.639,1.057-2.58s0.542-1.969,0.718-3.098
		c0.177-1.129,0.395-2.236,0.289-3.752c-0.105-1.516-0.489-3.123-1.122-4.812c-0.612-1.632-1.461-3.344-2.512-5.123
		c-0.193,0.138-0.388,0.272-0.579,0.412c1.06,1.791,1.916,3.513,2.532,5.153c0.636,1.694,1.021,3.303,1.127,4.82
		c0.106,1.517-0.115,2.62-0.295,3.745c-0.18,1.124-0.428,2.144-0.734,3.077s-0.669,1.777-1.08,2.548
		c-0.411,0.772-0.87,1.47-1.368,2.11c-0.498,0.64-1.035,1.221-1.603,1.758c-0.568,0.536-1.166,1.027-1.786,1.485
		c-0.62,0.458-1.263,0.884-1.921,1.289c-0.658,0.405-1.33,0.79-2.01,1.166c-0.68,0.376-1.367,0.743-2.055,1.113
		c-0.688,0.37-1.376,0.742-2.058,1.127c-0.682,0.385-1.357,0.784-2.02,1.206c-0.663,0.422-1.312,0.869-1.942,1.349
		c-0.63,0.481-1.241,0.995-1.826,1.555c-0.585,0.559-1.144,1.163-1.67,1.822c-0.527,0.659-1.021,1.373-1.477,2.152
		c-0.456,0.779-0.873,1.623-1.245,2.543c-0.235,0.581-0.599,1.269-1.064,2.019c-0.017,0.396-0.022,0.796-0.03,1.194
		c0.905-1.214,1.555-2.305,1.917-3.169C23.919,71.323,24.344,70.483,24.806,69.706z"/>
	<path d="M26.968,72.427c0.424-0.889,0.882-1.716,1.369-2.49c0.486-0.774,1-1.494,1.538-2.17c0.537-0.676,1.098-1.307,1.676-1.903
		c0.578-0.596,1.174-1.156,1.783-1.69c0.608-0.534,1.229-1.041,1.858-1.53c0.628-0.489,1.264-0.961,1.901-1.424
		c0.637-0.463,1.276-0.918,1.912-1.374s1.267-0.912,1.888-1.379c0.622-0.467,1.234-0.944,1.831-1.442
		c0.597-0.498,1.177-1.017,1.736-1.566c0.559-0.55,1.096-1.13,1.604-1.753s0.988-1.287,1.432-2.005
		c0.444-0.718,0.852-1.49,1.218-2.327c0.365-0.838,0.687-1.741,0.958-2.723c0.271-0.982,0.49-2.043,0.65-3.197
		c0.16-1.154,0.363-2.285,0.263-3.794c-0.1-1.509-0.473-3.101-1.091-4.77c-0.567-1.531-1.35-3.13-2.308-4.783
		c-0.198,0.125-0.395,0.251-0.592,0.379c0.988,1.695,1.794,3.332,2.375,4.898c0.622,1.674,0.998,3.27,1.1,4.781
		c0.102,1.511-0.105,2.635-0.27,3.783c-0.164,1.147-0.389,2.2-0.667,3.172c-0.278,0.972-0.608,1.863-0.982,2.688
		c-0.374,0.824-0.793,1.581-1.247,2.284c-0.455,0.702-0.946,1.35-1.466,1.956c-0.52,0.605-1.069,1.168-1.64,1.699
		c-0.571,0.531-1.164,1.032-1.773,1.511c-0.609,0.48-1.233,0.939-1.866,1.388c-0.633,0.449-1.276,0.888-1.921,1.326
		c-0.646,0.439-1.294,0.877-1.941,1.324c-0.646,0.448-1.29,0.905-1.925,1.381c-0.635,0.476-1.262,0.971-1.875,1.494
		c-0.613,0.523-1.212,1.074-1.792,1.662c-0.58,0.588-1.14,1.214-1.676,1.886c-0.536,0.672-1.046,1.391-1.527,2.165
		c-0.481,0.774-0.931,1.604-1.346,2.498c-0.415,0.895-1.21,2.041-2.338,3.339c-0.762,0.878-1.482,1.755-2.182,2.632
		c0.008,0.266,0.008,0.535,0.02,0.8c0.913-1.132,1.869-2.265,2.89-3.397C25.716,74.458,26.543,73.316,26.968,72.427z"/>
	<path d="M27.586,75.914c1.355-1.297,2.316-2.42,2.78-3.289c0.464-0.869,0.952-1.687,1.46-2.461
		c0.508-0.774,1.036-1.505,1.579-2.199c0.543-0.694,1.102-1.353,1.673-1.983c0.57-0.63,1.152-1.233,1.74-1.814
		c0.589-0.582,1.184-1.143,1.782-1.691c0.598-0.549,1.199-1.084,1.797-1.616c0.599-0.531,1.195-1.058,1.786-1.588
		c0.59-0.53,1.174-1.063,1.746-1.609s1.133-1.103,1.678-1.68c0.545-0.578,1.073-1.176,1.58-1.805
		c0.507-0.628,0.992-1.286,1.45-1.984c0.458-0.697,0.889-1.434,1.286-2.221c0.398-0.786,0.762-1.622,1.087-2.518
		c0.325-0.896,0.611-1.852,0.851-2.88c0.24-1.028,0.434-2.127,0.575-3.31c0.141-1.183,0.322-2.349,0.23-3.847
		c-0.092-1.498-0.452-3.071-1.052-4.714c-0.484-1.324-1.13-2.696-1.911-4.107c-0.202,0.114-0.403,0.231-0.604,0.347
		c0.829,1.478,1.514,2.912,2.021,4.294c0.604,1.649,0.967,3.227,1.062,4.728c0.094,1.501-0.093,2.658-0.238,3.833
		s-0.346,2.265-0.593,3.282c-0.247,1.016-0.542,1.96-0.877,2.841c-0.335,0.882-0.71,1.702-1.119,2.472
		c-0.409,0.77-0.851,1.489-1.321,2.168c-0.47,0.679-0.968,1.319-1.487,1.928c-0.519,0.609-1.06,1.188-1.617,1.747
		c-0.557,0.559-1.131,1.096-1.715,1.623c-0.584,0.526-1.179,1.041-1.781,1.553s-1.208,1.021-1.816,1.536
		c-0.608,0.515-1.217,1.035-1.822,1.569c-0.605,0.534-1.207,1.082-1.801,1.652c-0.593,0.57-1.179,1.162-1.751,1.784
		c-0.572,0.622-1.132,1.274-1.674,1.963c-0.542,0.69-1.067,1.417-1.57,2.191c-0.503,0.774-0.984,1.593-1.439,2.467
		c-0.455,0.874-1.384,2.001-2.695,3.298c-1.311,1.297-2.533,2.594-3.673,3.89c-0.477,0.543-0.931,1.085-1.38,1.628
		c0.019,0.215,0.028,0.432,0.049,0.645c0.619-0.745,1.258-1.49,1.934-2.235C24.97,78.507,26.231,77.211,27.586,75.914z"/>
	<path d="M26.309,79.969c1.323-1.294,2.75-2.589,4.29-3.885c1.54-1.296,2.635-2.402,3.137-3.255
		c0.502-0.853,1.019-1.665,1.547-2.443s1.068-1.522,1.616-2.239c0.548-0.717,1.104-1.406,1.664-2.074
		c0.561-0.668,1.126-1.316,1.693-1.949c0.567-0.633,1.135-1.252,1.701-1.863s1.13-1.215,1.688-1.817
		c0.558-0.603,1.111-1.204,1.654-1.812c0.543-0.608,1.078-1.222,1.599-1.849c0.521-0.627,1.029-1.268,1.52-1.929
		s0.965-1.343,1.417-2.054c0.452-0.711,0.884-1.45,1.289-2.226c0.406-0.776,0.785-1.589,1.135-2.447
		c0.349-0.858,0.668-1.762,0.952-2.72c0.283-0.958,0.532-1.971,0.739-3.047c0.207-1.077,0.374-2.218,0.494-3.434
		c0.12-1.216,0.274-2.427,0.193-3.909c-0.082-1.483-0.425-3.034-1.005-4.647c-0.364-1.015-0.832-2.058-1.376-3.121
		c-0.204,0.101-0.404,0.207-0.606,0.31c0.603,1.153,1.115,2.282,1.511,3.378c0.584,1.621,0.932,3.177,1.016,4.664
		c0.084,1.487-0.077,2.686-0.202,3.894c-0.125,1.208-0.298,2.338-0.513,3.403c-0.215,1.065-0.472,2.064-0.766,3.007
		c-0.294,0.943-0.623,1.83-0.984,2.671c-0.361,0.841-0.753,1.635-1.171,2.392c-0.418,0.757-0.862,1.477-1.328,2.167
		c-0.465,0.691-0.952,1.353-1.456,1.994c-0.504,0.641-1.024,1.262-1.558,1.869c-0.533,0.607-1.079,1.202-1.634,1.791
		c-0.555,0.589-1.118,1.173-1.686,1.758c-0.568,0.585-1.141,1.172-1.715,1.768c-0.574,0.596-1.148,1.201-1.72,1.821
		c-0.572,0.621-1.141,1.257-1.704,1.916c-0.563,0.659-1.12,1.341-1.667,2.052c-0.547,0.711-1.084,1.452-1.607,2.228
		c-0.524,0.777-1.034,1.59-1.527,2.446c-0.493,0.856-1.556,1.966-3.052,3.262s-2.883,2.591-4.171,3.886
		c-1.287,1.295-2.475,2.589-3.57,3.884c-0.02,0.023-0.037,0.046-0.057,0.07c0.025,0.185,0.044,0.372,0.071,0.557
		c0.165-0.196,0.318-0.392,0.488-0.588C23.768,82.557,24.986,81.263,26.309,79.969z"/>
	<path d="M28.8,80.142c1.472-1.293,3.066-2.586,4.793-3.88c1.726-1.295,2.955-2.385,3.494-3.224c0.539-0.839,1.083-1.647,1.63-2.432
		c0.547-0.784,1.097-1.545,1.648-2.286c0.551-0.741,1.102-1.463,1.651-2.172c0.55-0.709,1.097-1.404,1.641-2.091
		c0.544-0.687,1.083-1.366,1.616-2.042c0.533-0.676,1.058-1.35,1.575-2.027c0.517-0.677,1.024-1.356,1.519-2.044
		s0.978-1.385,1.447-2.097c0.468-0.712,0.922-1.438,1.358-2.186c0.436-0.747,0.854-1.516,1.251-2.311
		c0.397-0.796,0.773-1.619,1.125-2.476c0.352-0.857,0.679-1.748,0.979-2.681s0.572-1.907,0.812-2.929
		c0.24-1.023,0.449-2.095,0.622-3.223s0.311-2.315,0.408-3.566s0.221-2.514,0.152-3.979c-0.069-1.465-0.395-2.991-0.952-4.573
		c-0.215-0.61-0.474-1.232-0.756-1.859c-0.202,0.087-0.4,0.182-0.6,0.271c0.344,0.737,0.65,1.464,0.902,2.178
		c0.562,1.59,0.893,3.122,0.965,4.591c0.072,1.469-0.059,2.719-0.162,3.962c-0.103,1.243-0.247,2.418-0.429,3.534
		c-0.181,1.116-0.399,2.174-0.65,3.181c-0.251,1.007-0.534,1.964-0.846,2.879c-0.312,0.915-0.652,1.787-1.016,2.625
		c-0.365,0.838-0.754,1.64-1.164,2.416c-0.41,0.775-0.842,1.523-1.291,2.249c-0.449,0.727-0.916,1.432-1.397,2.124
		s-0.976,1.369-1.483,2.037c-0.507,0.669-1.025,1.33-1.551,1.989c-0.527,0.659-1.062,1.316-1.602,1.976
		c-0.541,0.661-1.087,1.325-1.636,1.999c-0.549,0.674-1.101,1.358-1.653,2.056c-0.552,0.699-1.105,1.413-1.655,2.148
		c-0.55,0.735-1.098,1.491-1.64,2.274c-0.543,0.783-1.08,1.592-1.61,2.434c-0.53,0.842-1.727,1.936-3.409,3.231
		c-1.682,1.295-3.236,2.588-4.673,3.881c-1.436,1.293-2.755,2.585-3.965,3.878c-0.641,0.685-1.247,1.37-1.829,2.055
		c0.028,0.162,0.057,0.323,0.086,0.484c0.707-0.833,1.441-1.666,2.239-2.499C25.978,82.727,27.328,81.435,28.8,80.142z"/>
	<path d="M26.818,84.191c1.353-1.289,2.835-2.579,4.457-3.869c1.622-1.291,3.384-2.582,5.298-3.875
		c1.914-1.293,3.276-2.369,3.85-3.195c0.574-0.826,1.145-1.633,1.71-2.426c0.565-0.793,1.125-1.571,1.677-2.338
		c0.553-0.767,1.099-1.525,1.636-2.275c0.538-0.751,1.067-1.496,1.586-2.238c0.519-0.743,1.029-1.483,1.528-2.227
		c0.498-0.743,0.985-1.489,1.459-2.241c0.474-0.752,0.935-1.511,1.381-2.282c0.446-0.771,0.878-1.552,1.292-2.35
		c0.415-0.798,0.813-1.612,1.193-2.447c0.38-0.835,0.741-1.691,1.081-2.574c0.341-0.882,0.66-1.791,0.958-2.731
		c0.297-0.94,0.571-1.912,0.82-2.921c0.249-1.009,0.473-2.055,0.669-3.145c0.196-1.09,0.365-2.222,0.503-3.405
		c0.138-1.183,0.246-2.415,0.32-3.704c0.074-1.289,0.164-2.607,0.109-4.053c-0.055-1.446-0.362-2.945-0.896-4.493
		c-0.04-0.115-0.089-0.232-0.131-0.347c-0.197,0.074-0.391,0.155-0.587,0.231c0.093,0.241,0.191,0.482,0.273,0.72
		c0.539,1.556,0.85,3.062,0.909,4.513c0.059,1.451-0.039,2.755-0.119,4.035c-0.08,1.28-0.194,2.501-0.341,3.671
		c-0.146,1.17-0.324,2.288-0.531,3.361c-0.207,1.074-0.442,2.102-0.703,3.093c-0.261,0.991-0.548,1.943-0.858,2.863
		c-0.31,0.92-0.643,1.808-0.997,2.67c-0.354,0.862-0.729,1.697-1.122,2.511c-0.393,0.814-0.804,1.607-1.232,2.385
		c-0.428,0.777-0.871,1.539-1.329,2.29c-0.458,0.751-0.93,1.491-1.414,2.225c-0.484,0.734-0.98,1.463-1.487,2.19
		c-0.507,0.727-1.023,1.453-1.549,2.182c-0.525,0.729-1.059,1.462-1.6,2.203c-0.54,0.741-1.088,1.489-1.64,2.251
		c-0.552,0.761-1.11,1.535-1.67,2.325c-0.561,0.791-1.125,1.598-1.691,2.427s-1.896,1.908-3.765,3.202
		c-1.869,1.294-3.591,2.585-5.177,3.877c-1.586,1.291-3.037,2.581-4.362,3.871c-1.302,1.267-2.481,2.534-3.552,3.801
		c0.03,0.144,0.068,0.285,0.099,0.429c0.09-0.107,0.169-0.214,0.261-0.321C24.24,86.769,25.465,85.48,26.818,84.191z"/>
	<path d="M28.886,84.365c1.47-1.287,3.084-2.574,4.856-3.862c1.772-1.289,3.702-2.578,5.804-3.87
		c2.101-1.292,3.597-2.353,4.207-3.168c0.61-0.815,1.206-1.621,1.789-2.423c0.582-0.802,1.151-1.598,1.706-2.393
		c0.554-0.795,1.094-1.587,1.62-2.381c0.525-0.794,1.036-1.589,1.531-2.388c0.495-0.799,0.975-1.603,1.438-2.413
		c0.464-0.811,0.911-1.629,1.342-2.458c0.431-0.829,0.845-1.668,1.242-2.522c0.397-0.854,0.776-1.721,1.136-2.606
		c0.361-0.885,0.703-1.788,1.026-2.712c0.323-0.924,0.627-1.869,0.911-2.839c0.284-0.97,0.547-1.965,0.789-2.989
		c0.242-1.024,0.463-2.077,0.661-3.163c0.198-1.086,0.374-2.205,0.525-3.363c0.152-1.157,0.279-2.352,0.382-3.589
		c0.102-1.237,0.18-2.517,0.23-3.844c0.05-1.327,0.105-2.704,0.064-4.129c-0.028-0.987-0.183-1.997-0.439-3.026
		c-0.184,0.059-0.365,0.124-0.548,0.185c0.33,1.185,0.525,2.343,0.56,3.471c0.045,1.43-0.019,2.793-0.075,4.111
		c-0.056,1.318-0.14,2.586-0.251,3.811c-0.111,1.224-0.248,2.404-0.411,3.545s-0.349,2.243-0.559,3.311s-0.444,2.101-0.699,3.105
		c-0.255,1.004-0.532,1.978-0.829,2.927c-0.297,0.949-0.615,1.873-0.951,2.776c-0.337,0.903-0.692,1.784-1.066,2.649
		c-0.374,0.864-0.765,1.712-1.174,2.545c-0.408,0.834-0.834,1.654-1.275,2.465c-0.441,0.811-0.898,1.612-1.37,2.406
		c-0.472,0.795-0.959,1.583-1.46,2.369c-0.501,0.786-1.016,1.569-1.544,2.352c-0.528,0.784-1.07,1.568-1.624,2.356
		c-0.554,0.788-1.121,1.58-1.699,2.38s-1.169,1.606-1.77,2.424c-0.601,0.817-2.065,1.882-4.122,3.174
		c-2.057,1.292-3.947,2.583-5.683,3.871c-1.736,1.289-3.319,2.577-4.761,3.864c-1.442,1.287-2.743,2.574-3.915,3.861
		c-0.459,0.504-0.882,1.008-1.303,1.512c0.032,0.129,0.057,0.261,0.09,0.39c0.516-0.621,1.057-1.241,1.633-1.862
		C26.091,86.938,27.416,85.652,28.886,84.365z"/>
	<path d="M30.954,84.54c1.586-1.284,3.333-2.569,5.255-3.855c1.923-1.287,4.021-2.575,6.31-3.865
		c2.289-1.291,3.918-2.337,4.563-3.141c0.645-0.803,1.267-1.609,1.867-2.42c0.6-0.811,1.178-1.626,1.734-2.448
		c0.556-0.822,1.09-1.65,1.603-2.487c0.513-0.837,1.004-1.682,1.475-2.538c0.471-0.856,0.92-1.722,1.349-2.6
		c0.429-0.879,0.837-1.769,1.225-2.675c0.388-0.905,0.755-1.825,1.102-2.762c0.347-0.937,0.674-1.89,0.981-2.862
		c0.307-0.972,0.593-1.963,0.86-2.976s0.513-2.046,0.74-3.104c0.227-1.058,0.434-2.139,0.62-3.247
		c0.187-1.108,0.354-2.242,0.501-3.405c0.147-1.163,0.274-2.356,0.381-3.58c0.107-1.225,0.194-2.481,0.261-3.773
		c0.067-1.292,0.114-2.619,0.14-3.984c0.026-1.366,0.047-2.8,0.02-4.206c-0.007-0.342-0.028-0.686-0.063-1.032
		c-0.167,0.046-0.333,0.094-0.499,0.142c0.071,0.51,0.122,1.017,0.133,1.517c0.03,1.41,0.002,2.831-0.03,4.188
		c-0.032,1.356-0.086,2.672-0.161,3.951c-0.075,1.279-0.172,2.521-0.29,3.729c-0.118,1.208-0.256,2.384-0.415,3.529
		c-0.159,1.145-0.339,2.26-0.539,3.348c-0.2,1.088-0.42,2.149-0.66,3.185c-0.24,1.037-0.5,2.049-0.781,3.041
		c-0.28,0.991-0.58,1.962-0.9,2.913c-0.32,0.952-0.659,1.885-1.018,2.801c-0.359,0.917-0.737,1.818-1.135,2.705
		c-0.398,0.887-0.816,1.761-1.253,2.623c-0.437,0.862-0.894,1.714-1.37,2.556c-0.476,0.842-0.972,1.676-1.488,2.502
		c-0.516,0.827-1.051,1.647-1.607,2.462c-0.556,0.815-1.131,1.626-1.727,2.435c-0.596,0.809-1.212,1.615-1.848,2.421
		c-0.637,0.806-2.234,1.856-4.479,3.147c-2.244,1.291-4.303,2.579-6.189,3.866c-1.887,1.287-3.602,2.572-5.16,3.857
		c-1.558,1.285-2.96,2.569-4.218,3.852c-0.964,0.984-1.843,1.967-2.645,2.951c0.035,0.126,0.071,0.251,0.107,0.376
		c0.888-1.096,1.867-2.192,2.959-3.289C27.943,87.107,29.368,85.824,30.954,84.54z"/>
	<path d="M28.441,88.554c1.364-1.28,2.889-2.56,4.591-3.842c1.702-1.282,3.581-2.564,5.653-3.849
		c2.072-1.285,4.338-2.571,6.815-3.86c2.476-1.289,4.239-2.321,4.92-3.112c0.681-0.791,1.329-1.595,1.947-2.414
		c0.618-0.819,1.205-1.652,1.763-2.5c0.558-0.848,1.087-1.711,1.588-2.59c0.501-0.879,0.974-1.774,1.421-2.685
		c0.447-0.911,0.867-1.839,1.261-2.784c0.395-0.945,0.764-1.908,1.109-2.889c0.345-0.981,0.666-1.981,0.964-2.999
		c0.298-1.019,0.573-2.057,0.826-3.115c0.253-1.058,0.485-2.137,0.695-3.237c0.211-1.1,0.401-2.222,0.571-3.366
		s0.321-2.311,0.453-3.502c0.132-1.191,0.246-2.405,0.342-3.645c0.096-1.24,0.175-2.504,0.238-3.795
		c0.063-1.291,0.11-2.609,0.141-3.954c0.032-1.346,0.049-2.719,0.052-4.122c0.002-1.049-0.005-2.136-0.014-3.203
		c-0.148,0.035-0.297,0.066-0.444,0.102c0.012,1.223,0.016,2.487,0.009,3.696c-0.009,1.394-0.033,2.757-0.073,4.09
		c-0.04,1.333-0.096,2.636-0.17,3.912c-0.073,1.275-0.164,2.523-0.272,3.744s-0.235,2.417-0.38,3.588
		c-0.145,1.171-0.309,2.318-0.493,3.441c-0.184,1.124-0.387,2.225-0.611,3.304c-0.224,1.079-0.468,2.138-0.734,3.176
		c-0.266,1.038-0.553,2.056-0.863,3.056c-0.31,0.999-0.642,1.98-0.997,2.943c-0.355,0.963-0.734,1.909-1.136,2.839
		c-0.403,0.93-0.83,1.843-1.282,2.741c-0.452,0.898-0.93,1.781-1.433,2.65c-0.504,0.869-1.034,1.724-1.591,2.566
		c-0.557,0.842-1.143,1.671-1.756,2.488c-0.614,0.817-1.256,1.622-1.928,2.416c-0.672,0.794-2.403,1.829-4.835,3.119
		c-2.432,1.29-4.658,2.576-6.695,3.861c-2.037,1.285-3.884,2.568-5.559,3.85c-1.674,1.282-3.176,2.563-4.52,3.844
		c-1.344,1.281-2.53,2.561-3.575,3.843c-0.138,0.169-0.267,0.338-0.4,0.507c0.037,0.118,0.078,0.235,0.115,0.353
		c0.214-0.274,0.431-0.549,0.658-0.823C25.873,91.114,27.076,89.834,28.441,88.554z"/>
	<path d="M30.238,88.712c1.449-1.277,3.073-2.555,4.89-3.834c1.817-1.279,3.827-2.56,6.049-3.842
		c2.221-1.283,4.654-2.568,7.317-3.856c2.663-1.288,4.559-2.304,5.277-3.081c0.717-0.777,1.393-1.578,2.03-2.403
		c0.637-0.825,1.235-1.674,1.796-2.547c0.561-0.873,1.086-1.769,1.576-2.688c0.49-0.919,0.946-1.862,1.369-2.827
		c0.423-0.965,0.815-1.953,1.176-2.963c0.361-1.01,0.693-2.043,0.996-3.098c0.303-1.055,0.579-2.132,0.829-3.231
		c0.25-1.099,0.474-2.22,0.675-3.363c0.201-1.143,0.378-2.307,0.533-3.494c0.156-1.186,0.29-2.394,0.404-3.623
		c0.115-1.229,0.21-2.48,0.289-3.751c0.079-1.272,0.14-2.565,0.187-3.878s0.079-2.649,0.099-4.005s0.027-2.733,0.025-4.13
		c-0.002-1.397-0.014-2.815-0.034-4.254c-0.005-0.39-0.012-0.789-0.02-1.189c-0.157,0.031-0.312,0.065-0.468,0.098
		c0.009,0.56,0.018,1.119,0.023,1.664c0.014,1.43,0.019,2.838,0.014,4.223c-0.006,1.385-0.022,2.748-0.052,4.089
		c-0.03,1.341-0.073,2.659-0.132,3.956c-0.059,1.296-0.132,2.571-0.224,3.824c-0.091,1.253-0.2,2.483-0.328,3.692
		c-0.128,1.209-0.275,2.397-0.444,3.563c-0.169,1.166-0.358,2.31-0.571,3.433c-0.213,1.123-0.449,2.225-0.71,3.305
		c-0.261,1.08-0.548,2.139-0.861,3.177c-0.313,1.038-0.654,2.054-1.023,3.049c-0.369,0.995-0.767,1.969-1.196,2.921
		c-0.429,0.953-0.889,1.884-1.381,2.794c-0.493,0.91-1.018,1.798-1.578,2.665c-0.56,0.867-1.156,1.712-1.788,2.536
		s-1.302,1.626-2.01,2.406c-0.709,0.78-2.573,1.8-5.192,3.089c-2.618,1.288-5.012,2.574-7.198,3.857s-4.165,2.564-5.955,3.844
		c-1.79,1.28-3.39,2.558-4.819,3.836c-1.429,1.278-2.686,2.555-3.788,3.833c-0.529,0.613-1.021,1.227-1.48,1.84
		c0.041,0.12,0.08,0.24,0.122,0.36c0.533-0.722,1.108-1.444,1.738-2.165C27.516,91.266,28.789,89.99,30.238,88.712z"/>
	<path d="M32.067,88.864c1.532-1.274,3.254-2.549,5.185-3.826c1.931-1.277,4.071-2.555,6.441-3.836
		c2.369-1.281,4.968-2.564,7.816-3.852c2.848-1.287,4.878-2.286,5.634-3.046c0.755-0.76,1.46-1.555,2.117-2.384
		c0.657-0.829,1.267-1.691,1.832-2.586c0.565-0.895,1.087-1.821,1.567-2.778c0.48-0.957,0.92-1.944,1.322-2.961
		c0.402-1.016,0.766-2.062,1.095-3.135c0.329-1.073,0.624-2.173,0.887-3.299s0.495-2.279,0.698-3.455
		c0.203-1.177,0.378-2.378,0.527-3.603c0.149-1.225,0.273-2.472,0.375-3.742c0.102-1.269,0.182-2.561,0.242-3.872
		c0.061-1.311,0.103-2.643,0.129-3.993c0.026-1.35,0.037-2.719,0.036-4.104c-0.001-1.386-0.015-2.788-0.037-4.206
		s-0.052-2.851-0.087-4.297c-0.029-1.19-0.061-2.394-0.094-3.6c-0.168,0.027-0.333,0.061-0.501,0.089
		c0.032,1.353,0.063,2.697,0.089,4.025c0.027,1.435,0.049,2.855,0.061,4.258c0.012,1.403,0.015,2.79,0.005,4.159
		c-0.01,1.369-0.033,2.72-0.071,4.051c-0.039,1.332-0.093,2.644-0.166,3.936c-0.074,1.292-0.166,2.564-0.28,3.813
		c-0.115,1.25-0.251,2.478-0.412,3.684c-0.161,1.206-0.348,2.388-0.562,3.547c-0.214,1.159-0.456,2.293-0.729,3.403
		c-0.273,1.11-0.576,2.194-0.913,3.252c-0.337,1.058-0.707,2.09-1.114,3.095c-0.407,1.004-0.85,1.981-1.333,2.93
		c-0.483,0.948-1.004,1.868-1.569,2.757c-0.564,0.89-1.171,1.749-1.823,2.577s-1.35,1.625-2.096,2.389
		c-0.746,0.764-2.745,1.768-5.549,3.055c-2.804,1.287-5.363,2.571-7.698,3.852c-2.334,1.281-4.444,2.56-6.348,3.837
		c-1.904,1.277-3.603,2.553-5.115,3.828c-1.512,1.275-2.838,2.549-3.997,3.824c-0.97,1.067-1.816,2.133-2.562,3.201
		c0.044,0.118,0.094,0.234,0.139,0.352c0.805-1.174,1.733-2.347,2.812-3.52C29.192,91.412,30.535,90.138,32.067,88.864z"/>
	<path d="M29.687,92.819c1.226-1.271,2.636-2.541,4.25-3.813c1.614-1.272,3.432-2.544,5.475-3.819
		c2.043-1.275,4.312-2.551,6.828-3.831c2.516-1.279,5.278-2.562,8.31-3.848c3.032-1.286,5.196-2.267,5.991-3.007
		c0.795-0.74,1.53-1.526,2.209-2.355c0.679-0.829,1.302-1.702,1.874-2.615c0.572-0.913,1.092-1.866,1.564-2.858
		c0.473-0.991,0.898-2.02,1.28-3.084c0.382-1.064,0.72-2.163,1.02-3.295c0.299-1.132,0.559-2.296,0.784-3.49
		c0.225-1.194,0.414-2.418,0.572-3.669c0.158-1.251,0.285-2.529,0.385-3.832c0.1-1.303,0.173-2.63,0.223-3.979
		s0.077-2.72,0.086-4.11c0.009-1.39-0.001-2.799-0.026-4.223c-0.024-1.425-0.062-2.865-0.11-4.319
		c-0.048-1.454-0.105-2.92-0.166-4.396c-0.062-1.476-0.128-2.962-0.194-4.453c-0.027-0.611-0.051-1.226-0.078-1.839
		c-0.181,0.022-0.362,0.045-0.543,0.069c0.029,0.749,0.057,1.501,0.087,2.247c0.059,1.481,0.116,2.955,0.169,4.417
		c0.052,1.463,0.099,2.914,0.136,4.352c0.037,1.438,0.064,2.862,0.076,4.269c0.012,1.407,0.01,2.798-0.011,4.17
		c-0.021,1.372-0.06,2.724-0.122,4.054c-0.062,1.331-0.147,2.639-0.259,3.924c-0.112,1.285-0.25,2.545-0.418,3.779
		c-0.169,1.234-0.368,2.441-0.602,3.619c-0.234,1.178-0.502,2.328-0.808,3.446c-0.306,1.118-0.651,2.205-1.037,3.258
		c-0.386,1.053-0.815,2.073-1.289,3.056s-0.994,1.931-1.564,2.84c-0.57,0.909-1.19,1.779-1.863,2.609
		c-0.674,0.829-1.401,1.618-2.187,2.363c-0.786,0.745-2.918,1.73-5.906,3.017c-2.988,1.286-5.712,2.569-8.193,3.849
		c-2.481,1.28-4.719,2.557-6.736,3.832c-2.017,1.275-3.812,2.548-5.407,3.821c-1.595,1.272-2.988,2.544-4.202,3.815
		c-1.214,1.271-2.247,2.543-3.121,3.815c-0.174,0.254-0.338,0.508-0.5,0.762c0.051,0.124,0.096,0.251,0.148,0.375
		c0.229-0.37,0.467-0.739,0.723-1.109C27.418,95.36,28.461,94.09,29.687,92.819z"/>
	<path d="M31.412,92.941c1.279-1.268,2.754-2.536,4.448-3.805c1.694-1.269,3.606-2.54,5.76-3.813
		c2.154-1.273,4.549-2.548,7.209-3.826c2.66-1.278,5.585-2.559,8.798-3.845c3.213-1.286,5.511-2.246,6.349-2.961
		c0.837-0.715,1.605-1.487,2.308-2.312c0.703-0.825,1.342-1.703,1.923-2.63c0.58-0.927,1.101-1.903,1.568-2.924
		c0.467-1.021,0.88-2.087,1.244-3.195c0.364-1.108,0.679-2.256,0.951-3.443c0.271-1.186,0.499-2.41,0.687-3.667
		c0.188-1.257,0.338-2.549,0.454-3.869c0.116-1.321,0.197-2.672,0.25-4.048c0.053-1.377,0.077-2.779,0.078-4.204
		c0.001-1.424-0.023-2.871-0.064-4.335s-0.101-2.946-0.173-4.441c-0.072-1.495-0.157-3.003-0.248-4.52
		c-0.092-1.517-0.19-3.043-0.289-4.573c-0.099-1.53-0.199-3.063-0.293-4.596c-0.004-0.062-0.007-0.123-0.01-0.184
		c-0.196,0.015-0.392,0.028-0.587,0.045c0.011,0.19,0.019,0.381,0.03,0.571c0.087,1.523,0.179,3.046,0.27,4.563
		c0.09,1.517,0.179,3.029,0.261,4.532c0.081,1.502,0.155,2.995,0.216,4.474c0.061,1.479,0.109,2.943,0.139,4.39
		c0.03,1.447,0.041,2.876,0.029,4.283c-0.012,1.407-0.048,2.792-0.111,4.151c-0.064,1.36-0.156,2.694-0.282,3.998
		s-0.284,2.58-0.481,3.823c-0.197,1.243-0.432,2.453-0.71,3.627c-0.278,1.174-0.598,2.311-0.966,3.409
		c-0.368,1.098-0.784,2.155-1.252,3.17c-0.468,1.014-0.989,1.986-1.567,2.91c-0.578,0.924-1.213,1.801-1.91,2.628
		c-0.697,0.826-1.457,1.602-2.284,2.324c-0.827,0.721-3.093,1.687-6.263,2.972c-3.17,1.286-6.057,2.567-8.683,3.846
		c-2.626,1.278-4.991,2.554-7.119,3.827c-2.128,1.273-4.018,2.544-5.693,3.814c-1.675,1.27-3.135,2.539-4.401,3.807
		c-1.267,1.269-2.34,2.537-3.243,3.806c-0.528,0.743-0.992,1.486-1.408,2.23c0.058,0.131,0.118,0.261,0.177,0.391
		c0.466-0.866,0.999-1.731,1.619-2.596C29.05,95.477,30.133,94.209,31.412,92.941z"/>
	<path d="M29.822,96.846c0.936-1.266,2.056-2.531,3.385-3.796c1.329-1.265,2.867-2.531,4.638-3.799
		c1.771-1.267,3.775-2.536,6.037-3.807s4.781-2.545,7.583-3.822c2.802-1.277,5.886-2.558,9.279-3.843
		c3.393-1.285,5.825-2.222,6.707-2.908c0.882-0.685,1.685-1.439,2.415-2.255s1.388-1.694,1.979-2.63
		c0.591-0.936,1.116-1.929,1.58-2.975c0.464-1.046,0.868-2.144,1.217-3.29c0.349-1.146,0.644-2.339,0.89-3.574
		c0.246-1.236,0.444-2.514,0.599-3.829c0.155-1.315,0.267-2.668,0.343-4.054c0.076-1.385,0.115-2.803,0.124-4.248
		c0.009-1.445-0.013-2.917-0.06-4.412c-0.046-1.494-0.117-3.011-0.205-4.543c-0.088-1.533-0.195-3.082-0.312-4.641
		c-0.117-1.56-0.246-3.13-0.379-4.705c-0.133-1.575-0.269-3.155-0.403-4.732c-0.095-1.126-0.184-2.247-0.273-3.368
		c-0.213,0.006-0.428,0.008-0.64,0.016c0.093,1.232,0.187,2.465,0.286,3.701c0.126,1.567,0.254,3.134,0.377,4.696
		c0.123,1.562,0.242,3.118,0.348,4.663c0.107,1.545,0.202,3.078,0.28,4.595c0.077,1.517,0.137,3.017,0.172,4.495
		c0.035,1.478,0.047,2.934,0.028,4.364c-0.019,1.429-0.068,2.832-0.153,4.202c-0.085,1.371-0.206,2.709-0.369,4.012
		c-0.163,1.302-0.367,2.568-0.619,3.792c-0.252,1.224-0.551,2.408-0.904,3.545c-0.353,1.137-0.758,2.228-1.223,3.269
		c-0.465,1.04-0.988,2.03-1.576,2.965c-0.588,0.934-1.241,1.813-1.965,2.632c-0.724,0.819-1.518,1.577-2.389,2.27
		c-0.871,0.693-3.271,1.636-6.621,2.921c-3.35,1.285-6.397,2.566-9.165,3.843c-2.768,1.277-5.258,2.551-7.494,3.823
		c-2.236,1.271-4.219,2.541-5.971,3.808c-1.753,1.268-3.276,2.534-4.593,3.8c-1.317,1.266-2.429,2.532-3.359,3.798
		c-0.93,1.266-1.677,2.533-2.266,3.802c0.055,0.18,0.133,0.321,0.204,0.465c0.065-0.148,0.124-0.296,0.193-0.444
		C28.135,99.378,28.886,98.111,29.822,96.846z"/>
	<path d="M31.592,96.931c0.959-1.263,2.114-2.526,3.49-3.789c1.376-1.263,2.974-2.527,4.82-3.793
		c1.846-1.266,3.939-2.533,6.305-3.803c2.367-1.27,5.007-2.543,7.948-3.819c2.941-1.277,6.182-2.557,9.751-3.842
		c3.569-1.285,6.135-2.197,7.065-2.846s1.771-1.378,2.532-2.179c0.76-0.801,1.44-1.674,2.045-2.612
		c0.605-0.939,1.137-1.944,1.601-3.008c0.465-1.065,0.862-2.189,1.2-3.367c0.337-1.178,0.615-2.409,0.839-3.688
		c0.224-1.279,0.395-2.605,0.52-3.973c0.125-1.368,0.203-2.776,0.242-4.22c0.039-1.444,0.039-2.923,0.006-4.43
		c-0.032-1.507-0.097-3.043-0.187-4.601c-0.09-1.558-0.204-3.138-0.337-4.733c-0.132-1.595-0.282-3.205-0.441-4.823
		c-0.159-1.618-0.328-3.244-0.499-4.871c-0.17-1.627-0.342-3.254-0.507-4.873c-0.07-0.691-0.131-1.372-0.198-2.059
		c-0.231-0.005-0.461-0.015-0.693-0.017c0.074,0.79,0.142,1.575,0.22,2.368c0.158,1.61,0.322,3.227,0.483,4.842
		c0.162,1.615,0.321,3.228,0.471,4.833c0.15,1.605,0.289,3.201,0.411,4.782c0.122,1.581,0.227,3.146,0.306,4.69
		c0.08,1.543,0.135,3.065,0.158,4.558c0.023,1.493,0.014,2.958-0.033,4.388c-0.048,1.43-0.134,2.827-0.265,4.182
		c-0.132,1.356-0.309,2.671-0.538,3.94s-0.51,2.492-0.85,3.663c-0.34,1.171-0.739,2.289-1.203,3.35
		c-0.464,1.061-0.994,2.063-1.595,3.002c-0.602,0.939-1.276,1.814-2.029,2.618c-0.753,0.805-1.585,1.54-2.503,2.199
		c-0.918,0.659-3.452,1.577-6.98,2.862c-3.527,1.285-6.732,2.566-9.64,3.842s-5.52,2.55-7.862,3.82
		c-2.342,1.27-4.414,2.538-6.242,3.804c-1.828,1.266-3.412,2.53-4.778,3.794c-1.365,1.264-2.512,2.527-3.466,3.791
		c-0.954,1.264-1.714,2.528-2.307,3.794c-0.289,0.618-0.537,1.236-0.749,1.855c0.09,0.167,0.18,0.333,0.271,0.498
		c0.242-0.779,0.535-1.558,0.9-2.336C29.87,99.458,30.633,98.195,31.592,96.931z"/>
	<path d="M31.122,100.786c0.592-1.263,1.364-2.524,2.343-3.786c0.979-1.261,2.165-2.522,3.586-3.783
		c1.421-1.262,3.075-2.524,4.992-3.788c1.917-1.264,4.096-2.53,6.565-3.799c2.469-1.269,5.227-2.541,8.304-3.817
		c3.077-1.276,6.472-2.557,10.214-3.842c3.742-1.286,6.443-2.168,7.424-2.775c0.981-0.607,1.865-1.304,2.659-2.082
		c0.794-0.779,1.499-1.639,2.122-2.574c0.623-0.935,1.165-1.944,1.634-3.02c0.468-1.076,0.863-2.22,1.193-3.422
		c0.329-1.203,0.593-2.466,0.799-3.781c0.206-1.315,0.354-2.683,0.452-4.095c0.098-1.413,0.146-2.87,0.152-4.365
		c0.006-1.495-0.03-3.028-0.1-4.59c-0.07-1.563-0.174-3.155-0.303-4.769c-0.13-1.614-0.285-3.251-0.457-4.901
		s-0.362-3.314-0.559-4.984c-0.197-1.669-0.403-3.344-0.607-5.015c-0.204-1.671-0.407-3.338-0.6-4.992
		c-0.033-0.287-0.06-0.567-0.092-0.853c-0.249-0.019-0.498-0.041-0.748-0.057c0.042,0.381,0.077,0.754,0.12,1.136
		c0.186,1.646,0.382,3.305,0.579,4.966s0.394,3.325,0.583,4.983c0.189,1.658,0.369,3.31,0.532,4.948
		c0.163,1.638,0.309,3.262,0.429,4.863c0.12,1.602,0.215,3.181,0.277,4.732s0.089,3.071,0.076,4.554
		c-0.014,1.484-0.069,2.93-0.173,4.333c-0.104,1.402-0.257,2.761-0.467,4.068c-0.21,1.307-0.477,2.563-0.807,3.761
		c-0.331,1.198-0.726,2.337-1.193,3.411c-0.467,1.074-1.006,2.083-1.625,3.019c-0.619,0.936-1.317,1.801-2.103,2.585
		c-0.786,0.784-1.659,1.489-2.628,2.107c-0.969,0.618-3.637,1.507-7.339,2.793c-3.701,1.286-7.06,2.566-10.105,3.842
		c-3.045,1.276-5.776,2.548-8.22,3.818c-2.445,1.269-4.604,2.536-6.504,3.8c-1.9,1.264-3.542,2.527-4.952,3.789
		c-1.41,1.262-2.589,2.523-3.564,3.785s-1.745,2.524-2.338,3.787c-0.593,1.264-1.008,2.529-1.274,3.796
		c-0.014,0.067-0.023,0.135-0.036,0.202c0.118,0.197,0.236,0.394,0.356,0.59c0.041-0.26,0.084-0.52,0.138-0.78
		C30.116,103.313,30.529,102.049,31.122,100.786z"/>
	<path d="M31.865,104.619c0.24-1.265,0.639-2.528,1.227-3.789c0.588-1.261,1.366-2.521,2.361-3.78
		c0.995-1.26,2.209-2.519,3.67-3.779c1.461-1.26,3.169-2.521,5.154-3.785c1.985-1.263,4.246-2.529,6.813-3.797
		s5.44-2.541,8.649-3.817c3.209-1.276,6.754-2.557,10.666-3.844c3.912-1.286,6.747-2.136,7.784-2.693
		c1.037-0.557,1.967-1.214,2.799-1.962c0.832-0.749,1.566-1.589,2.211-2.512c0.645-0.923,1.202-1.929,1.678-3.009
		c0.476-1.08,0.873-2.235,1.198-3.455c0.325-1.22,0.579-2.506,0.771-3.85c0.192-1.343,0.321-2.744,0.396-4.194
		c0.076-1.45,0.098-2.948,0.075-4.486c-0.023-1.538-0.09-3.117-0.193-4.727c-0.103-1.61-0.242-3.251-0.407-4.914
		c-0.165-1.663-0.357-3.348-0.565-5.046c-0.208-1.697-0.433-3.408-0.664-5.12c-0.231-1.713-0.469-3.428-0.703-5.135
		c-0.222-1.62-0.439-3.231-0.645-4.828c-0.269-0.037-0.54-0.07-0.81-0.103c0.21,1.674,0.434,3.365,0.661,5.063
		c0.227,1.699,0.458,3.405,0.682,5.109c0.224,1.703,0.44,3.403,0.64,5.09c0.2,1.687,0.383,3.361,0.54,5.014
		c0.157,1.652,0.288,3.282,0.384,4.882c0.096,1.599,0.156,3.168,0.172,4.697c0.016,1.529-0.011,3.018-0.092,4.46
		c-0.081,1.442-0.214,2.835-0.408,4.173c-0.195,1.337-0.451,2.619-0.776,3.836c-0.326,1.217-0.721,2.369-1.196,3.449
		c-0.474,1.08-1.027,2.087-1.666,3.014c-0.64,0.927-1.366,1.772-2.189,2.529c-0.823,0.756-1.741,1.424-2.764,1.993
		c-1.023,0.569-3.827,1.427-7.699,2.713s-7.382,2.567-10.56,3.843c-3.178,1.276-6.024,2.548-8.568,3.817
		c-2.544,1.269-4.786,2.534-6.755,3.798C41.768,90.738,40.072,92,38.62,93.26c-1.452,1.26-2.659,2.52-3.651,3.78
		c-0.992,1.26-1.768,2.52-2.358,3.781c-0.59,1.262-0.992,2.524-1.238,3.79c-0.184,0.95-0.279,1.9-0.298,2.853
		c0.167,0.246,0.345,0.483,0.516,0.726C31.56,106.997,31.64,105.807,31.865,104.619z"/>
	<path d="M34.027,104.64c0.214-1.264,0.596-2.525,1.176-3.784c0.58-1.26,1.359-2.518,2.367-3.777
		c1.008-1.258,2.245-2.517,3.743-3.776c1.497-1.259,3.255-2.52,5.303-3.783c2.048-1.263,4.388-2.528,7.049-3.797
		c2.661-1.269,5.645-2.541,8.983-3.818c3.337-1.277,7.029-2.559,11.107-3.847c4.078-1.288,7.048-2.1,8.145-2.598
		c1.097-0.498,2.077-1.107,2.952-1.817c0.874-0.71,1.642-1.521,2.314-2.424c0.672-0.903,1.247-1.896,1.736-2.972
		c0.489-1.075,0.891-2.232,1.217-3.461c0.326-1.229,0.575-2.53,0.756-3.893c0.182-1.363,0.297-2.789,0.354-4.267
		c0.058-1.478,0.058-3.008,0.011-4.581c-0.047-1.573-0.142-3.189-0.273-4.837c-0.132-1.648-0.301-3.329-0.497-5.031
		c-0.196-1.703-0.419-3.427-0.659-5.163c-0.239-1.736-0.495-3.483-0.755-5.229c-0.261-1.747-0.526-3.493-0.785-5.227
		c-0.194-1.3-0.377-2.582-0.558-3.863c-0.288-0.059-0.582-0.102-0.873-0.157c0.188,1.352,0.379,2.707,0.58,4.079
		c0.254,1.729,0.513,3.468,0.767,5.208c0.254,1.739,0.503,3.478,0.735,5.206c0.232,1.728,0.448,3.444,0.638,5.138
		c0.189,1.694,0.352,3.366,0.477,5.006c0.125,1.64,0.214,3.248,0.256,4.813c0.042,1.566,0.037,3.089-0.025,4.561
		c-0.061,1.472-0.179,2.892-0.363,4.252c-0.184,1.359-0.433,2.658-0.759,3.885c-0.325,1.228-0.726,2.385-1.211,3.462
		c-0.485,1.077-1.056,2.075-1.721,2.983c-0.665,0.908-1.424,1.727-2.288,2.447c-0.864,0.72-1.832,1.341-2.914,1.854
		c-1.082,0.513-4.02,1.334-8.059,2.622s-7.696,2.569-11.003,3.846c-3.307,1.277-6.265,2.549-8.904,3.818
		c-2.639,1.269-4.961,2.534-6.994,3.797c-2.034,1.263-3.78,2.524-5.269,3.783c-1.489,1.26-2.721,2.518-3.727,3.777
		c-1.005,1.259-1.784,2.517-2.366,3.777c-0.582,1.26-0.968,2.521-1.189,3.785c-0.221,1.264-0.276,2.53-0.196,3.801
		c0.051,0.816,0.162,1.635,0.316,2.455c0.26,0.325,0.518,0.65,0.784,0.969c-0.274-1.144-0.467-2.284-0.546-3.421
		C33.766,107.17,33.813,105.904,34.027,104.64z"/>
	<path d="M38.299,112.185c-0.322-1.276-0.541-2.546-0.626-3.812c-0.085-1.266-0.035-2.527,0.181-3.785
		c0.216-1.258,0.598-2.513,1.177-3.767c0.579-1.253,1.356-2.505,2.36-3.757c1.004-1.251,2.236-2.502,3.727-3.754
		c1.49-1.252,3.239-2.505,5.277-3.76c2.038-1.255,4.365-2.513,7.011-3.774c2.647-1.261,5.614-2.526,8.932-3.796
		c3.318-1.27,6.989-2.545,11.043-3.826c4.054-1.281,7.022-2.085,8.138-2.573c1.116-0.489,2.112-1.09,2.999-1.794
		c0.887-0.704,1.666-1.511,2.345-2.41c0.68-0.899,1.261-1.891,1.753-2.965s0.897-2.232,1.222-3.461
		c0.326-1.23,0.573-2.533,0.752-3.898c0.179-1.366,0.289-2.794,0.341-4.276c0.052-1.481,0.046-3.016-0.009-4.593
		s-0.157-3.197-0.297-4.85c-0.14-1.653-0.318-3.338-0.523-5.045c-0.205-1.707-0.437-3.436-0.685-5.175
		c-0.248-1.739-0.512-3.49-0.78-5.239c-0.268-1.749-0.541-3.497-0.805-5.233c-0.156-1.025-0.299-2.03-0.447-3.043
		c-0.281-0.078-0.558-0.165-0.84-0.239c0.155,1.062,0.307,2.118,0.471,3.194c0.266,1.738,0.539,3.489,0.808,5.242
		c0.269,1.752,0.534,3.506,0.782,5.249c0.249,1.743,0.481,3.475,0.687,5.186c0.206,1.71,0.384,3.399,0.525,5.055
		c0.141,1.656,0.244,3.279,0.299,4.859s0.061,3.117,0.009,4.601c-0.052,1.484-0.162,2.914-0.341,4.281
		c-0.179,1.367-0.427,2.67-0.753,3.9c-0.326,1.23-0.731,2.387-1.224,3.46c-0.493,1.074-1.076,2.064-1.756,2.961
		c-0.681,0.897-1.461,1.7-2.35,2.4c-0.889,0.7-1.887,1.297-3.005,1.779c-1.118,0.483-4.107,1.284-8.194,2.568
		c-4.087,1.284-7.787,2.562-11.131,3.835c-3.344,1.273-6.334,2.541-9,3.806c-2.666,1.264-5.009,2.525-7.06,3.784
		s-3.81,2.515-5.308,3.77c-1.498,1.255-2.736,2.509-3.743,3.763c-1.007,1.254-1.785,2.509-2.363,3.765
		c-0.578,1.256-0.957,2.514-1.168,3.774c-0.211,1.26-0.255,2.524-0.162,3.791c0.092,1.268,0.321,2.539,0.652,3.817
		c0.331,1.277,0.766,2.56,1.27,3.85c0.038,0.098,0.083,0.197,0.122,0.295c0.549,0.525,1.107,1.039,1.678,1.541
		c-0.263-0.619-0.515-1.237-0.751-1.852C39.044,114.743,38.62,113.461,38.299,112.185z"/>
	<path d="M43.82,116.15c-0.449-1.284-0.831-2.558-1.116-3.825c-0.284-1.267-0.471-2.528-0.528-3.782
		c-0.057-1.255,0.015-2.504,0.247-3.749c0.232-1.245,0.623-2.486,1.203-3.725c0.58-1.239,1.349-2.475,2.337-3.711
		c0.988-1.236,2.194-2.47,3.648-3.705c1.454-1.235,3.155-2.471,5.134-3.709c1.979-1.238,4.234-2.478,6.796-3.722
		c2.562-1.244,5.431-2.491,8.637-3.743c3.206-1.252,6.749-2.51,10.66-3.774c3.911-1.264,6.791-2.073,7.899-2.582
		c1.108-0.509,2.097-1.127,2.978-1.844c0.881-0.717,1.654-1.533,2.329-2.439c0.675-0.906,1.252-1.901,1.742-2.975
		c0.489-1.075,0.891-2.23,1.215-3.455c0.324-1.225,0.57-2.521,0.748-3.877c0.178-1.356,0.288-2.774,0.341-4.243
		c0.052-1.469,0.047-2.989-0.006-4.551c-0.053-1.562-0.154-3.166-0.292-4.801c-0.138-1.635-0.313-3.303-0.515-4.991
		c-0.202-1.689-0.43-3.399-0.674-5.12c-0.244-1.721-0.504-3.453-0.768-5.185c-0.264-1.732-0.532-3.463-0.792-5.182
		c-0.145-0.958-0.277-1.899-0.414-2.848c-0.243-0.084-0.487-0.167-0.732-0.248c0.138,0.945,0.269,1.883,0.414,2.838
		c0.261,1.724,0.53,3.459,0.795,5.196c0.265,1.736,0.526,3.473,0.771,5.199s0.474,3.441,0.677,5.135
		c0.203,1.694,0.379,3.366,0.517,5.006s0.24,3.248,0.293,4.814c0.053,1.566,0.059,3.09,0.007,4.563
		c-0.052,1.472-0.163,2.893-0.341,4.252c-0.178,1.359-0.424,2.657-0.749,3.884c-0.324,1.227-0.726,2.383-1.216,3.458
		c-0.49,1.075-1.068,2.07-1.744,2.975c-0.676,0.905-1.45,1.719-2.333,2.434c-0.882,0.715-1.873,1.329-2.983,1.834
		c-1.11,0.505-4.011,1.313-7.956,2.581c-3.945,1.269-7.519,2.531-10.752,3.788c-3.233,1.257-6.126,2.509-8.709,3.758
		c-2.583,1.248-4.856,2.493-6.849,3.736c-1.993,1.243-3.706,2.483-5.169,3.723c-1.463,1.24-2.676,2.479-3.668,3.719
		c-0.992,1.24-1.764,2.48-2.344,3.723c-0.58,1.243-0.97,2.488-1.198,3.737c-0.228,1.249-0.296,2.501-0.232,3.759
		c0.063,1.258,0.257,2.521,0.55,3.791c0.293,1.27,0.685,2.547,1.144,3.832c0.459,1.285,0.984,2.579,1.543,3.884
		c0.24,0.56,0.497,1.13,0.747,1.694c0.437,0.306,0.878,0.607,1.324,0.9c-0.371-0.85-0.748-1.703-1.101-2.544
		C44.784,118.726,44.269,117.433,43.82,116.15z"/>
	<path d="M49.301,120.397c-0.505-1.294-0.979-2.576-1.389-3.847c-0.41-1.271-0.757-2.533-1.009-3.785
		c-0.252-1.253-0.411-2.497-0.445-3.735c-0.034-1.238,0.055-2.469,0.297-3.695c0.242-1.226,0.637-2.448,1.213-3.666
		c0.576-1.218,1.333-2.434,2.299-3.648c0.966-1.214,2.141-2.426,3.553-3.639c1.412-1.213,3.061-2.426,4.975-3.641
		c1.914-1.215,4.093-2.432,6.566-3.652c2.473-1.22,5.239-2.445,8.327-3.674c3.088-1.229,6.499-2.464,10.262-3.705
		c3.763-1.241,6.552-2.05,7.652-2.574c1.1-0.525,2.083-1.154,2.958-1.879c0.875-0.725,1.643-1.546,2.314-2.452
		c0.671-0.907,1.245-1.9,1.731-2.97c0.487-1.07,0.886-2.217,1.209-3.432c0.322-1.215,0.568-2.498,0.746-3.84
		c0.178-1.342,0.289-2.743,0.342-4.194s0.05-2.952-0.001-4.493c-0.051-1.541-0.149-3.123-0.284-4.736
		c-0.135-1.613-0.307-3.257-0.505-4.922c-0.198-1.665-0.423-3.351-0.662-5.048s-0.495-3.405-0.754-5.114
		c-0.259-1.708-0.522-3.417-0.776-5.115c-0.165-1.099-0.316-2.181-0.471-3.268c-0.21-0.086-0.422-0.166-0.634-0.25
		c0.148,1.034,0.292,2.063,0.449,3.109c0.256,1.703,0.52,3.418,0.78,5.132c0.26,1.714,0.516,3.429,0.757,5.132
		c0.241,1.703,0.466,3.396,0.665,5.067c0.199,1.671,0.372,3.321,0.508,4.94c0.136,1.619,0.235,3.206,0.286,4.753
		c0.051,1.547,0.056,3.052,0.003,4.508c-0.053,1.456-0.164,2.861-0.342,4.207c-0.178,1.346-0.423,2.632-0.746,3.85
		c-0.323,1.218-0.723,2.367-1.21,3.439c-0.487,1.072-1.062,2.065-1.734,2.972c-0.672,0.907-1.441,1.727-2.318,2.45
		c-0.877,0.724-1.861,1.351-2.963,1.872c-1.102,0.521-3.913,1.33-7.711,2.578c-3.798,1.247-7.241,2.488-10.358,3.723
		c-3.117,1.235-5.908,2.465-8.402,3.692c-2.494,1.227-4.692,2.45-6.622,3.67c-1.93,1.221-3.592,2.44-5.014,3.659
		c-1.422,1.219-2.605,2.437-3.577,3.656c-0.972,1.22-1.732,2.44-2.309,3.664c-0.577,1.224-0.972,2.45-1.212,3.682
		c-0.24,1.231-0.326,2.467-0.286,3.709c0.039,1.242,0.204,2.491,0.463,3.748c0.26,1.257,0.614,2.522,1.033,3.796
		c0.419,1.275,0.902,2.56,1.417,3.856c0.515,1.297,1.062,2.605,1.607,3.928c0.09,0.219,0.179,0.44,0.269,0.66
		c0.355,0.194,0.719,0.374,1.079,0.561c-0.149-0.373-0.297-0.747-0.447-1.117C50.344,122.998,49.807,121.691,49.301,120.397z"/>
	<path d="M53.115,121.003c-0.468-1.28-0.905-2.546-1.282-3.8c-0.376-1.254-0.692-2.496-0.917-3.729
		c-0.225-1.233-0.36-2.456-0.377-3.671c-0.017-1.215,0.085-2.423,0.333-3.625c0.248-1.202,0.642-2.399,1.208-3.591
		c0.567-1.193,1.307-2.382,2.246-3.569c0.94-1.187,2.079-2.372,3.444-3.557c1.366-1.185,2.957-2.37,4.802-3.557
		c1.845-1.187,3.943-2.375,6.321-3.567c2.378-1.192,5.036-2.388,8.003-3.589c2.966-1.201,6.24-2.407,9.85-3.621
		c3.61-1.214,6.306-2.017,7.399-2.552c1.093-0.536,2.07-1.172,2.94-1.9c0.87-0.728,1.633-1.549,2.301-2.452
		c0.667-0.903,1.238-1.89,1.722-2.95s0.882-2.196,1.204-3.396c0.321-1.201,0.566-2.467,0.745-3.79
		c0.178-1.323,0.29-2.703,0.345-4.132c0.055-1.428,0.053-2.905,0.004-4.421c-0.049-1.516-0.144-3.071-0.276-4.657
		c-0.132-1.586-0.3-3.201-0.494-4.838c-0.194-1.637-0.414-3.294-0.649-4.963c-0.235-1.669-0.485-3.348-0.739-5.029
		c-0.254-1.681-0.511-3.362-0.76-5.034c-0.214-1.436-0.416-2.859-0.61-4.273c-0.18-0.084-0.363-0.164-0.545-0.246
		c0.183,1.318,0.369,2.64,0.569,3.977c0.25,1.678,0.509,3.367,0.764,5.054c0.255,1.688,0.506,3.375,0.743,5.05
		c0.236,1.676,0.457,3.34,0.652,4.984c0.195,1.644,0.364,3.267,0.497,4.859c0.133,1.592,0.229,3.154,0.278,4.677
		s0.052,3.005-0.003,4.439c-0.055,1.434-0.166,2.82-0.344,4.148c-0.178,1.328-0.423,2.599-0.745,3.803
		c-0.322,1.204-0.72,2.343-1.205,3.406c-0.485,1.063-1.056,2.052-1.724,2.956c-0.668,0.904-1.432,1.725-2.304,2.453
		s-1.849,1.363-2.944,1.896c-1.095,0.533-3.813,1.338-7.46,2.559c-3.646,1.221-6.953,2.434-9.949,3.642
		c-2.996,1.208-5.68,2.411-8.081,3.61s-4.519,2.395-6.381,3.589c-1.862,1.194-3.468,2.386-4.845,3.578
		c-1.377,1.192-2.525,2.384-3.471,3.578c-0.946,1.194-1.69,2.39-2.26,3.589s-0.964,2.402-1.211,3.61
		c-0.247,1.208-0.346,2.422-0.326,3.643c0.02,1.221,0.161,2.45,0.392,3.688c0.231,1.238,0.554,2.485,0.938,3.744
		c0.384,1.259,0.83,2.529,1.306,3.813s0.984,2.581,1.49,3.894c0.287,0.745,0.571,1.496,0.851,2.251
		c0.315,0.138,0.629,0.277,0.947,0.409c-0.305-0.842-0.615-1.679-0.93-2.507C54.082,123.577,53.583,122.283,53.115,121.003z"/>
	<path d="M56.79,121.819c-0.435-1.261-0.84-2.506-1.187-3.738c-0.347-1.232-0.635-2.451-0.838-3.659
		c-0.202-1.208-0.318-2.405-0.321-3.594c-0.003-1.188,0.107-2.368,0.357-3.542c0.249-1.173,0.638-2.34,1.192-3.502
		c0.554-1.162,1.272-2.32,2.181-3.476c0.909-1.156,2.008-2.309,3.323-3.462c1.315-1.153,2.846-2.305,4.617-3.459
		c1.772-1.154,3.785-2.31,6.064-3.469c2.28-1.159,4.826-2.322,7.666-3.49c2.84-1.168,5.972-2.342,9.425-3.523
		c3.453-1.181,6.054-1.975,7.141-2.518c1.086-0.543,2.057-1.182,2.922-1.911s1.624-1.544,2.288-2.44
		c0.664-0.896,1.232-1.872,1.714-2.92c0.482-1.048,0.879-2.166,1.2-3.349c0.321-1.182,0.566-2.428,0.744-3.728
		c0.179-1.3,0.291-2.656,0.348-4.058c0.057-1.402,0.057-2.851,0.011-4.338c-0.046-1.487-0.138-3.012-0.266-4.566
		c-0.128-1.555-0.293-3.138-0.482-4.743c-0.19-1.605-0.405-3.23-0.635-4.866c-0.23-1.636-0.475-3.284-0.723-4.933
		c-0.248-1.649-0.5-3.299-0.743-4.941c-0.243-1.642-0.478-3.275-0.692-4.888c-0.041-0.312-0.078-0.619-0.117-0.93
		c-0.157-0.082-0.315-0.162-0.473-0.242c0.022,0.165,0.04,0.328,0.062,0.493c0.215,1.62,0.451,3.26,0.696,4.909
		c0.245,1.649,0.498,3.307,0.747,4.964s0.496,3.312,0.727,4.956c0.231,1.644,0.448,3.277,0.639,4.89
		c0.191,1.612,0.356,3.204,0.485,4.766c0.129,1.562,0.222,3.095,0.269,4.589c0.047,1.494,0.047,2.95-0.009,4.358
		c-0.056,1.409-0.169,2.77-0.347,4.076c-0.179,1.306-0.424,2.557-0.744,3.744c-0.321,1.187-0.718,2.31-1.201,3.361
		c-0.483,1.051-1.051,2.03-1.716,2.928c-0.664,0.898-1.425,1.716-2.291,2.444s-1.838,1.368-2.926,1.909
		c-1.088,0.541-3.712,1.338-7.203,2.527c-3.49,1.189-6.657,2.371-9.527,3.548c-2.87,1.176-5.444,2.347-7.747,3.515
		c-2.303,1.167-4.337,2.331-6.126,3.493c-1.789,1.162-3.335,2.323-4.662,3.484c-1.327,1.161-2.436,2.322-3.353,3.485
		c-0.917,1.163-1.64,2.329-2.198,3.499c-0.557,1.17-0.947,2.344-1.197,3.525c-0.249,1.181-0.358,2.367-0.352,3.563
		c0.006,1.195,0.126,2.399,0.333,3.613c0.207,1.214,0.502,2.439,0.855,3.677c0.354,1.238,0.766,2.488,1.209,3.754
		c0.442,1.266,0.915,2.547,1.386,3.845c0.362,0.996,0.712,2.013,1.058,3.031c0.284,0.1,0.571,0.195,0.857,0.29
		c-0.351-1.05-0.708-2.097-1.076-3.123C57.689,124.357,57.225,123.08,56.79,121.819z"/>
	<path d="M60.344,122.819c-0.406-1.238-0.783-2.458-1.104-3.664c-0.321-1.206-0.586-2.397-0.769-3.576
		c-0.183-1.179-0.284-2.346-0.277-3.504c0.007-1.157,0.122-2.305,0.369-3.446c0.247-1.14,0.627-2.274,1.164-3.402
		c0.537-1.128,1.23-2.251,2.105-3.371c0.875-1.12,1.93-2.237,3.191-3.354c1.261-1.117,2.726-2.232,4.421-3.35
		c1.695-1.117,3.619-2.236,5.797-3.358c2.178-1.122,4.609-2.248,7.319-3.379c2.71-1.131,5.698-2.268,8.99-3.413
		c3.292-1.145,5.797-1.926,6.877-2.473c1.08-0.547,2.044-1.187,2.904-1.912c0.86-0.725,1.615-1.534,2.275-2.42
		c0.66-0.886,1.225-1.849,1.706-2.88c0.48-1.031,0.876-2.132,1.196-3.292c0.32-1.161,0.565-2.383,0.744-3.657
		c0.179-1.275,0.293-2.602,0.352-3.975c0.058-1.373,0.061-2.79,0.018-4.245c-0.043-1.455-0.132-2.946-0.257-4.467
		c-0.125-1.52-0.285-3.069-0.47-4.639c-0.185-1.569-0.396-3.159-0.621-4.759c-0.225-1.601-0.465-3.213-0.707-4.827
		c-0.243-1.614-0.488-3.23-0.726-4.839c-0.237-1.608-0.466-3.209-0.673-4.792c-0.135-1.028-0.256-2.044-0.369-3.053
		c-0.139-0.079-0.276-0.161-0.415-0.239c0.097,0.832,0.201,1.67,0.312,2.514c0.209,1.59,0.439,3.199,0.678,4.815
		c0.239,1.617,0.486,3.241,0.73,4.864c0.244,1.623,0.485,3.243,0.711,4.853c0.226,1.609,0.438,3.207,0.625,4.785
		c0.186,1.578,0.348,3.135,0.473,4.664c0.125,1.529,0.215,3.029,0.259,4.491c0.044,1.463,0.042,2.888-0.016,4.268
		c-0.058,1.38-0.171,2.714-0.351,3.996c-0.179,1.281-0.424,2.509-0.744,3.675c-0.32,1.166-0.716,2.271-1.197,3.307
		c-0.481,1.035-1.047,2.002-1.708,2.89c-0.661,0.889-1.417,1.7-2.278,2.426c-0.861,0.726-1.827,1.366-2.908,1.912
		c-1.081,0.546-3.609,1.331-6.94,2.484c-3.331,1.154-6.353,2.3-9.094,3.44c-2.741,1.14-5.2,2.275-7.402,3.407
		c-2.202,1.131-4.148,2.259-5.861,3.385c-1.713,1.126-3.195,2.251-4.469,3.377c-1.274,1.125-2.34,2.252-3.223,3.38
		c-0.883,1.129-1.583,2.26-2.124,3.397c-0.541,1.137-0.923,2.278-1.171,3.427c-0.248,1.149-0.362,2.304-0.367,3.469
		c-0.005,1.165,0.099,2.34,0.286,3.526c0.187,1.186,0.458,2.385,0.785,3.597c0.327,1.212,0.71,2.439,1.123,3.683
		c0.412,1.244,0.853,2.504,1.294,3.784c0.365,1.06,0.722,2.142,1.069,3.23c0.267,0.074,0.531,0.157,0.8,0.227
		c-0.342-1.085-0.694-2.164-1.053-3.22C61.184,125.312,60.75,124.057,60.344,122.819z"/>
	<path d="M63.795,123.975c-0.379-1.211-0.731-2.403-1.03-3.579c-0.299-1.176-0.544-2.336-0.71-3.483
		c-0.167-1.147-0.255-2.28-0.242-3.403c0.014-1.123,0.13-2.235,0.372-3.339c0.242-1.104,0.61-2.2,1.127-3.29
		c0.517-1.09,1.182-2.175,2.02-3.256c0.837-1.081,1.846-2.159,3.05-3.236c1.203-1.077,2.601-2.153,4.216-3.23
		c1.615-1.077,3.447-2.155,5.52-3.237c2.073-1.082,4.385-2.167,6.962-3.258c2.577-1.091,5.417-2.188,8.545-3.293
		c3.128-1.105,5.535-1.871,6.608-2.42c1.073-0.549,2.032-1.187,2.886-1.906c0.855-0.719,1.605-1.519,2.262-2.393
		c0.657-0.874,1.219-1.821,1.697-2.834c0.478-1.013,0.872-2.092,1.192-3.229c0.319-1.137,0.564-2.333,0.744-3.58
		c0.18-1.247,0.295-2.545,0.355-3.886c0.06-1.341,0.065-2.726,0.024-4.146s-0.126-2.876-0.247-4.36
		c-0.121-1.484-0.277-2.996-0.458-4.528c-0.181-1.532-0.387-3.083-0.607-4.646s-0.454-3.137-0.691-4.714
		c-0.237-1.577-0.477-3.156-0.708-4.729c-0.231-1.573-0.454-3.139-0.655-4.689c-0.201-1.55-0.381-3.083-0.527-4.59
		c-0.033-0.336-0.056-0.665-0.085-0.999c-0.125-0.077-0.248-0.158-0.375-0.235c0.011,0.118,0.019,0.234,0.03,0.353
		c0.147,1.514,0.329,3.055,0.532,4.612c0.203,1.558,0.427,3.132,0.659,4.714c0.233,1.581,0.474,3.17,0.712,4.756
		c0.238,1.586,0.474,3.169,0.695,4.741c0.221,1.572,0.428,3.133,0.61,4.673c0.182,1.541,0.339,3.062,0.461,4.554
		s0.208,2.957,0.25,4.386s0.037,2.821-0.023,4.17c-0.06,1.349-0.174,2.654-0.354,3.907c-0.18,1.254-0.425,2.456-0.744,3.599
		c-0.32,1.143-0.714,2.227-1.193,3.245c-0.479,1.018-1.042,1.969-1.699,2.845c-0.658,0.877-1.409,1.679-2.265,2.4
		c-0.856,0.721-1.816,1.359-2.891,1.908c-1.075,0.549-3.505,1.318-6.672,2.433s-6.043,2.222-8.652,3.323
		c-2.609,1.101-4.95,2.196-7.048,3.288c-2.098,1.092-3.952,2.18-5.586,3.267c-1.634,1.087-3.048,2.172-4.266,3.259
		c-1.217,1.087-2.238,2.174-3.084,3.265c-0.846,1.091-1.519,2.185-2.041,3.284c-0.522,1.1-0.893,2.205-1.136,3.318
		c-0.244,1.113-0.36,2.234-0.372,3.365s0.079,2.273,0.249,3.428c0.17,1.155,0.42,2.323,0.724,3.506
		c0.304,1.183,0.661,2.383,1.047,3.6c0.385,1.218,0.799,2.454,1.212,3.711c0.322,0.978,0.635,1.982,0.943,2.987
		c0.249,0.053,0.498,0.104,0.749,0.153c-0.294-0.966-0.591-1.931-0.897-2.871C64.582,126.416,64.175,125.186,63.795,123.975z"/>
	<path d="M67.161,125.261c-0.356-1.181-0.685-2.342-0.964-3.486c-0.279-1.143-0.506-2.27-0.66-3.381s-0.232-2.209-0.214-3.294
		c0.018-1.086,0.133-2.159,0.368-3.224c0.234-1.065,0.588-2.121,1.082-3.171c0.494-1.05,1.129-2.093,1.927-3.132
		c0.797-1.039,1.757-2.075,2.901-3.109c1.144-1.034,2.471-2.067,4.004-3.101c1.533-1.034,3.27-2.069,5.235-3.108
		c1.965-1.039,4.157-2.081,6.598-3.129c2.441-1.048,5.131-2.102,8.093-3.165c2.962-1.062,5.269-1.81,6.335-2.36
		c1.066-0.55,2.019-1.184,2.868-1.896c0.849-0.712,1.596-1.502,2.249-2.361c0.653-0.86,1.213-1.79,1.689-2.783
		c0.476-0.993,0.869-2.05,1.187-3.162c0.319-1.112,0.563-2.281,0.744-3.498c0.18-1.217,0.296-2.484,0.358-3.792
		c0.061-1.308,0.068-2.658,0.03-4.042c-0.038-1.384-0.121-2.803-0.238-4.249c-0.118-1.446-0.27-2.919-0.447-4.412
		c-0.177-1.493-0.378-3.005-0.593-4.528c-0.215-1.524-0.444-3.059-0.676-4.597c-0.232-1.538-0.466-3.08-0.692-4.615
		s-0.442-3.066-0.637-4.581c-0.195-1.515-0.369-3.016-0.509-4.491c-0.126-1.325-0.218-2.627-0.278-3.904
		c-0.116-0.077-0.235-0.149-0.351-0.225c0.061,1.048,0.137,2.107,0.24,3.186c0.141,1.483,0.317,2.991,0.513,4.515
		c0.197,1.524,0.415,3.062,0.641,4.607c0.227,1.545,0.463,3.095,0.696,4.643c0.233,1.547,0.463,3.092,0.68,4.625
		c0.216,1.533,0.419,3.055,0.597,4.557c0.178,1.502,0.331,2.984,0.45,4.44c0.118,1.455,0.202,2.883,0.24,4.276
		c0.039,1.393,0.032,2.751-0.029,4.067c-0.061,1.316-0.177,2.59-0.357,3.814c-0.18,1.224-0.425,2.399-0.744,3.518
		c-0.319,1.118-0.712,2.18-1.188,3.178c-0.477,0.998-1.037,1.932-1.691,2.796c-0.654,0.863-1.401,1.655-2.252,2.369
		s-1.805,1.349-2.873,1.899c-1.068,0.55-3.399,1.302-6.401,2.375c-3.002,1.073-5.728,2.137-8.202,3.196s-4.694,2.111-6.685,3.161
		c-1.991,1.049-3.751,2.095-5.304,3.139c-1.552,1.045-2.897,2.088-4.055,3.133c-1.158,1.045-2.13,2.091-2.937,3.14
		c-0.807,1.05-1.45,2.103-1.95,3.162c-0.5,1.059-0.857,2.125-1.093,3.2c-0.236,1.074-0.352,2.158-0.369,3.252
		c-0.017,1.095,0.064,2.201,0.22,3.321c0.156,1.12,0.388,2.255,0.671,3.406c0.283,1.152,0.618,2.32,0.979,3.509
		c0.361,1.189,0.749,2.397,1.138,3.629c0.246,0.779,0.483,1.585,0.722,2.383c0.235,0.036,0.474,0.057,0.709,0.09
		c-0.218-0.728-0.431-1.466-0.654-2.178C67.899,127.644,67.517,126.442,67.161,125.261z"/>
	<path d="M70.459,126.648c-0.335-1.149-0.644-2.277-0.904-3.385c-0.261-1.109-0.473-2.198-0.615-3.272s-0.213-2.133-0.193-3.179
		c0.02-1.046,0.132-2.079,0.357-3.103c0.224-1.023,0.561-2.037,1.031-3.044c0.47-1.007,1.072-2.006,1.828-3.002
		c0.756-0.995,1.664-1.987,2.746-2.976c1.082-0.99,2.337-1.977,3.785-2.966c1.448-0.989,3.09-1.979,4.945-2.972
		c1.855-0.993,3.924-1.99,6.228-2.993c2.303-1.003,4.841-2.012,7.635-3.03c2.794-1.018,5.001-1.746,6.059-2.296
		c1.059-0.549,2.005-1.18,2.849-1.884c0.844-0.704,1.585-1.483,2.234-2.328c0.649-0.845,1.205-1.758,1.679-2.73
		c0.474-0.973,0.864-2.006,1.182-3.092c0.317-1.087,0.562-2.227,0.742-3.414c0.18-1.187,0.297-2.421,0.36-3.696
		c0.063-1.274,0.071-2.589,0.035-3.937c-0.036-1.348-0.116-2.729-0.231-4.136c-0.115-1.407-0.264-2.841-0.437-4.294
		c-0.173-1.453-0.37-2.925-0.581-4.408c-0.211-1.483-0.435-2.978-0.662-4.477c-0.227-1.499-0.456-3.001-0.676-4.499
		c-0.22-1.498-0.431-2.991-0.621-4.471c-0.19-1.48-0.358-2.947-0.492-4.391c-0.134-1.444-0.234-2.865-0.285-4.254
		c-0.034-0.915,0.007-1.769,0.009-2.663c-0.122-0.087-0.244-0.175-0.366-0.261c-0.011,0.632-0.027,1.258-0.002,1.916
		c0.053,1.395,0.154,2.824,0.289,4.275c0.135,1.452,0.305,2.926,0.496,4.415c0.191,1.488,0.403,2.99,0.625,4.497
		s0.452,3.019,0.68,4.527c0.228,1.508,0.453,3.013,0.665,4.506c0.212,1.493,0.41,2.974,0.584,4.437
		c0.174,1.462,0.324,2.906,0.439,4.322c0.115,1.417,0.196,2.807,0.232,4.163c0.036,1.357,0.028,2.679-0.034,3.962
		c-0.062,1.282-0.179,2.524-0.359,3.719c-0.18,1.194-0.425,2.341-0.742,3.434c-0.318,1.093-0.709,2.131-1.183,3.109
		c-0.474,0.978-1.031,1.894-1.681,2.743c-0.65,0.849-1.393,1.63-2.238,2.336c-0.845,0.706-1.793,1.338-2.854,1.887
		c-1.06,0.549-3.291,1.283-6.125,2.311c-2.834,1.029-5.409,2.048-7.745,3.062c-2.336,1.014-4.435,2.022-6.316,3.026
		c-1.881,1.004-3.546,2.005-5.014,3.005c-1.468,1-2.741,1.999-3.837,2.999c-1.097,1-2.018,2.002-2.783,3.008
		c-0.766,1.006-1.376,2.016-1.852,3.033c-0.476,1.017-0.817,2.041-1.044,3.075c-0.227,1.034-0.34,2.077-0.36,3.132
		c-0.02,1.056,0.053,2.123,0.198,3.207c0.144,1.083,0.36,2.182,0.625,3.299s0.578,2.252,0.918,3.41
		c0.34,1.157,0.705,2.336,1.071,3.54c0.146,0.48,0.285,0.983,0.43,1.472c0.227,0.022,0.457,0.033,0.685,0.052
		c-0.118-0.399-0.231-0.814-0.35-1.208C71.154,128.969,70.794,127.798,70.459,126.648z"/>
	<path d="M73.707,128.111c-0.315-1.116-0.605-2.208-0.849-3.279c-0.244-1.072-0.443-2.124-0.575-3.159
		c-0.132-1.035-0.197-2.053-0.176-3.058c0.021-1.005,0.128-1.995,0.341-2.976c0.213-0.98,0.532-1.95,0.976-2.912
		c0.444-0.962,1.012-1.917,1.725-2.867c0.712-0.95,1.568-1.895,2.587-2.838c1.018-0.943,2.199-1.884,3.562-2.826
		c1.362-0.942,2.906-1.885,4.65-2.831c1.744-0.946,3.689-1.896,5.853-2.852c2.164-0.956,4.549-1.918,7.173-2.89
		c2.624-0.971,4.729-1.68,5.78-2.229c1.051-0.549,1.99-1.176,2.828-1.872c0.838-0.697,1.574-1.464,2.219-2.294
		c0.645-0.831,1.197-1.726,1.668-2.678c0.471-0.952,0.859-1.962,1.175-3.023c0.316-1.061,0.559-2.173,0.739-3.33
		c0.18-1.157,0.297-2.359,0.36-3.6c0.063-1.241,0.073-2.52,0.039-3.831c-0.034-1.311-0.112-2.655-0.224-4.023
		c-0.112-1.369-0.258-2.763-0.428-4.176c-0.17-1.413-0.363-2.845-0.57-4.288c-0.207-1.443-0.427-2.899-0.649-4.358
		c-0.222-1.459-0.447-2.923-0.662-4.383c-0.215-1.46-0.421-2.917-0.606-4.361s-0.347-2.878-0.476-4.29
		c-0.129-1.413-0.223-2.804-0.27-4.167c-0.046-1.362,0.084-2.53-0.019-4.04c-0.046-0.673-0.123-1.363-0.215-2.06
		c-0.084-0.063-0.167-0.128-0.252-0.19c0.044,0.403,0.102,0.812,0.13,1.207c0.106,1.499-0.025,2.684,0.023,4.053
		c0.048,1.368,0.143,2.767,0.273,4.187c0.13,1.42,0.294,2.861,0.48,4.314c0.186,1.453,0.393,2.918,0.609,4.387
		c0.216,1.469,0.442,2.942,0.665,4.41c0.223,1.469,0.444,2.933,0.652,4.386s0.402,2.894,0.572,4.317
		c0.17,1.423,0.317,2.826,0.43,4.204c0.113,1.378,0.191,2.73,0.225,4.05s0.025,2.607-0.038,3.856
		c-0.063,1.249-0.18,2.458-0.36,3.622c-0.18,1.164-0.424,2.283-0.74,3.35c-0.316,1.067-0.705,2.082-1.177,3.039
		c-0.471,0.957-1.025,1.856-1.671,2.69c-0.646,0.834-1.383,1.604-2.223,2.302c-0.839,0.698-1.78,1.326-2.833,1.875
		c-1.053,0.549-3.182,1.263-5.847,2.245c-2.665,0.982-5.086,1.956-7.283,2.923c-2.198,0.967-4.172,1.928-5.942,2.886
		c-1.771,0.958-3.338,1.912-4.72,2.865c-1.383,0.953-2.581,1.906-3.615,2.86c-1.034,0.954-1.902,1.91-2.625,2.871
		c-0.723,0.961-1.299,1.926-1.75,2.899c-0.45,0.973-0.773,1.953-0.989,2.944c-0.216,0.991-0.324,1.992-0.345,3.006
		c-0.021,1.015,0.046,2.042,0.18,3.087c0.134,1.044,0.336,2.105,0.584,3.186c0.248,1.081,0.543,2.181,0.862,3.305
		c0.319,1.124,0.663,2.271,1.01,3.444c0.031,0.105,0.06,0.217,0.091,0.323c0.221,0.01,0.445,0.009,0.667,0.017
		C74.361,130.366,74.022,129.227,73.707,128.111z"/>
	<path d="M76.127,126.452c-0.229-1.034-0.414-2.047-0.537-3.041c-0.123-0.995-0.183-1.971-0.163-2.934
		c0.021-0.962,0.122-1.91,0.323-2.846c0.201-0.936,0.501-1.861,0.918-2.778c0.417-0.917,0.95-1.825,1.618-2.728
		c0.668-0.903,1.47-1.801,2.424-2.697c0.954-0.896,2.06-1.789,3.335-2.683s2.72-1.789,4.352-2.687s3.451-1.8,5.476-2.708
		c2.024-0.908,4.254-1.823,6.708-2.746c2.454-0.924,4.456-1.612,5.499-2.162c1.043-0.55,1.975-1.173,2.806-1.863
		s1.562-1.446,2.201-2.263c0.639-0.817,1.188-1.695,1.655-2.628c0.467-0.933,0.853-1.92,1.166-2.956
		c0.314-1.036,0.555-2.121,0.734-3.249c0.179-1.128,0.295-2.299,0.359-3.506c0.063-1.208,0.074-2.452,0.041-3.728
		c-0.033-1.275-0.109-2.582-0.219-3.913c-0.11-1.331-0.254-2.687-0.421-4.061c-0.167-1.374-0.357-2.767-0.561-4.171
		c-0.203-1.404-0.42-2.82-0.638-4.241c-0.218-1.421-0.439-2.846-0.65-4.269c-0.211-1.423-0.412-2.844-0.592-4.254
		c-0.18-1.41-0.338-2.811-0.462-4.192c-0.124-1.382-0.214-2.745-0.256-4.082c-0.042-1.336,0.086-2.434-0.004-3.987
		c-0.09-1.553-0.289-3.177-0.587-4.869c-0.056-0.316-0.132-0.645-0.194-0.966c-0.051-0.04-0.103-0.081-0.154-0.121
		c0.005,0.026,0.012,0.053,0.016,0.079c0.305,1.676,0.509,3.288,0.602,4.83c0.093,1.542-0.036,2.656,0.007,3.999
		c0.043,1.342,0.134,2.712,0.259,4.101c0.125,1.389,0.285,2.797,0.466,4.215c0.181,1.418,0.383,2.848,0.595,4.279
		c0.212,1.432,0.433,2.866,0.652,4.296c0.219,1.43,0.436,2.855,0.64,4.268c0.204,1.413,0.395,2.815,0.563,4.199
		c0.168,1.383,0.312,2.748,0.422,4.088c0.11,1.34,0.187,2.655,0.22,3.939c0.033,1.284,0.023,2.537-0.041,3.752
		c-0.063,1.215-0.18,2.393-0.359,3.528c-0.179,1.135-0.421,2.226-0.735,3.268c-0.314,1.042-0.7,2.034-1.168,2.972
		c-0.468,0.937-1.017,1.819-1.658,2.639c-0.641,0.82-1.373,1.579-2.206,2.271c-0.833,0.691-1.767,1.315-2.811,1.865
		c-1.045,0.55-3.072,1.243-5.566,2.178c-2.494,0.935-4.761,1.861-6.819,2.781c-2.058,0.92-3.907,1.833-5.566,2.743
		c-1.659,0.91-3.127,1.816-4.423,2.722c-1.296,0.905-2.42,1.81-3.389,2.717s-1.785,1.816-2.463,2.731
		c-0.679,0.914-1.221,1.834-1.644,2.761c-0.423,0.928-0.728,1.863-0.932,2.81c-0.204,0.947-0.307,1.905-0.328,2.877
		c-0.021,0.972,0.041,1.959,0.166,2.963c0.125,1.004,0.314,2.026,0.546,3.07c0.233,1.043,0.509,2.108,0.809,3.197
		c0.209,0.757,0.436,1.542,0.661,2.324c0.218-0.001,0.434-0.013,0.652-0.016c-0.185-0.651-0.376-1.312-0.549-1.945
		C76.628,128.542,76.356,127.486,76.127,126.452z"/>
	<path d="M79.381,128.095c-0.214-0.996-0.387-1.969-0.501-2.923c-0.114-0.954-0.17-1.889-0.15-2.808
		c0.02-0.919,0.116-1.823,0.304-2.715c0.188-0.892,0.469-1.771,0.858-2.641c0.389-0.871,0.888-1.732,1.511-2.588
		c0.623-0.856,1.371-1.706,2.261-2.554c0.889-0.848,1.92-1.693,3.108-2.539c1.188-0.846,2.534-1.692,4.053-2.542
		c1.519-0.85,3.213-1.703,5.097-2.563c1.884-0.86,3.959-1.726,6.241-2.602c2.283-0.876,4.182-1.545,5.216-2.097
		c1.033-0.552,1.957-1.174,2.781-1.858c0.824-0.684,1.548-1.432,2.181-2.237c0.634-0.805,1.177-1.668,1.64-2.582
		c0.463-0.914,0.844-1.881,1.155-2.894c0.31-1.013,0.55-2.072,0.727-3.172c0.177-1.1,0.292-2.241,0.355-3.418
		c0.063-1.176,0.073-2.388,0.04-3.629c-0.033-1.241-0.108-2.512-0.217-3.807c-0.109-1.295-0.251-2.614-0.416-3.951
		c-0.165-1.337-0.353-2.692-0.554-4.059c-0.201-1.367-0.414-2.745-0.629-4.129c-0.215-1.384-0.432-2.773-0.64-4.161
		c-0.207-1.388-0.405-2.774-0.581-4.152c-0.176-1.378-0.331-2.747-0.451-4.1c-0.12-1.353-0.206-2.689-0.244-4.002
		c-0.038-1.312,0.085-2.343,0.01-3.938s-0.253-3.273-0.522-5.027c-0.229-1.491-0.538-3.048-0.893-4.644
		c-0.052-0.042-0.105-0.082-0.157-0.124c0.282,1.289,0.537,2.557,0.731,3.777c0.276,1.739,0.459,3.404,0.538,4.99
		c0.079,1.585-0.046,2.631-0.007,3.949c0.039,1.318,0.126,2.661,0.247,4.02c0.121,1.36,0.277,2.736,0.453,4.121
		c0.177,1.385,0.376,2.78,0.584,4.176c0.208,1.396,0.426,2.794,0.642,4.186c0.216,1.393,0.43,2.78,0.631,4.155
		c0.201,1.375,0.39,2.739,0.555,4.085c0.165,1.346,0.308,2.673,0.417,3.977c0.109,1.303,0.185,2.583,0.217,3.832
		c0.033,1.249,0.022,2.469-0.041,3.652c-0.063,1.184-0.179,2.332-0.356,3.438c-0.178,1.107-0.418,2.172-0.729,3.19
		c-0.311,1.018-0.694,1.989-1.158,2.908c-0.464,0.919-1.008,1.785-1.643,2.592c-0.635,0.808-1.361,1.557-2.186,2.243
		c-0.826,0.686-1.751,1.307-2.787,1.859c-1.036,0.552-2.96,1.225-5.283,2.113c-2.323,0.887-4.435,1.765-6.352,2.636
		c-1.917,0.871-3.641,1.736-5.187,2.597c-1.546,0.861-2.915,1.719-4.124,2.576c-1.209,0.857-2.257,1.714-3.162,2.573
		c-0.905,0.859-1.666,1.721-2.3,2.588c-0.634,0.867-1.14,1.74-1.536,2.621c-0.396,0.882-0.681,1.772-0.872,2.674
		c-0.191,0.902-0.288,1.816-0.308,2.746c-0.02,0.929,0.037,1.874,0.153,2.838c0.116,0.964,0.292,1.946,0.51,2.951
		c0.217,1.005,0.477,2.033,0.758,3.086c0.062,0.233,0.134,0.482,0.198,0.718c0.217-0.012,0.431-0.035,0.647-0.049
		c-0.027-0.099-0.057-0.205-0.083-0.304C79.85,130.11,79.595,129.091,79.381,128.095z"/>
	<path d="M82.173,126.927c-0.106-0.913-0.157-1.806-0.137-2.683c0.019-0.877,0.109-1.737,0.285-2.584
		c0.176-0.847,0.437-1.681,0.799-2.506c0.362-0.825,0.825-1.64,1.404-2.449c0.579-0.809,1.273-1.612,2.098-2.412
		c0.825-0.8,1.78-1.597,2.881-2.394c1.101-0.797,2.347-1.595,3.754-2.397c1.407-0.801,2.975-1.606,4.719-2.418
		c1.744-0.812,3.664-1.63,5.775-2.458c2.112-0.828,3.908-1.479,4.932-2.036c1.023-0.557,1.938-1.179,2.754-1.86
		c0.816-0.681,1.532-1.423,2.159-2.218c0.627-0.795,1.164-1.645,1.622-2.544c0.457-0.899,0.835-1.847,1.141-2.839
		c0.307-0.992,0.543-2.028,0.717-3.103c0.175-1.075,0.288-2.188,0.349-3.336c0.061-1.147,0.07-2.329,0.037-3.538
		c-0.033-1.21-0.109-2.448-0.217-3.709s-0.25-2.546-0.414-3.848c-0.164-1.302-0.351-2.622-0.55-3.953
		c-0.199-1.332-0.411-2.675-0.624-4.024c-0.213-1.349-0.428-2.705-0.632-4.06c-0.205-1.355-0.4-2.71-0.573-4.057
		c-0.173-1.348-0.325-2.688-0.442-4.014s-0.2-2.639-0.236-3.929c-0.035-1.291,0.081-2.261,0.021-3.896
		c-0.06-1.635-0.215-3.363-0.454-5.177c-0.24-1.813-0.565-3.712-0.965-5.687c-0.162-0.801-0.345-1.623-0.531-2.448
		c-0.065-0.054-0.126-0.112-0.191-0.166c0.129,0.57,0.266,1.148,0.383,1.706c0.41,1.957,0.744,3.84,0.991,5.639
		c0.247,1.8,0.407,3.516,0.471,5.142c0.064,1.626-0.055,2.61-0.019,3.905c0.036,1.295,0.119,2.613,0.237,3.946
		c0.118,1.332,0.27,2.679,0.444,4.034c0.174,1.354,0.37,2.716,0.575,4.079c0.205,1.363,0.42,2.726,0.634,4.083
		c0.213,1.357,0.425,2.709,0.625,4.049c0.199,1.34,0.386,2.667,0.55,3.978c0.164,1.31,0.305,2.602,0.414,3.871
		c0.108,1.269,0.184,2.515,0.217,3.732s0.024,2.405-0.038,3.559c-0.062,1.154-0.175,2.274-0.351,3.355
		c-0.175,1.081-0.412,2.122-0.72,3.118c-0.308,0.997-0.686,1.949-1.145,2.851s-0.998,1.755-1.626,2.552
		c-0.629,0.797-1.347,1.54-2.165,2.222c-0.818,0.682-1.734,1.303-2.76,1.859c-1.026,0.556-2.847,1.211-4.999,2.05
		c-2.152,0.839-4.109,1.669-5.886,2.492c-1.777,0.823-3.375,1.639-4.808,2.452c-1.434,0.813-2.704,1.622-3.825,2.431
		c-1.122,0.809-2.095,1.617-2.935,2.429s-1.547,1.625-2.136,2.445c-0.589,0.82-1.06,1.646-1.429,2.482
		c-0.369,0.835-0.634,1.68-0.813,2.538c-0.178,0.858-0.27,1.728-0.289,2.615c-0.02,0.887,0.033,1.79,0.141,2.713
		c0.108,0.923,0.271,1.866,0.474,2.833c0.134,0.638,0.289,1.291,0.451,1.95c0.22-0.023,0.437-0.058,0.656-0.083
		c-0.119-0.5-0.23-0.993-0.331-1.48C82.439,128.774,82.279,127.84,82.173,126.927z"/>
	<path d="M85.37,126.084c0.019-0.834,0.104-1.651,0.268-2.455c0.164-0.803,0.406-1.593,0.742-2.372
		c0.335-0.779,0.764-1.549,1.298-2.311c0.535-0.763,1.176-1.519,1.937-2.272c0.761-0.753,1.642-1.503,2.656-2.252
		c1.014-0.75,2.162-1.5,3.458-2.254c1.295-0.754,2.738-1.511,4.342-2.275c1.604-0.764,3.37-1.535,5.311-2.316
		c1.941-0.781,3.634-1.415,4.647-1.98c1.013-0.565,1.917-1.19,2.723-1.872c0.806-0.682,1.514-1.419,2.133-2.208
		c0.619-0.789,1.15-1.629,1.601-2.515c0.451-0.886,0.823-1.819,1.125-2.793c0.302-0.974,0.533-1.99,0.704-3.042
		c0.171-1.053,0.281-2.142,0.339-3.264c0.059-1.122,0.066-2.275,0.031-3.456c-0.035-1.181-0.112-2.389-0.221-3.62
		c-0.109-1.231-0.251-2.484-0.415-3.754c-0.164-1.27-0.35-2.558-0.549-3.858c-0.198-1.3-0.409-2.611-0.621-3.929
		c-0.212-1.318-0.425-2.643-0.629-3.968c-0.203-1.325-0.397-2.651-0.569-3.972s-0.322-2.636-0.437-3.939
		c-0.116-1.303-0.197-2.595-0.23-3.867c-0.034-1.272,0.074-2.192,0.029-3.862c-0.044-1.67-0.176-3.444-0.386-5.312
		c-0.21-1.868-0.499-3.832-0.857-5.88c-0.301-1.722-0.661-3.517-1.054-5.353c-0.079-0.069-0.158-0.137-0.237-0.205
		c0.349,1.606,0.676,3.184,0.951,4.701c0.368,2.031,0.666,3.98,0.883,5.836c0.217,1.856,0.355,3.619,0.403,5.282
		c0.048,1.662-0.062,2.593-0.028,3.869c0.034,1.276,0.115,2.572,0.231,3.881c0.116,1.308,0.266,2.629,0.438,3.956
		c0.172,1.327,0.366,2.659,0.569,3.991c0.204,1.332,0.417,2.664,0.629,3.989c0.212,1.325,0.423,2.644,0.621,3.951
		c0.199,1.307,0.385,2.602,0.549,3.879c0.164,1.278,0.305,2.538,0.414,3.775c0.109,1.238,0.186,2.453,0.22,3.64
		c0.034,1.187,0.027,2.347-0.033,3.475c-0.059,1.127-0.17,2.222-0.342,3.28c-0.172,1.058-0.405,2.078-0.708,3.056
		c-0.303,0.978-0.676,1.914-1.129,2.803c-0.453,0.889-0.985,1.731-1.606,2.521c-0.621,0.79-1.331,1.528-2.14,2.209
		s-1.716,1.306-2.731,1.868c-1.015,0.562-2.733,1.201-4.715,1.993c-1.982,0.792-3.784,1.574-5.421,2.349
		c-1.637,0.775-3.11,1.544-4.431,2.309c-1.322,0.765-2.493,1.526-3.528,2.287c-1.035,0.761-1.933,1.522-2.709,2.286
		c-0.776,0.764-1.43,1.531-1.975,2.305c-0.545,0.774-0.981,1.554-1.323,2.344c-0.342,0.79-0.589,1.59-0.755,2.404
		c-0.166,0.814-0.252,1.641-0.271,2.485c-0.019,0.844,0.028,1.706,0.126,2.589c0.098,0.874,0.247,1.769,0.431,2.688
		c0.233-0.036,0.462-0.085,0.694-0.124c-0.136-0.734-0.254-1.456-0.331-2.16C85.396,127.771,85.351,126.919,85.37,126.084z"/>
	<path d="M89.009,125.523c0.153-0.761,0.378-1.507,0.688-2.242c0.31-0.735,0.705-1.46,1.197-2.178
		c0.492-0.718,1.081-1.428,1.779-2.135c0.698-0.707,1.506-1.411,2.435-2.114c0.929-0.704,1.98-1.407,3.165-2.115
		c1.185-0.707,2.504-1.418,3.969-2.136c1.466-0.718,3.078-1.443,4.85-2.178c1.772-0.735,3.362-1.356,4.362-1.932
		c1-0.576,1.894-1.209,2.689-1.895c0.796-0.686,1.494-1.423,2.104-2.209c0.61-0.786,1.133-1.62,1.576-2.497
		c0.444-0.877,0.809-1.798,1.104-2.758c0.296-0.96,0.522-1.959,0.688-2.994c0.166-1.034,0.272-2.103,0.326-3.203
		c0.055-1.1,0.059-2.23,0.021-3.386c-0.038-1.156-0.117-2.339-0.228-3.543c-0.111-1.204-0.254-2.43-0.419-3.672
		c-0.165-1.243-0.352-2.502-0.551-3.774s-0.41-2.556-0.622-3.847c-0.212-1.291-0.425-2.589-0.628-3.889
		c-0.203-1.3-0.396-2.601-0.567-3.899c-0.171-1.298-0.321-2.592-0.436-3.876c-0.115-1.284-0.196-2.559-0.229-3.817
		c-0.033-1.258,0.063-2.139,0.034-3.837c-0.029-1.699-0.138-3.512-0.32-5.429c-0.181-1.917-0.434-3.938-0.751-6.052
		c-0.316-2.114-0.696-4.322-1.13-6.611c-0.072-0.378-0.153-0.772-0.228-1.155c-0.1-0.092-0.195-0.19-0.295-0.282
		c0.046,0.231,0.098,0.47,0.143,0.699c0.446,2.271,0.837,4.461,1.163,6.56c0.326,2.099,0.588,4.107,0.776,6.013
		c0.188,1.906,0.303,3.71,0.335,5.403c0.033,1.693-0.066,2.581-0.033,3.842c0.033,1.261,0.114,2.539,0.229,3.828
		c0.115,1.288,0.264,2.587,0.436,3.89c0.171,1.303,0.364,2.61,0.567,3.915c0.203,1.306,0.416,2.61,0.628,3.907
		c0.212,1.297,0.423,2.587,0.621,3.865c0.199,1.278,0.386,2.544,0.55,3.793c0.165,1.249,0.307,2.481,0.418,3.691
		c0.111,1.21,0.189,2.398,0.226,3.56c0.037,1.162,0.032,2.297-0.024,3.402c-0.056,1.104-0.163,2.178-0.33,3.216
		c-0.167,1.038-0.395,2.041-0.692,3.004c-0.297,0.963-0.664,1.886-1.109,2.765c-0.446,0.879-0.97,1.714-1.583,2.5
		c-0.613,0.786-1.313,1.524-2.112,2.208c-0.798,0.684-1.694,1.315-2.698,1.888c-1.003,0.573-2.617,1.197-4.43,1.943
		s-3.461,1.481-4.96,2.21c-1.498,0.729-2.847,1.45-4.058,2.168c-1.211,0.718-2.285,1.433-3.234,2.147
		c-0.949,0.715-1.774,1.429-2.487,2.147c-0.713,0.718-1.314,1.439-1.816,2.167c-0.502,0.728-0.904,1.463-1.22,2.209
		c-0.316,0.746-0.545,1.502-0.7,2.273c-0.155,0.771-0.237,1.556-0.257,2.359s0.021,1.625,0.109,2.469
		c0.016,0.153,0.041,0.31,0.06,0.465c0.248-0.053,0.492-0.114,0.739-0.171c-0.079-0.803-0.117-1.586-0.098-2.35
		C88.775,127.059,88.856,126.283,89.009,125.523z"/>
	<path d="M93.098,125.187c0.286-0.693,0.649-1.376,1.1-2.05c0.451-0.675,0.989-1.342,1.626-2.005
		c0.637-0.663,1.373-1.323,2.218-1.982c0.845-0.659,1.801-1.319,2.876-1.981c1.076-0.663,2.273-1.329,3.601-2.003
		c1.329-0.673,2.79-1.354,4.395-2.045c1.605-0.691,3.091-1.301,4.078-1.894c0.987-0.592,1.867-1.237,2.651-1.932
		c0.784-0.694,1.471-1.437,2.071-2.225c0.6-0.788,1.113-1.62,1.548-2.493c0.435-0.873,0.792-1.787,1.08-2.738
		c0.288-0.951,0.507-1.938,0.667-2.959c0.16-1.021,0.26-2.074,0.309-3.156c0.05-1.082,0.049-2.194,0.007-3.33
		c-0.042-1.136-0.125-2.298-0.239-3.48c-0.114-1.182-0.261-2.385-0.428-3.605c-0.168-1.22-0.357-2.456-0.558-3.705
		c-0.201-1.249-0.414-2.509-0.627-3.778s-0.428-2.545-0.632-3.824c-0.204-1.279-0.398-2.561-0.57-3.841
		c-0.172-1.28-0.322-2.558-0.438-3.828c-0.116-1.27-0.198-2.533-0.232-3.782c-0.034-1.249,0.05-2.106,0.034-3.825
		c-0.015-1.719-0.103-3.563-0.256-5.52c-0.153-1.957-0.372-4.027-0.647-6.199c-0.276-2.172-0.609-4.446-0.992-6.808
		c-0.144-0.891-0.302-1.806-0.46-2.722c-0.116-0.115-0.237-0.223-0.353-0.337c0.143,0.805,0.289,1.615,0.421,2.401
		c0.394,2.346,0.739,4.605,1.024,6.764c0.285,2.159,0.512,4.219,0.672,6.167c0.16,1.948,0.253,3.786,0.271,5.501
		c0.018,1.715-0.068,2.576-0.035,3.827c0.034,1.251,0.115,2.516,0.231,3.789c0.116,1.273,0.266,2.554,0.437,3.838
		c0.172,1.284,0.365,2.57,0.569,3.854c0.204,1.284,0.418,2.565,0.631,3.838s0.425,2.539,0.625,3.793
		c0.2,1.254,0.389,2.495,0.556,3.72c0.167,1.225,0.312,2.433,0.426,3.619c0.114,1.187,0.196,2.353,0.236,3.493
		c0.041,1.141,0.04,2.256-0.011,3.342c-0.051,1.086-0.153,2.143-0.314,3.166c-0.161,1.023-0.382,2.013-0.672,2.966
		c-0.29,0.953-0.649,1.868-1.086,2.741c-0.437,0.874-0.952,1.706-1.555,2.493c-0.603,0.787-1.293,1.528-2.08,2.22
		c-0.787,0.692-1.671,1.334-2.661,1.921c-0.99,0.588-2.501,1.2-4.145,1.902c-1.645,0.702-3.141,1.392-4.503,2.076
		c-1.361,0.684-2.587,1.36-3.688,2.034c-1.102,0.673-2.079,1.343-2.944,2.012c-0.865,0.67-1.618,1.339-2.269,2.013
		c-0.651,0.673-1.202,1.351-1.662,2.035c-0.46,0.685-0.831,1.377-1.122,2.08c-0.292,0.703-0.505,1.418-0.651,2.147
		c-0.146,0.73-0.224,1.474-0.247,2.239c-0.004,0.142,0.003,0.288,0.002,0.431c0.281-0.078,0.562-0.156,0.842-0.239
		c0.03-0.687,0.101-1.36,0.232-2.018C92.602,126.586,92.812,125.881,93.098,125.187z"/>
	<path d="M97.619,125.012c0.412-0.634,0.902-1.26,1.481-1.882c0.578-0.622,1.245-1.24,2.009-1.857
		c0.764-0.618,1.626-1.235,2.595-1.855c0.969-0.621,2.046-1.245,3.24-1.877c1.194-0.632,2.506-1.27,3.946-1.92
		c1.44-0.65,2.823-1.253,3.795-1.867c0.972-0.614,1.838-1.277,2.609-1.985c0.771-0.708,1.446-1.461,2.034-2.256
		c0.588-0.795,1.09-1.631,1.515-2.506c0.425-0.874,0.772-1.787,1.051-2.734c0.279-0.947,0.49-1.928,0.642-2.941
		c0.152-1.012,0.245-2.056,0.288-3.126c0.043-1.071,0.036-2.169-0.011-3.29c-0.047-1.122-0.136-2.267-0.255-3.433
		c-0.119-1.166-0.27-2.352-0.441-3.554c-0.172-1.202-0.365-2.421-0.569-3.652c-0.204-1.231-0.42-2.474-0.637-3.726
		c-0.216-1.252-0.434-2.512-0.641-3.776c-0.207-1.264-0.404-2.532-0.578-3.8c-0.175-1.268-0.327-2.535-0.446-3.797
		c-0.118-1.262-0.202-2.518-0.239-3.764c-0.037-1.246,0.033-2.097,0.03-3.826c-0.003-1.729-0.071-3.593-0.198-5.58
		c-0.127-1.987-0.312-4.096-0.549-6.315c-0.237-2.219-0.526-4.548-0.858-6.973c-0.159-1.158-0.329-2.34-0.507-3.54
		c-0.135-0.145-0.274-0.286-0.41-0.43c0.178,1.154,0.349,2.293,0.508,3.408c0.344,2.411,0.643,4.728,0.889,6.937
		c0.246,2.209,0.439,4.31,0.572,6.291c0.133,1.981,0.206,3.841,0.211,5.569c0.006,1.728-0.067,2.578-0.032,3.824
		c0.036,1.246,0.119,2.503,0.237,3.767c0.118,1.263,0.27,2.532,0.443,3.802c0.174,1.27,0.37,2.541,0.576,3.808
		c0.206,1.267,0.423,2.531,0.638,3.786c0.216,1.255,0.43,2.502,0.634,3.737c0.203,1.235,0.396,2.457,0.566,3.663
		c0.171,1.206,0.32,2.395,0.438,3.564c0.118,1.169,0.205,2.318,0.251,3.443s0.051,2.225,0.006,3.298
		c-0.045,1.073-0.14,2.118-0.294,3.132c-0.154,1.014-0.367,1.996-0.649,2.943c-0.282,0.947-0.631,1.86-1.059,2.733
		c-0.427,0.874-0.932,1.709-1.523,2.501c-0.591,0.793-1.269,1.543-2.043,2.247c-0.774,0.704-1.644,1.362-2.62,1.97
		c-0.976,0.608-2.383,1.213-3.862,1.872c-1.479,0.659-2.826,1.308-4.052,1.949c-1.226,0.641-2.331,1.275-3.326,1.906
		c-0.994,0.63-1.878,1.257-2.661,1.885c-0.783,0.627-1.466,1.255-2.058,1.886c-0.592,0.631-1.094,1.267-1.515,1.91
		c-0.421,0.643-0.761,1.295-1.031,1.958c-0.241,0.594-0.419,1.199-0.554,1.815c0.352-0.126,0.699-0.262,1.047-0.396
		c0.101-0.342,0.218-0.681,0.353-1.017C96.873,126.288,97.207,125.646,97.619,125.012z"/>
	<path d="M124.487,100.323c0.035-1.065,0.02-2.156-0.034-3.269c-0.055-1.114-0.15-2.25-0.275-3.405
		c-0.126-1.156-0.282-2.331-0.46-3.522s-0.376-2.398-0.586-3.618c-0.21-1.22-0.43-2.452-0.651-3.694
		c-0.221-1.241-0.443-2.492-0.654-3.747c-0.211-1.256-0.412-2.516-0.591-3.778s-0.336-2.525-0.458-3.785
		c-0.123-1.26-0.211-2.517-0.252-3.766c-0.041-1.249,0.013-2.115,0.02-3.842c0.007-1.727-0.044-3.599-0.147-5.604
		c-0.103-2.004-0.258-4.141-0.459-6.395c-0.201-2.254-0.447-4.626-0.733-7.101c-0.132-1.146-0.275-2.32-0.423-3.509
		c-0.15-0.18-0.307-0.353-0.46-0.531c0.159,1.217,0.31,2.417,0.451,3.59c0.296,2.464,0.553,4.827,0.762,7.074
		c0.209,2.247,0.371,4.378,0.479,6.379c0.108,2.001,0.163,3.873,0.158,5.602c-0.005,1.729-0.063,2.589-0.023,3.837
		c0.04,1.248,0.127,2.504,0.248,3.764c0.121,1.26,0.277,2.523,0.455,3.786c0.178,1.263,0.377,2.525,0.587,3.782
		c0.21,1.257,0.431,2.509,0.65,3.752c0.22,1.243,0.439,2.478,0.647,3.7c0.208,1.222,0.405,2.431,0.581,3.624
		c0.176,1.193,0.331,2.37,0.455,3.527c0.124,1.157,0.217,2.295,0.27,3.41c0.053,1.115,0.065,2.207,0.028,3.273
		c-0.037,1.066-0.123,2.105-0.269,3.115c-0.138,0.958-0.333,1.888-0.584,2.79c0.286-0.456,0.565-0.917,0.838-1.382
		c0.057-0.313,0.118-0.623,0.163-0.942C124.368,102.428,124.452,101.388,124.487,100.323z"/>
	<path d="M112.516,117.366c-1.316,0.62-2.516,1.229-3.609,1.831c-1.094,0.602-2.081,1.196-2.971,1.787
		c-0.89,0.591-1.682,1.178-2.386,1.766c-0.704,0.588-1.319,1.176-1.854,1.768c-0.497,0.55-0.918,1.104-1.285,1.665
		c0.629-0.302,1.245-0.625,1.86-0.95c0.087-0.103,0.164-0.207,0.255-0.309c0.522-0.584,1.122-1.163,1.807-1.741
		c0.685-0.579,1.457-1.157,2.322-1.739c0.865-0.582,1.825-1.167,2.888-1.76c0.974-0.543,2.046-1.094,3.2-1.653
		c0.611-0.533,1.209-1.08,1.796-1.639C113.899,116.716,113.211,117.038,112.516,117.366z"/>
	<path d="M125.977,95.341c-0.134-1.152-0.298-2.324-0.483-3.511c-0.185-1.187-0.391-2.39-0.607-3.606
		c-0.216-1.216-0.444-2.444-0.671-3.682c-0.228-1.238-0.456-2.486-0.673-3.741c-0.217-1.254-0.424-2.515-0.609-3.779
		c-0.185-1.264-0.348-2.53-0.476-3.796c-0.129-1.266-0.223-2.531-0.27-3.791c-0.047-1.26-0.009-2.164,0.005-3.875
		c0.014-1.711-0.023-3.578-0.105-5.586c-0.082-2.008-0.209-4.157-0.377-6.431c-0.167-2.275-0.375-4.675-0.616-7.186
		c-0.077-0.801-0.163-1.631-0.247-2.453c-0.167-0.225-0.338-0.446-0.508-0.669c0.101,0.942,0.202,1.886,0.294,2.8
		c0.252,2.503,0.468,4.898,0.643,7.17c0.175,2.271,0.309,4.418,0.395,6.427c0.087,2.008,0.126,3.878,0.114,5.594
		c-0.013,1.716-0.054,2.609-0.009,3.866s0.138,2.519,0.265,3.783c0.127,1.264,0.288,2.529,0.471,3.791
		c0.183,1.263,0.388,2.523,0.604,3.777c0.216,1.254,0.442,2.502,0.668,3.74c0.226,1.238,0.451,2.467,0.666,3.683
		c0.215,1.216,0.419,2.419,0.602,3.607c0.183,1.187,0.345,2.359,0.477,3.511c0.132,1.153,0.233,2.286,0.294,3.398
		c0.049,0.894,0.065,1.77,0.058,2.634c0.151-0.304,0.303-0.607,0.449-0.914c-0.012-0.451-0.027-0.904-0.053-1.363
		C126.214,97.627,126.111,96.493,125.977,95.341z"/>
	<path d="M126.844,89.353c-0.225-1.22-0.461-2.452-0.697-3.695c-0.236-1.243-0.472-2.497-0.698-3.758s-0.44-2.53-0.633-3.803
		c-0.193-1.273-0.364-2.551-0.5-3.831c-0.137-1.28-0.239-2.561-0.294-3.84c-0.055-1.279-0.035-2.248-0.017-3.928
		s-0.009-3.525-0.073-5.52c-0.065-1.995-0.168-4.141-0.306-6.42c-0.138-2.279-0.309-4.692-0.51-7.222
		c-0.003-0.04-0.007-0.082-0.01-0.122c-0.183-0.289-0.366-0.579-0.554-0.865c0.023,0.267,0.049,0.546,0.071,0.81
		c0.21,2.526,0.39,4.938,0.534,7.218c0.144,2.28,0.253,4.428,0.322,6.427c0.068,2,0.096,3.852,0.08,5.54
		c-0.017,1.689-0.042,2.64,0.012,3.913c0.053,1.274,0.153,2.55,0.288,3.826c0.134,1.276,0.303,2.55,0.494,3.82
		c0.191,1.27,0.404,2.536,0.627,3.795c0.223,1.259,0.457,2.51,0.691,3.751c0.234,1.241,0.467,2.472,0.69,3.69
		c0.223,1.218,0.435,2.423,0.627,3.612c0.192,1.189,0.363,2.363,0.505,3.518c0.039,0.316,0.069,0.627,0.103,0.94
		c0.125-0.308,0.247-0.618,0.366-0.93c-0.139-1.09-0.299-2.192-0.481-3.312C127.284,91.779,127.069,90.573,126.844,89.353z"/>
	<path d="M128.306,86.09c-0.247-1.257-0.493-2.524-0.729-3.801c-0.236-1.277-0.461-2.562-0.664-3.854
		c-0.203-1.292-0.384-2.591-0.53-3.893c-0.147-1.302-0.259-2.609-0.325-3.916c-0.066-1.308-0.063-2.37-0.047-4.001
		c0.016-1.63-0.003-3.436-0.055-5.401c-0.052-1.965-0.136-4.089-0.248-6.355c-0.055-1.108-0.117-2.251-0.185-3.424
		c-0.197-0.383-0.387-0.771-0.593-1.15c0.1,1.576,0.189,3.104,0.265,4.568c0.118,2.271,0.206,4.402,0.26,6.375
		s0.075,3.791,0.058,5.434c-0.017,1.644-0.024,2.681,0.039,3.981c0.063,1.3,0.173,2.599,0.317,3.896
		c0.144,1.296,0.322,2.589,0.523,3.876c0.2,1.287,0.423,2.568,0.656,3.84c0.233,1.272,0.477,2.536,0.721,3.788
		c0.244,1.253,0.488,2.494,0.721,3.722c0.212,1.113,0.41,2.211,0.597,3.3c0.119-0.378,0.222-0.762,0.332-1.144
		c-0.128-0.701-0.249-1.397-0.385-2.108C128.799,88.592,128.553,87.346,128.306,86.09z"/>
	<path d="M129.958,81.889c-0.248-1.302-0.486-2.614-0.701-3.935c-0.215-1.32-0.409-2.649-0.568-3.985
		c-0.159-1.335-0.284-2.677-0.362-4.022c-0.078-1.346-0.094-2.535-0.084-4.096c0.011-1.561-0.007-3.308-0.051-5.223
		c-0.025-1.082-0.058-2.224-0.099-3.41c-0.2-0.532-0.408-1.059-0.624-1.583c0.075,1.846,0.133,3.592,0.171,5.215
		c0.045,1.929,0.063,3.691,0.05,5.271c-0.013,1.58-0.001,2.736,0.074,4.071c0.075,1.336,0.197,2.668,0.353,3.994
		c0.156,1.326,0.346,2.647,0.558,3.96c0.212,1.313,0.446,2.618,0.692,3.913c0.245,1.295,0.501,2.58,0.757,3.854
		c0.121,0.602,0.238,1.192,0.358,1.788c0.113-0.549,0.202-1.106,0.298-1.661c-0.019-0.093-0.037-0.184-0.056-0.278
		C130.466,84.483,130.206,83.191,129.958,81.889z"/>
	<path d="M131.558,74.582c-0.105-0.701-0.204-1.405-0.293-2.111c-0.174-1.379-0.314-2.766-0.408-4.16
		c-0.023-0.35-0.033-0.697-0.05-1.045c-0.197-1.152-0.429-2.291-0.696-3.417c0.001,0.255,0.002,0.513,0.001,0.758
		c-0.003,1.495,0.028,2.803,0.117,4.185c0.09,1.382,0.226,2.757,0.396,4.125c0.17,1.367,0.375,2.726,0.601,4.075
		c0.1,0.599,0.218,1.188,0.326,1.782c0.029-0.729,0.055-1.457,0.055-2.193C131.608,75.91,131.581,75.247,131.558,74.582z"/>
</g>
</svg>
