<?xml version="1.0" encoding="iso-8859-1"?>
<!-- Generator: Adobe Illustrator 27.5.0, SVG Export Plug-In . SVG Version: 6.00 Build 0)  -->
<svg version="1.1" id="shapes" xmlns="http://www.w3.org/2000/svg" xmlns:xlink="http://www.w3.org/1999/xlink" x="0px" y="0px"
	 width="150px" height="150px" viewBox="0 0 150 150" enable-background="new 0 0 150 150" xml:space="preserve">
<g>
	<polygon points="30.962,91.102 39.71,88.259 39.71,82.733 30.962,84.119 	"/>
	<polygon points="30.962,83.511 39.71,82.125 39.71,76.885 30.962,76.885 	"/>
	<polygon points="62.096,30.932 64.939,39.68 70.465,39.68 69.079,30.932 	"/>
	<polygon points="30.962,76.284 39.71,76.284 39.71,71.043 30.962,69.658 	"/>
	<polygon points="30.962,99.508 39.71,95.051 39.71,88.891 30.962,91.733 	"/>
	<polygon points="30.962,121.811 39.71,113.064 39.71,103.768 30.962,110.123 	"/>
	<polygon points="30.962,109.381 39.71,103.026 39.71,95.725 30.962,100.182 	"/>
	<polygon points="30.962,69.05 39.71,70.435 39.71,64.909 30.962,62.067 	"/>
	<polygon points="31.387,30.932 40.134,39.68 49.43,39.68 43.075,30.932 	"/>
	<polygon points="43.817,30.932 50.172,39.68 57.473,39.68 53.016,30.932 	"/>
	<polygon points="53.69,30.932 58.147,39.68 64.307,39.68 61.465,30.932 	"/>
	<polygon points="57.473,113.489 50.172,113.489 43.817,122.236 53.016,122.236 	"/>
	<polygon points="30.962,61.435 39.71,64.277 39.71,58.118 30.962,53.66 	"/>
	<polygon points="30.962,52.986 39.71,57.443 39.71,50.143 30.962,43.787 	"/>
	<polygon points="30.962,43.045 39.71,49.4 39.71,40.104 30.962,31.357 	"/>
	<polygon points="122.266,69.658 113.518,71.043 113.518,76.284 122.266,76.284 	"/>
	<polygon points="122.266,100.182 113.518,95.725 113.518,103.026 122.266,109.381 	"/>
	<polygon points="122.266,110.123 113.518,103.768 113.518,113.064 122.266,121.811 	"/>
	<polygon points="121.841,122.236 113.094,113.489 103.798,113.489 110.153,122.236 	"/>
	<polygon points="122.266,76.885 113.518,76.885 113.518,82.125 122.266,83.511 	"/>
	<polygon points="109.411,122.236 103.055,113.489 95.755,113.489 100.212,122.236 	"/>
	<polygon points="122.266,91.733 113.518,88.891 113.518,95.051 122.266,99.508 	"/>
	<polygon points="122.266,84.119 113.518,82.733 113.518,88.259 122.266,91.102 	"/>
	<polygon points="70.465,113.489 64.939,113.489 62.096,122.236 69.079,122.236 	"/>
	<polygon points="69.687,122.236 76.314,122.236 76.314,113.489 71.073,113.489 	"/>
	<polygon points="64.307,113.489 58.147,113.489 53.69,122.236 61.465,122.236 	"/>
	<polygon points="91.131,122.236 88.289,113.489 82.763,113.489 84.148,122.236 	"/>
	<polygon points="99.538,122.236 95.081,113.489 88.921,113.489 91.763,122.236 	"/>
	<polygon points="82.155,113.489 76.914,113.489 76.914,122.236 83.541,122.236 	"/>
	<polygon points="49.43,113.489 40.134,113.489 31.387,122.236 43.075,122.236 	"/>
	<polygon points="71.073,39.68 76.314,39.68 76.314,30.932 69.687,30.932 	"/>
	<polygon points="88.921,39.68 95.081,39.68 99.538,30.932 91.763,30.932 	"/>
	<polygon points="95.755,39.68 103.055,39.68 109.411,30.932 100.212,30.932 	"/>
	<polygon points="121.841,30.932 110.153,30.932 103.798,39.68 113.093,39.68 	"/>
	<polygon points="83.541,30.932 76.914,30.932 76.914,39.68 82.155,39.68 	"/>
	<polygon points="122.266,31.357 113.518,40.104 113.518,49.4 122.266,43.045 	"/>
	<polygon points="82.763,39.68 88.289,39.68 91.131,30.932 84.148,30.932 	"/>
	<polygon points="91.958,122.837 94.8,131.584 104.301,131.584 99.844,122.837 	"/>
	<polygon points="84.243,122.837 85.629,131.584 94.169,131.584 91.327,122.837 	"/>
	<polygon points="76.914,122.837 76.914,131.584 85.021,131.584 83.635,122.837 	"/>
	<polygon points="100.518,122.837 104.975,131.584 116.203,131.584 109.847,122.837 	"/>
	<polygon points="122.866,122.412 131.614,131.159 131.614,116.915 122.866,110.56 	"/>
	<polygon points="30.361,84.214 21.614,85.599 21.614,94.139 30.361,91.297 	"/>
	<polygon points="68.207,131.584 76.314,131.584 76.314,122.837 69.592,122.837 	"/>
	<polygon points="61.901,122.837 59.059,131.584 67.599,131.584 68.984,122.837 	"/>
	<polygon points="30.361,110.56 21.614,116.915 21.614,131.159 30.361,122.412 	"/>
	<polygon points="30.361,100.488 21.614,104.945 21.614,116.173 30.361,109.817 	"/>
	<polygon points="30.361,91.928 21.614,94.77 21.614,104.271 30.361,99.814 	"/>
	<polygon points="122.866,109.817 131.614,116.173 131.614,104.945 122.866,100.488 	"/>
	<polygon points="53.384,122.837 48.927,131.584 58.428,131.584 61.27,122.837 	"/>
	<polygon points="43.381,122.837 37.025,131.584 48.253,131.584 52.71,122.837 	"/>
	<polygon points="30.786,122.837 22.039,131.584 36.283,131.584 42.638,122.837 	"/>
	<polygon points="110.589,122.837 116.945,131.584 131.189,131.584 122.442,122.837 	"/>
	<polygon points="122.866,99.814 131.614,104.271 131.614,94.77 122.866,91.928 	"/>
	<polygon points="122.866,83.606 131.614,84.991 131.614,76.885 122.866,76.885 	"/>
	<polygon points="122.866,91.297 131.614,94.139 131.614,85.599 122.866,84.214 	"/>
	<polygon points="122.866,76.284 131.614,76.284 131.614,68.177 122.866,69.563 	"/>
	<polygon points="122.866,68.954 131.614,67.569 131.614,59.029 122.866,61.872 	"/>
	<polygon points="122.866,61.24 131.614,58.398 131.614,48.897 122.866,53.354 	"/>
	<polygon points="91.326,30.332 94.169,21.584 85.629,21.584 84.244,30.332 	"/>
	<polygon points="122.866,30.756 122.866,42.609 131.614,36.253 131.614,22.009 	"/>
	<polygon points="122.866,52.68 131.614,48.223 131.614,36.996 122.866,43.351 	"/>
	<polygon points="122.441,30.332 131.189,21.584 116.945,21.584 110.589,30.332 	"/>
	<polygon points="122.266,53.66 113.518,58.118 113.518,64.277 122.266,61.435 	"/>
	<polygon points="122.266,43.787 113.518,50.143 113.518,57.443 122.266,52.986 	"/>
	<polygon points="30.361,76.885 21.614,76.885 21.614,84.991 30.361,83.606 	"/>
	<polygon points="52.71,30.332 48.253,21.584 37.025,21.584 43.381,30.332 	"/>
	<polygon points="42.639,30.332 36.283,21.584 22.039,21.584 30.786,30.332 	"/>
	<polygon points="30.361,43.351 21.614,36.996 21.614,48.223 30.361,52.68 	"/>
	<polygon points="30.361,30.756 21.614,22.009 21.614,36.253 30.361,42.609 	"/>
	<polygon points="30.361,69.563 21.614,68.177 21.614,76.284 30.361,76.284 	"/>
	<polygon points="30.361,53.354 21.614,48.897 21.614,58.398 30.361,61.24 	"/>
	<polygon points="30.361,61.872 21.614,59.029 21.614,67.569 30.361,68.954 	"/>
	<polygon points="109.847,30.332 116.203,21.584 104.975,21.584 100.518,30.332 	"/>
	<polygon points="85.021,21.584 76.914,21.584 76.914,30.332 83.635,30.332 	"/>
	<polygon points="61.27,30.332 58.427,21.584 48.927,21.584 53.384,30.332 	"/>
	<polygon points="99.844,30.332 104.301,21.584 94.8,21.584 91.958,30.332 	"/>
	<polygon points="122.266,62.067 113.518,64.909 113.518,70.435 122.266,69.05 	"/>
	<polygon points="69.592,30.332 76.314,30.332 76.314,21.584 68.207,21.584 	"/>
	<polygon points="68.984,30.332 67.599,21.584 59.059,21.584 61.901,30.332 	"/>
	<polygon points="40.31,102.589 49.057,96.234 49.057,90.962 40.31,95.419 	"/>
	<polygon points="89.778,58.977 83.422,67.724 85.049,67.724 93.797,58.977 	"/>
	<polygon points="81.465,67.724 82.68,67.724 89.035,58.977 85.922,58.977 	"/>
	<polygon points="94.221,59.401 85.474,68.149 85.474,69.776 94.221,63.42 	"/>
	<polygon points="94.221,71.179 85.474,74.021 85.474,74.877 94.221,73.491 	"/>
	<polygon points="86.228,58.376 89.472,58.376 95.827,49.629 90.685,49.629 	"/>
	<polygon points="94.221,67.95 85.474,72.407 85.474,73.39 94.221,70.547 	"/>
	<polygon points="94.221,74.099 85.474,75.485 85.474,76.284 94.221,76.284 	"/>
	<polygon points="94.221,64.163 85.474,70.518 85.474,71.733 94.221,67.276 	"/>
	<polygon points="103.145,49.629 96.569,49.629 90.214,58.376 94.397,58.376 	"/>
	<polygon points="103.57,50.053 94.822,58.801 94.822,62.984 103.57,56.629 	"/>
	<polygon points="103.57,57.371 94.822,63.726 94.822,66.97 103.57,62.513 	"/>
	<polygon points="74.034,58.376 76.314,58.376 76.314,49.629 72.649,49.629 	"/>
	<polygon points="103.57,63.187 94.822,67.644 94.822,70.352 103.57,67.51 	"/>
	<polygon points="80.579,49.629 76.914,49.629 76.914,58.376 79.194,58.376 	"/>
	<polygon points="82.846,58.376 85.555,58.376 90.011,49.629 85.688,49.629 	"/>
	<polygon points="79.802,58.376 82.214,58.376 85.056,49.629 81.187,49.629 	"/>
	<polygon points="77.713,85.444 76.914,85.444 76.914,94.192 79.099,94.192 	"/>
	<polygon points="79.707,94.192 82.019,94.192 79.177,85.444 78.321,85.444 	"/>
	<polygon points="74.129,94.192 76.314,94.192 76.314,85.444 75.515,85.444 	"/>
	<polygon points="73.419,85.444 72.436,85.444 67.979,94.192 70.577,94.192 	"/>
	<polygon points="71.763,85.444 70.548,85.444 64.192,94.192 67.305,94.192 	"/>
	<polygon points="82.651,94.192 85.249,94.192 80.791,85.444 79.809,85.444 	"/>
	<polygon points="74.907,85.444 74.051,85.444 71.209,94.192 73.521,94.192 	"/>
	<polygon points="94.221,76.885 85.474,76.885 85.474,77.683 94.221,79.069 	"/>
	<polygon points="94.221,82.621 85.474,79.779 85.474,80.762 94.221,85.219 	"/>
	<polygon points="94.221,85.893 85.474,81.436 85.474,82.65 94.221,89.006 	"/>
	<polygon points="94.221,79.677 85.474,78.291 85.474,79.147 94.221,81.989 	"/>
	<polygon points="93.797,94.192 85.049,85.444 83.422,85.444 89.778,94.192 	"/>
	<polygon points="94.221,89.748 85.474,83.393 85.474,85.02 94.221,93.767 	"/>
	<polygon points="89.035,94.192 82.68,85.444 81.465,85.444 85.922,94.192 	"/>
	<polygon points="49.658,80.549 58.406,79.164 58.406,76.885 49.658,76.885 	"/>
	<polygon points="49.658,89.982 58.406,85.525 58.406,82.816 49.658,85.658 	"/>
	<polygon points="49.658,95.797 58.406,89.442 58.406,86.199 49.658,90.656 	"/>
	<polygon points="63.216,49.629 67.673,58.376 70.382,58.376 67.54,49.629 	"/>
	<polygon points="49.658,103.115 58.406,94.368 58.406,90.184 49.658,96.54 	"/>
	<polygon points="70.382,94.792 67.673,94.792 63.216,103.54 67.54,103.54 	"/>
	<polygon points="63.014,94.792 58.83,94.792 50.083,103.54 56.658,103.54 	"/>
	<polygon points="69.806,85.444 68.178,85.444 59.431,94.192 63.45,94.192 	"/>
	<polygon points="66.999,94.792 63.756,94.792 57.401,103.54 62.542,103.54 	"/>
	<polygon points="50.083,49.629 58.831,58.376 63.014,58.376 56.658,49.629 	"/>
	<polygon points="49.658,56.629 58.406,62.984 58.406,58.801 49.658,50.053 	"/>
	<polygon points="49.658,76.284 58.406,76.284 58.406,74.004 49.658,72.619 	"/>
	<polygon points="57.401,49.629 63.756,58.376 66.999,58.376 62.542,49.629 	"/>
	<polygon points="49.658,72.011 58.406,73.396 58.406,70.984 49.658,68.142 	"/>
	<polygon points="49.658,67.51 58.406,70.352 58.406,67.644 49.658,63.187 	"/>
	<polygon points="49.658,62.513 58.406,66.97 58.406,63.726 49.658,57.371 	"/>
	<polygon points="103.57,96.54 94.822,90.184 94.822,94.368 103.57,103.115 	"/>
	<polygon points="73.426,94.792 71.013,94.792 68.171,103.54 72.041,103.54 	"/>
	<polygon points="103.57,85.658 94.822,82.816 94.822,85.525 103.57,89.982 	"/>
	<polygon points="103.57,68.142 94.822,70.984 94.822,73.396 103.57,72.011 	"/>
	<polygon points="103.57,72.619 94.822,74.004 94.822,76.284 103.57,76.284 	"/>
	<polygon points="103.145,103.54 94.397,94.792 90.214,94.792 96.57,103.54 	"/>
	<polygon points="103.57,76.885 94.822,76.885 94.822,79.164 103.57,80.549 	"/>
	<polygon points="103.57,81.157 94.822,79.772 94.822,82.185 103.57,85.027 	"/>
	<polygon points="103.57,90.656 94.822,86.199 94.822,89.442 103.57,95.797 	"/>
	<polygon points="79.194,94.792 76.914,94.792 76.914,103.54 80.579,103.54 	"/>
	<polygon points="72.649,103.54 76.314,103.54 76.314,94.792 74.034,94.792 	"/>
	<polygon points="68.171,49.629 71.013,58.376 73.426,58.376 72.041,49.629 	"/>
	<polygon points="85.056,103.54 82.214,94.792 79.802,94.792 81.187,103.54 	"/>
	<polygon points="95.827,103.54 89.472,94.792 86.228,94.792 90.685,103.54 	"/>
	<polygon points="90.011,103.54 85.555,94.792 82.846,94.792 85.688,103.54 	"/>
	<polygon points="112.918,76.885 104.17,76.885 104.17,80.645 112.918,82.03 	"/>
	<polygon points="79.809,67.724 80.791,67.724 85.249,58.977 82.651,58.977 	"/>
	<polygon points="71.168,112.888 76.314,112.888 76.314,104.141 72.553,104.141 	"/>
	<polygon points="78.321,67.724 79.177,67.724 82.019,58.977 79.707,58.977 	"/>
	<polygon points="59.006,93.767 67.754,85.02 67.754,83.393 59.006,89.748 	"/>
	<polygon points="94.775,112.888 90.318,104.141 85.883,104.141 88.726,112.888 	"/>
	<polygon points="102.619,112.888 96.264,104.141 90.992,104.141 95.449,112.888 	"/>
	<polygon points="80.674,104.141 76.914,104.141 76.914,112.888 82.06,112.888 	"/>
	<polygon points="88.094,112.888 85.252,104.141 81.282,104.141 82.668,112.888 	"/>
	<polygon points="40.31,94.745 49.057,90.288 49.057,85.854 40.31,88.696 	"/>
	<polygon points="40.31,88.064 49.057,85.222 49.057,81.253 40.31,82.638 	"/>
	<polygon points="67.345,104.141 62.91,104.141 58.453,112.888 64.502,112.888 	"/>
	<polygon points="62.236,104.141 56.964,104.141 50.609,112.888 57.779,112.888 	"/>
	<polygon points="56.222,104.141 49.482,104.141 40.735,112.888 49.866,112.888 	"/>
	<polygon points="40.31,112.463 49.057,103.716 49.057,96.976 40.31,103.332 	"/>
	<polygon points="112.918,82.638 104.17,81.253 104.17,85.222 112.918,88.064 	"/>
	<polygon points="112.918,50.579 104.17,56.935 104.17,62.206 112.918,57.749 	"/>
	<polygon points="112.918,58.424 104.17,62.881 104.17,67.315 112.918,64.473 	"/>
	<polygon points="112.918,40.705 104.17,49.453 104.17,56.192 112.918,49.837 	"/>
	<polygon points="112.918,65.104 104.17,67.946 104.17,71.916 112.918,70.53 	"/>
	<polygon points="112.493,112.888 103.745,104.141 97.006,104.141 103.361,112.888 	"/>
	<polygon points="112.918,71.138 104.17,72.524 104.17,76.284 112.918,76.284 	"/>
	<polygon points="112.918,95.419 104.17,90.962 104.17,96.234 112.918,102.589 	"/>
	<polygon points="112.918,103.332 104.17,96.976 104.17,103.716 112.918,112.463 	"/>
	<polygon points="112.918,88.696 104.17,85.854 104.17,90.288 112.918,94.745 	"/>
	<polygon points="40.31,82.03 49.057,80.645 49.057,76.885 40.31,76.885 	"/>
	<polygon points="71.946,104.141 67.976,104.141 65.134,112.888 70.56,112.888 	"/>
	<polygon points="63.45,58.977 59.431,58.977 68.179,67.724 69.806,67.724 	"/>
	<polygon points="67.306,58.977 64.193,58.977 70.548,67.724 71.763,67.724 	"/>
	<polygon points="67.754,68.149 59.006,59.401 59.006,63.42 67.754,69.776 	"/>
	<polygon points="67.979,58.977 72.436,67.724 73.419,67.724 70.577,58.977 	"/>
	<polygon points="59.006,67.276 67.754,71.733 67.754,70.518 59.006,64.163 	"/>
	<polygon points="75.515,67.724 76.314,67.724 76.314,58.977 74.129,58.977 	"/>
	<polygon points="73.521,58.977 71.209,58.977 74.051,67.724 74.907,67.724 	"/>
	<polygon points="59.006,79.069 67.754,77.683 67.754,76.885 59.006,76.885 	"/>
	<polygon points="59.006,70.547 67.754,73.39 67.754,72.407 59.006,67.95 	"/>
	<polygon points="40.31,76.284 49.057,76.284 49.057,72.524 40.31,71.138 	"/>
	<polygon points="59.006,89.006 67.754,82.65 67.754,81.436 59.006,85.893 	"/>
	<polygon points="59.006,81.989 67.754,79.147 67.754,78.291 59.006,79.677 	"/>
	<polygon points="112.493,40.28 103.361,40.28 97.006,49.028 103.745,49.028 	"/>
	<polygon points="59.006,73.491 67.754,74.877 67.754,74.021 59.006,71.179 	"/>
	<polygon points="59.006,76.284 67.754,76.284 67.754,75.485 59.006,74.099 	"/>
	<polygon points="59.006,85.219 67.754,80.762 67.754,79.779 59.006,82.621 	"/>
	<polygon points="40.31,49.837 49.057,56.192 49.057,49.453 40.31,40.705 	"/>
	<polygon points="40.735,40.28 49.483,49.028 56.222,49.028 49.867,40.28 	"/>
	<polygon points="50.609,40.28 56.964,49.028 62.236,49.028 57.779,40.28 	"/>
	<polygon points="40.31,64.473 49.057,67.315 49.057,62.881 40.31,58.424 	"/>
	<polygon points="40.31,70.53 49.057,71.916 49.057,67.946 40.31,65.104 	"/>
	<polygon points="58.453,40.28 62.91,49.028 67.345,49.028 64.502,40.28 	"/>
	<polygon points="40.31,57.749 49.057,62.206 49.057,56.935 40.31,50.579 	"/>
	<polygon points="72.553,49.028 76.314,49.028 76.314,40.28 71.168,40.28 	"/>
	<polygon points="81.282,49.028 85.252,49.028 88.094,40.28 82.668,40.28 	"/>
	<polygon points="79.099,58.977 76.914,58.977 76.914,67.724 77.713,67.724 	"/>
	<polygon points="85.883,49.028 90.317,49.028 94.774,40.28 88.726,40.28 	"/>
	<polygon points="90.991,49.028 96.264,49.028 102.619,40.28 95.449,40.28 	"/>
	<polygon points="82.06,40.28 76.914,40.28 76.914,49.028 80.674,49.028 	"/>
	<polygon points="65.134,40.28 67.976,49.028 71.946,49.028 70.56,40.28 	"/>
	<polygon points="49.658,85.027 58.406,82.185 58.406,79.772 49.658,81.157 	"/>
</g>
</svg>
