<?xml version="1.0" encoding="iso-8859-1"?>
<!-- Generator: Adobe Illustrator 27.5.0, SVG Export Plug-In . SVG Version: 6.00 Build 0)  -->
<svg version="1.1" id="shapes" xmlns="http://www.w3.org/2000/svg" xmlns:xlink="http://www.w3.org/1999/xlink" x="0px" y="0px"
	 width="150px" height="150px" viewBox="0 0 150 150" enable-background="new 0 0 150 150" xml:space="preserve" fill="url(#grad1)">
	 <defs>
		<linearGradient id="grad1" x1="0%" y1="0%" x2="100%" y2="0%">
			<stop offset="0%" style="stop-color:#b794f4;stop-opacity:1" />
			<stop offset="50%" style="stop-color:#ed64a6;stop-opacity:1" />
			<stop offset="100%" style="stop-color:#f56565;stop-opacity:1" />
		</linearGradient>
    </defs>
<g>
	<g>
		<path d="M129.582,62.701c-0.04-0.643-0.267-1.267-0.638-1.791c0.732-1.238,0.551-2.864-0.385-3.94
			c0.575-1.295,0.243-2.817-0.747-3.797c0.401-1.303-0.053-2.787-1.123-3.633c0.273-1.33-0.341-2.77-1.471-3.511
			c0.134-1.336-0.6-2.646-1.763-3.288c-0.023-1.336-0.867-2.592-2.111-3.098c-0.141-1.322-1.094-2.507-2.371-2.898
			c-0.274-1.283-1.322-2.353-2.617-2.611c-0.395-1.276-1.553-2.239-2.893-2.366c-0.504-1.244-1.747-2.108-3.097-2.115
			c-0.625-1.205-1.975-1.905-3.328-1.804c-0.748-1.188-2.184-1.633-3.534-1.514c-0.952-1.16-2.354-1.283-3.756-1.209
			c-1.027-1.024-2.668-0.904-4-0.886c-1.034-0.792-3.224-0.495-4.44-0.545c-0.106-0.035-0.217-0.058-0.327-0.085
			c-0.491-0.173-14.339-0.174-14.832,0c-0.11,0.026-0.221,0.05-0.327,0.085c-1.226,0.051-3.397-0.248-4.44,0.545
			c-0.653,0.022-2.085-0.081-2.692,0.137c-0.295,0.097-0.582,0.213-0.837,0.376c0,0.001-8.919,0-8.919,0
			c-0.261,0-0.504,0.048-0.743,0.101c-0.11,0.027-0.222,0.05-0.327,0.085c-1.226,0.051-3.397-0.248-4.44,0.545
			c-1.324-0.02-2.98-0.134-3.997,0.884c-1.394-0.075-2.821,0.056-3.759,1.211c-1.351-0.12-2.784,0.326-3.533,1.513
			c-1.353-0.097-2.705,0.598-3.329,1.805c-1.349,0.005-2.595,0.871-3.096,2.114c-1.34,0.127-2.499,1.09-2.893,2.366
			c-1.296,0.258-2.343,1.33-2.618,2.612c-1.279,0.392-2.23,1.577-2.371,2.898c-1.244,0.507-2.087,1.762-2.111,3.098
			c-1.161,0.636-1.898,1.962-1.763,3.287c-1.124,0.738-1.742,2.17-1.473,3.493c-1.067,0.864-1.522,2.349-1.12,3.651
			c-0.985,0.972-1.328,2.513-0.744,3.792c-0.936,1.07-1.12,2.691-0.397,3.929c-0.844,1.178-0.823,2.792-0.012,3.977
			c-0.582,1.018-0.589,2.314-0.007,3.329c0.079,0.17,0.285,0.498,0.374,0.661c-0.487,1.151-0.213,2.454,0.483,3.463
			c0,0,0.244,0.423,0.244,0.423c-0.436,1.344,0.423,2.717,1.126,3.862c-0.236,1.228,0.984,2.856,1.549,3.892
			c0.061,0.408,0.17,0.816,0.396,1.207l3.337,5.779c0.046,0.052,3.718,6.545,3.689,6.236c0.599,0.919,1.571,3.183,2.596,3.678
			c0.605,1.058,1.356,2.664,2.592,3.024c0.069,0.109,0.685,1.221,0.766,1.276c0.512,0.793,3.459,6.2,4.104,6.953
			c0.599,0.919,1.571,3.183,2.595,3.678c0.605,1.058,1.357,2.664,2.593,3.025c0.628,1.209,1.41,2.468,2.788,2.727
			c0.601,1.267,1.587,2.246,2.94,2.369c0.593,1.283,1.847,2.137,3.147,2.117c0.686,1.289,2.037,1.891,3.319,1.768
			c0.807,1.236,2.211,1.725,3.504,1.469c0.905,1.134,2.354,1.517,3.632,1.128c1.003,1.05,2.527,1.291,3.791,0.749
			c1.104,0.964,2.703,1.097,3.937,0.38c1.172,0.835,2.754,0.835,3.925,0c1.234,0.717,2.833,0.584,3.937-0.38
			c1.264,0.542,2.788,0.301,3.791-0.749c1.279,0.389,2.727,0.006,3.632-1.128c1.293,0.256,2.697-0.233,3.504-1.469
			c1.282,0.124,2.633-0.479,3.319-1.768c1.299,0.02,2.554-0.834,3.147-2.117c1.354-0.123,2.34-1.102,2.94-2.369
			c1.379-0.259,2.16-1.519,2.788-2.727c1.234-0.359,1.99-1.969,2.592-3.025c1.019-0.487,2.003-2.769,2.596-3.678
			c0.122-0.147,0.252-0.283,0.353-0.456l3.337-5.779l3.337-5.779c0.226-0.391,0.336-0.8,0.396-1.207
			c0.567-1.041,1.782-2.658,1.549-3.892c0.446-0.787,1.244-1.937,1.21-2.856c0.917-1.588,3.784-6.554,4.745-8.219
			c0.226-0.391,0.336-0.799,0.396-1.207c0.567-1.041,1.782-2.658,1.549-3.891c0.705-1.146,1.563-2.518,1.127-3.862l0.537-0.931
			c0.562-0.974,0.558-2.041,0.19-2.955c0.869-1.223,1.105-2.772,0.367-3.991C129.383,64.22,129.629,63.469,129.582,62.701z
			 M128.395,57.812c0.602,1.004,0.394,2.208-0.221,3.144c-1.785,3.093-3.879,6.719-5.682,9.842c-0.451,0.739-1.003,2.028-1.853,2.38
			c0.478-1.047,0.373-2.116-0.126-3.068c0.925-0.43,1.597-1.905,2.105-2.757c1.726-2.99,3.89-6.737,5.624-9.741
			C128.291,57.681,128.352,57.737,128.395,57.812z M75.027,44.467c-0.035-0.513-0.203-0.992-0.427-1.449
			c0.26-0.153,0.499-0.346,0.717-0.574c0.687,0.204,1.457,0.224,2.13-0.051c0.01,0.017,0.025,0.029,0.035,0.046
			c0.452,0.86,0.477,1.891,0.007,2.746c-1.792,3.116-3.817,6.613-5.61,9.721c-0.189,0.297-1.118,2.036-1.373,2.25
			c-0.621,0.754-1.692,1.156-2.663,0.911c2.087-3.517,4.286-7.423,6.352-10.968C74.706,46.307,75.141,45.381,75.027,44.467z
			 M78.465,43.53c-0.036-0.493-0.214-0.954-0.42-1.397c0.177-0.132,0.339-0.247,0.496-0.369c0.77,0.34,1.69,0.393,2.476,0.086
			c0.604,0.975,0.464,2.21-0.156,3.14c-1.811,3.137-3.754,6.503-5.569,9.646c0,0-0.912,1.58-0.912,1.58
			c-0.632,1.109-2.072,1.683-3.285,1.218c0.486-0.584,1.126-1.889,1.528-2.526c1.501-2.6,3.196-5.537,4.693-8.129
			C77.878,45.813,78.621,44.696,78.465,43.53z M82.036,42.994c-0.046-0.493-0.214-0.962-0.421-1.407
			c0.088-0.053,0.158-0.12,0.234-0.175c0.87,0.47,1.907,0.592,2.843,0.25c0.556,0.926,0.506,2.101-0.077,3.003
			c-1.937,3.356-3.976,6.887-5.912,10.24l-0.649,1.123c-0.7,1.199-2.328,1.753-3.576,1.097c0.579-0.617,1.104-1.78,1.555-2.492
			c1.602-2.774,3.316-5.744,4.909-8.502C81.499,45.185,82.177,44.14,82.036,42.994z M85.716,42.832
			c-0.046-0.49-0.2-0.957-0.411-1.398c0.847,0.646,2.076,0.787,3.064,0.415c0.529,0.848,0.507,1.94,0.035,2.808
			c-2.102,3.64-4.238,7.341-6.342,10.985c-0.692,1.633-2.572,2.528-4.156,1.551c0.671-0.557,1.08-1.552,1.539-2.286
			c1.942-3.432,4.07-6.915,5.943-10.367C85.649,43.987,85.779,43.403,85.716,42.832z M89.364,42.832
			c-0.02-0.21-0.061-0.416-0.132-0.615c0.826,0.437,1.837,0.51,2.706,0.177c0.337,0.586,0.481,1.283,0.34,1.952
			c-0.253,1.078-1.048,2.025-1.547,3.007c-1.361,2.357-2.744,4.752-4.105,7.11c-0.348,0.601-0.975,1.689-1.32,2.286
			c-0.774,1.391-2.772,1.835-4.016,0.846c0.576-0.364,1.002-1.012,1.328-1.632c1.748-3.028,3.578-6.196,5.327-9.227
			C88.587,45.547,89.642,44.264,89.364,42.832z M92.962,43.569c-0.01-0.127-0.032-0.252-0.056-0.376
			c0.421,0.181,0.865,0.295,1.318,0.299c0.388-0.029,0.796-0.058,1.159-0.213c0.142,0.268,0.283,0.566,0.336,0.866
			c0.229,0.91-0.179,1.805-0.661,2.567c-1.881,3.259-3.796,6.576-5.677,9.832c0,0-0.591,1.024-0.591,1.024
			c-0.792,1.492-2.965,1.951-4.218,0.786c1.143-0.628,1.759-2.179,2.425-3.248c1.775-3.073,3.586-6.212,5.359-9.281
			C92.802,45.151,93.025,44.367,92.962,43.569z M96.412,44.482c0.733,0.26,1.546,0.284,2.276,0.007
			c0.873,1.363,0.096,2.864-0.681,4.049c-1.917,3.321-3.92,6.791-5.837,10.11c-0.814,1.688-3.219,2.142-4.502,0.734
			c1.251-0.429,1.829-1.776,2.457-2.837c1.249-2.163,2.521-4.366,3.77-6.529c0.419-0.725,1.124-1.946,1.536-2.66
			C95.935,46.495,96.539,45.51,96.412,44.482z M98.275,67.952c0.481,0.271,1.019,0.412,1.568,0.419l0.103,0.178
			c-0.006,0.896,0.622,1.846,1.071,2.612c-2.012,0.265-2.824-1.791-3.651-3.21c-0.387-0.671-1.851-3.206-2.214-3.835
			c0.062,0.011,0.126,0.016,0.189,0.024c0.235,0.441,0.548,0.855,0.888,1.216C96.726,66.215,97.353,67.532,98.275,67.952z
			 M97.359,66.03c0.121,0.044,0.237,0.102,0.362,0.132c0.175,0.303,0.492,0.895,0.737,1.135
			C97.982,67.013,97.618,66.532,97.359,66.03z M96.623,67.952c0.246,0.43,0.997,1.724,1.255,2.174
			c0.624,1.08,1.727,1.693,2.934,1.701c0.009,1.078,0.598,1.942,1.133,2.854c-1.138,0.242-2.376-0.275-2.965-1.307l-0.77-1.334
			c-1.741-3.017-3.833-6.639-5.582-9.669c0.043,0.002,0.085,0.015,0.128,0.016c0.348,0.65,0.886,1.141,1.482,1.433
			C94.712,64.642,96.127,67.093,96.623,67.952z M93.248,64.732c1.108,1.919,2.737,4.741,3.848,6.665
			c0.255,0.444,1.06,1.834,1.327,2.299c0.629,1.053,1.739,1.651,2.933,1.7c-0.047,1.022,0.634,1.982,1.134,2.855
			c-1.212,0.488-2.666-0.092-3.325-1.201c-0.141-0.242-1.059-1.835-1.172-2.029c-1.655-2.866-3.638-6.301-5.281-9.147
			c-0.527-0.81-0.766-1.827-0.388-2.742L93.248,64.732z M102.398,76.806c-0.274-0.457-0.419-0.975-0.402-1.485
			c0.097-0.018,0.193-0.026,0.288-0.052c1.845,3.196,3.705,6.418,5.552,9.617c1.246,2.419,4.736,2.485,6.047,0.087
			c2.078-3.599,4.229-7.325,6.308-10.927c0.093-0.024,0.177-0.074,0.268-0.106c0.599,0.977,0.465,2.189-0.148,3.125
			c-0.047,0.092-0.162,0.274-0.213,0.37c-1.14,1.976-2.379,4.119-3.517,6.092c-0.912,1.577-1.849,3.204-2.76,4.78
			c-1.028,1.784-3.757,1.813-4.784,0c-0.104-0.199-0.346-0.586-0.45-0.779C106.531,83.965,104.455,80.369,102.398,76.806z
			 M120.157,72.681c-0.098,0.263-0.216,0.532-0.365,0.772c-1.813,3.139-3.686,6.385-5.498,9.522
			c-0.409,0.666-0.902,1.686-1.377,2.232c-1.144,1.306-3.389,1.151-4.311-0.321c-0.068-0.041-0.753-1.261-0.813-1.359
			c-1.883-3.261-3.766-6.523-5.647-9.782c-0.346-0.548-0.66-1.158-0.683-1.808c1.778,3.079,3.57,6.183,5.347,9.261
			c0.361,0.686,0.86,1.283,1.522,1.686c1.62,0.885,3.68,0.309,4.616-1.271c0.662-1.147,1.575-2.727,2.238-3.876
			c1.378-2.387,2.79-4.832,4.169-7.221c0.198-0.01,0.381-0.057,0.56-0.145C120.309,71.067,120.427,71.92,120.157,72.681z
			 M119.364,68.915c-0.274,1.036-1.085,2.082-1.586,3.047c-1.767,3.061-3.561,6.168-5.332,9.235
			c-0.995,1.915-3.901,1.948-4.893,0.001c-0.076-0.149-0.26-0.438-0.337-0.584c-0.393-0.681-0.807-1.398-1.2-2.078
			c0.17,0.217,0.325,0.452,0.542,0.624c0.335,0.276,0.687,0.512,1.106,0.638c1.484,0.566,3.288-0.103,4.076-1.488
			c0.142-0.245,0.642-1.111,0.772-1.336c1.895-3.282,3.803-6.588,5.699-9.871c0.282-0.017,0.564-0.047,0.819-0.177
			C119.365,67.521,119.51,68.246,119.364,68.915z M118.15,65.649c-2.024,4.229-4.714,8.21-6.968,12.338
			c-1.186,1.939-3.954,1.76-4.939-0.268c-0.232-0.381-0.588-1.034-0.821-1.422c0.884,0.58,2.047,0.734,3.03,0.337
			c0.761-0.238,1.332-0.822,1.773-1.468c2.178-3.773,4.368-7.565,6.547-11.339c0.355-0.032,0.709-0.088,1.048-0.206
			C118.186,64.236,118.286,64.963,118.15,65.649z M116.672,62.235c-0.203,1.298-1.261,2.481-1.828,3.645
			c-1.453,2.516-2.916,5.051-4.369,7.567c-0.455,0.715-0.83,1.701-1.527,2.191c-1.062,0.884-2.754,0.708-3.683-0.294
			c-0.386-0.431-0.79-1.222-1.087-1.722c1.499,0.645,3.331,0.056,4.184-1.339c0.273-0.403,0.593-1.02,0.846-1.438
			c0.621-1.076,1.273-2.206,1.895-3.282c1.321-2.289,2.661-4.608,3.973-6.882c0.416,0.044,0.833-0.072,1.231-0.204
			C116.639,61.005,116.788,61.639,116.672,62.235z M114.865,59.317c-0.095,0.821-0.682,1.571-1.062,2.283
			c-1.973,3.418-3.961,6.86-5.936,10.281c-1.16,1.899-3.846,1.794-4.878-0.162c-0.109-0.196-0.284-0.488-0.394-0.683
			c1.602,0.358,3.29-0.485,3.99-2.001c1.86-3.222,3.85-6.667,5.711-9.891c0.232-0.431,0.617-1.001,0.806-1.447
			c0.473,0.09,0.951-0.029,1.404-0.182C114.831,58.05,114.967,58.708,114.865,59.317z M112.833,56.268
			c-0.04,0.956-0.647,1.745-1.093,2.554c-1.949,3.376-3.99,6.911-5.941,10.291c-0.83,1.524-3.039,1.819-4.271,0.633
			c-0.362-0.295-0.612-0.816-0.848-1.213c1.319,0.19,2.662-0.501,3.356-1.652c2.232-3.972,4.715-7.956,6.843-11.972
			c0.524,0.116,1.056,0.015,1.559-0.163C112.727,55.199,112.829,55.743,112.833,56.268z M110.452,54.172
			c-0.022,0.105-0.051,0.207-0.085,0.31c-0.041,0.097-0.077,0.196-0.121,0.291c-0.016,0.035-0.023,0.06-0.035,0.083
			c-0.07,0.191-0.203,0.384-0.302,0.563c-1.803,3.122-3.693,6.396-5.5,9.526c-0.238,0.415-0.689,1.192-0.931,1.613
			c-0.672,1.199-2.225,1.705-3.457,1.146c-0.677-0.244-1.177-0.811-1.499-1.444c0.142-0.009,0.284-0.028,0.426-0.05
			c0.121-0.016,0.223-0.027,0.325-0.04c0.909-0.202,1.684-0.823,2.209-1.61c2.249-4.044,4.831-8.064,6.928-12.181
			c0.297-0.014,0.52,0.054,0.743,0.009c0.331-0.04,0.663-0.048,0.963-0.195C110.465,52.779,110.591,53.502,110.452,54.172z
			 M107.951,51.463c-0.219,1.601-1.665,3.249-2.372,4.717c-1.521,2.634-3.122,5.406-4.654,8.06
			c-1.043,1.828-3.861,1.786-4.834-0.086c1.858-0.103,2.715-1.722,3.491-3.165c1.428-2.473,2.919-5.056,4.346-7.527
			c0.513-0.954,1.516-2.414,1.823-3.457c0.355,0.045,0.705,0.122,1.06,0.038c0.297-0.031,0.533-0.06,0.752-0.169
			c0.084,0.098,0.108,0.228,0.159,0.343c0.107,0.212,0.182,0.428,0.195,0.663C107.936,51.077,107.994,51.27,107.951,51.463z
			 M105.172,49.476c-0.068,1.079-1.328,2.7-1.773,3.613c-1.734,3.003-3.509,6.077-5.242,9.08c-0.488,0.784-1.321,1.326-2.253,1.363
			c-0.945,0.061-1.897-0.429-2.425-1.225c0.685-0.132,1.325-0.496,1.799-1.007c0.183-0.229,0.304-0.395,0.472-0.611
			c1.936-3.354,3.923-6.795,5.862-10.154c0.318-0.596,0.858-1.35,1.054-1.999c0.092-0.201,0.148-0.405,0.154-0.624
			c0.272,0.034,0.548,0.073,0.821,0.102c0.386-0.039,0.795-0.046,1.154-0.213c0.01,0.017,0.025,0.029,0.035,0.046
			C105.068,48.355,105.274,48.911,105.172,49.476z M102.207,47.674c-0.044,0.897-0.819,1.893-1.223,2.663
			c-1.917,3.315-3.883,6.734-5.801,10.044c-0.069,0.1-0.146,0.194-0.221,0.289c-0.142,0.218-0.292,0.355-0.468,0.475
			c-1.107,0.925-2.958,0.74-3.826-0.435c0.513-0.119,0.922-0.449,1.329-0.764c2.075-2.885,3.661-6.256,5.527-9.287
			c0.706-1.442,2.064-2.946,2.192-4.598c0.695,0.194,1.433,0.196,2.113-0.058C102.113,46.503,102.281,47.094,102.207,47.674z
			 M91.603,69.13c-0.744,0.859-1.049,2.061-0.687,3.224c-0.813,0.788-1.208,1.955-0.973,3.116c-0.869,0.703-1.353,1.796-1.252,2.935
			c-0.946,0.621-1.542,1.683-1.552,2.82c-0.991,0.534-1.638,1.529-1.759,2.634c-1.047,0.434-1.787,1.35-2.019,2.423
			c-1.11,0.335-1.931,1.211-2.256,2.262c-1.143,0.236-2.012,1.022-2.428,2.024c-1.182,0.123-2.128,0.809-2.635,1.756
			c-0.108,0.001-0.203,0.031-0.307,0.041c-0.603-0.755-1.508-1.276-2.608-1.285c-0.507-0.947-1.454-1.633-2.636-1.756
			c-0.416-1.001-1.284-1.787-2.428-2.023c-0.325-1.051-1.145-1.927-2.255-2.262c-0.231-1.073-0.972-1.989-2.019-2.423
			c-0.121-1.104-0.769-2.1-1.759-2.634c-0.01-1.136-0.606-2.198-1.552-2.819c0.1-1.139-0.384-2.232-1.252-2.935
			c0.238-1.161-0.167-2.307-0.973-3.116c0.356-1.13,0.072-2.35-0.687-3.223c0.493-1.14,0.33-2.342-0.342-3.301
			c0.197-0.355,0.312-0.726,0.392-1.113c0.383-0.292,0.715-0.655,0.954-1.086c1.119-0.023,2.129-0.549,2.788-1.547
			c1.125,0.098,2.224-0.348,2.942-1.254c1.119,0.229,2.325-0.133,3.116-0.967c1.108,0.337,2.34,0.095,3.223-0.681
			c1.081,0.465,2.357,0.333,3.31-0.352c1.053,0.612,2.374,0.612,3.427,0c0.953,0.685,2.227,0.817,3.307,0.351
			c0.886,0.775,2.116,1.02,3.225,0.681c0.792,0.835,2.014,1.196,3.116,0.967c0.719,0.906,1.817,1.352,2.942,1.254
			c0.445,0.669,1.09,1.152,1.836,1.389c0.001,0.001,0.121,0.209,0.121,0.209c-0.58,1.013-0.592,2.307-0.007,3.329
			c0.01,0.02,0.015,0.042,0.028,0.061C91.288,66.756,91.102,67.982,91.603,69.13z M66.199,93.799
			c-1.185,0.033-2.352,0.657-2.939,1.689c-0.763-0.517-2.022-0.457-2.935-0.445c0.367-1.077,1.438-1.802,2.57-1.809
			c0,0,10.874,0,10.874,0c-0.184,0.17-0.332,0.367-0.481,0.566H66.199z M71.012,94.442c-0.108,0.075-0.209,0.157-0.307,0.243
			c-1.312-0.081-2.833,0.108-3.662,1.243c-0.379,0-1.079-0.024-1.438,0.078c-0.379-0.116-1.436-0.07-1.842-0.078
			c0.45-0.9,1.434-1.467,2.436-1.486C66.199,94.442,71.012,94.442,71.012,94.442z M62.896,92.591
			c-1.176,0.038-2.353,0.668-2.938,1.689c-0.754-0.508-1.981-0.459-2.885-0.445c0.289-1.24,1.425-2.091,2.681-2.114
			c0,0,13.346,0,13.346,0c0.708,0.053,1.416,0.272,1.919,0.778c-0.076,0.024-0.143,0.064-0.216,0.093H62.896z M54.122,91.96
			c0.338-1.208,1.43-2.03,2.667-2.041c0,0,13.346,0,13.346,0c0.875,0.041,1.708,0.418,2.222,1.158H59.753
			c-1.199,0.03-2.37,0.653-2.939,1.689c-0.749-0.457-1.873-0.464-2.745-0.445C54.086,92.199,54.089,92.078,54.122,91.96z
			 M53.85,90.965c-0.738-0.446-1.741-0.462-2.584-0.445c0.041-1.464,1.284-2.68,2.755-2.67c0,0,13.346,0,13.346,0
			c0.982,0.045,1.94,0.513,2.411,1.427h-12.99C55.561,89.341,54.412,89.953,53.85,90.965z M58.312,54.811
			c0.428-0.717,0.977-1.582,0.969-2.436l0.048-0.083c0.445,0.844,0.446,1.871-0.022,2.709c-0.397,0.686-1.312,2.274-1.697,2.94
			C58.199,57.034,58.602,55.85,58.312,54.811z M59.869,51.933c0.729-0.375,1.245-1.207,1.636-1.945
			c0.108-0.031,0.214-0.073,0.319-0.115c1.199,1.791-0.614,3.778-1.409,5.31c-0.64,1.107-1.976,3.423-2.6,4.503
			c0.042-0.287,0.05-0.569,0.019-0.849c0.473-0.82,1.543-2.672,2.028-3.513C60.427,54.281,60.47,52.957,59.869,51.933z
			 M58.795,59.274c1.038-1.797,2.565-4.442,3.621-6.271c0.569-1.043,0.615-2.366,0.006-3.391c0.621-0.335,1.126-0.982,1.464-1.646
			c0.241-0.027,0.485-0.059,0.706-0.163c0.513,0.846,0.513,1.943,0.035,2.809c-1.654,2.863-3.688,6.388-5.356,9.277
			c-0.367,0.589-1.173,2.155-1.615,2.671c-0.043-0.316-0.075-0.638-0.224-0.923l0.062-0.108L58.795,59.274z M65.19,47.542
			c0.512-0.296,0.972-0.755,1.281-1.329c0.366-0.041,0.742-0.061,1.085-0.211c0.517,0.85,0.526,1.942,0.035,2.809
			c-0.133,0.232-1.224,2.12-1.321,2.289c-1.189,2.058-2.907,5.036-4.086,7.077c-0.806,1.261-1.476,3.313-3.212,3.516
			c1.989-3.446,4.214-7.3,6.211-10.759C65.747,49.891,65.789,48.567,65.19,47.542z M68.154,45.741
			c0.431-0.253,0.806-0.617,1.105-1.075c0.478,0.079,0.982-0.023,1.439-0.177c0.548,0.859,0.497,1.939,0.035,2.808
			c-2.155,3.733-4.523,7.834-6.673,11.558c-0.505,0.806-1.333,1.359-2.318,1.372c2.054-3.558,4.344-7.524,6.405-11.094
			C68.7,48.093,68.748,46.758,68.154,45.741z M74.17,45.768c-0.163,0.475-1.348,2.38-1.602,2.864
			c-1.198,2.075-2.859,4.952-4.047,7.01c-0.05,0.077-1.268,2.238-1.311,2.206c-0.541,0.778-1.518,1.294-2.487,1.147
			c2.102-3.64,4.433-7.678,6.543-11.333c0.585-1.062,0.642-2.421,0.031-3.434c0.351-0.201,0.679-0.468,0.904-0.816
			c0.595,0.139,1.231,0.078,1.801-0.132C74.442,44.037,74.533,44.954,74.17,45.768z M72.5,41.747
			c-0.107,0.186-0.427,0.739-0.539,0.934c-0.502,0.809-1.36,1.347-2.318,1.372c1.625-2.815,3.271-5.666,4.898-8.484
			c0.355-0.669,1.456-2.389,1.672-3.014c0.838-1.82-0.313-4.042-2.195-4.58c-0.304-0.044-0.611-0.09-0.919-0.124
			c0,0-12.205,0-12.205,0c0.516-0.563,1.243-0.861,2.002-0.871c0,0,13.346,0,13.346,0c1.895,0.005,3.355,2.071,2.527,3.82
			c-0.22,0.571-1.086,1.931-1.387,2.493C75.766,36.09,74.114,38.952,72.5,41.747z M73.099,28.493
			c2.071-0.022,3.453,2.36,2.392,4.144c-2.217,3.84-4.46,7.725-6.673,11.558c-0.448,0.675-1.123,1.243-1.946,1.323
			c2.066-3.58,4.144-7.177,6.212-10.759c0.441-0.878,0.613-1.934,0.228-2.864c-0.454-1.339-1.786-2.204-3.177-2.243
			c0,0-12.603,0-12.603,0c0.513-0.74,1.347-1.112,2.222-1.158C59.753,28.493,73.099,28.493,73.099,28.493z M70.135,30.294
			c0.384,0.04,0.778,0.079,1.125,0.259c1.062,0.451,1.724,1.606,1.609,2.752c-0.023,0.629-0.42,1.295-0.74,1.821
			c-1.827,3.165-3.697,6.402-5.525,9.57c-0.582,0.99-1.092,2.203-2.294,2.535c1.901-3.294,3.825-6.625,5.73-9.925
			c1.667-2.361,0.245-5.479-2.673-5.586c0,0-12.989,0-12.989,0c0.47-0.914,1.432-1.372,2.411-1.427
			C56.789,30.294,70.135,30.294,70.135,30.294z M67.367,32.364c1.794-0.007,3.216,1.858,2.627,3.579
			c-0.149,0.53-1.039,1.922-1.308,2.423c-1.686,2.922-3.384,5.861-5.07,8.781c-0.419,0.724-0.818,1.588-1.602,1.959
			c1.711-2.965,3.437-5.953,5.146-8.914c0.222-0.411,0.632-1.008,0.771-1.455c0.921-1.949-0.561-4.491-2.715-4.642
			c-0.135-0.016-0.261-0.055-0.403-0.055H51.505c0.375-1.056,1.456-1.629,2.516-1.678C54.021,32.364,67.367,32.364,67.367,32.364z
			 M64.814,34.684c1.685-0.008,3.077,1.658,2.693,3.318c-0.064,0.548-0.639,1.387-0.903,1.869c-2.199,3.653-4.161,7.518-6.495,11.07
			c1.83-3.427,4.169-6.683,5.705-10.233c0.466-2.055-1.228-4.118-3.32-4.113c0,0-13.346,0-13.346,0
			c-0.103,0.013-0.206,0.028-0.31,0.042c0.339-1.179,1.442-1.921,2.63-1.952C51.468,34.684,64.814,34.684,64.814,34.684z
			 M48.999,37.256c0.167-0.063,13.322,0.005,13.494-0.019c1.615-0.02,3.002,1.561,2.714,3.155c-0.063,0.66-0.479,1.237-0.792,1.801
			c-0.208,0.361-0.446,0.773-0.655,1.134c0.105-0.576,0.055-1.176-0.16-1.722c-0.451-1.343-1.785-2.207-3.178-2.244
			c0,0-13.346,0-13.346,0c-0.153,0.018-0.307,0.035-0.457,0.062c-0.055,0.008-0.112,0.013-0.167,0.023
			C46.671,38.234,47.787,37.306,48.999,37.256z M46.619,40.065c0.114-0.019,0.228-0.04,0.346-0.045
			c0.105-0.046,13.343,0.002,13.459-0.015c1.494,0.02,2.712,1.234,2.761,2.719c0,1.049-0.686,1.934-1.172,2.816
			c-0.076-1.781-1.635-3.186-3.389-3.214c0,0-13.346,0-13.346,0c-0.308,0.039-0.62,0.076-0.924,0.125
			C44.445,41.264,45.447,40.211,46.619,40.065z M44.361,43.142c0.303-0.115,0.613-0.137,0.916-0.173l13.346,0
			c2.109,0.034,3.42,2.301,2.392,4.143c-0.177,0.295-0.422,0.74-0.596,1.033c-0.286-1.539-1.75-2.653-3.31-2.676
			c0,0-13.346,0-13.346,0c-0.423,0.051-0.86,0.091-1.253,0.264c0.002-1.029,0.631-2.046,1.566-2.473
			C44.169,43.215,44.264,43.176,44.361,43.142z M42.597,46.388c0.375-0.177,0.775-0.238,1.166-0.276c0,0,13.346,0,13.346,0
			c1.797-0.013,3.134,1.776,2.659,3.503c-0.122,0.411-0.476,1.012-0.697,1.386c-0.466-1.303-1.778-2.229-3.171-2.228l-13.346,0
			c-0.522,0.064-1.064,0.095-1.521,0.38C40.877,48.021,41.563,46.845,42.597,46.388z M41.173,49.78
			c0.415-0.262,0.904-0.318,1.381-0.365c0,0,13.346,0,13.346,0c1.438-0.028,2.677,1.194,2.745,2.601
			c0.026,0.115,0.015,0.222-0.001,0.331c-0.034,0.6-0.313,1.189-0.63,1.694c-0.037-0.074-0.066-0.151-0.121-0.213
			c-0.602-1.001-1.685-1.543-2.879-1.609c0,0-13.346,0-13.346,0c-0.285,0.039-0.582,0.076-0.865,0.117
			c-0.321,0.098-0.646,0.246-0.941,0.405c-0.224-0.925,0.129-1.895,0.785-2.557C40.822,50.042,40.994,49.909,41.173,49.78z
			 M39.825,53.58c0.116-0.106,0.249-0.188,0.371-0.285c0.442-0.289,0.955-0.39,1.472-0.434c0,0,13.346,0,13.346,0
			c0.983,0.022,1.866,0.552,2.392,1.381c0.026,0.054,0.044,0.111,0.069,0.166c0.012,0.023,0.019,0.047,0.03,0.071
			c0.443,0.898,0.278,1.97-0.252,2.792c-0.228-0.341-0.514-0.625-0.849-0.86c-0.089-0.071-0.173-0.126-0.261-0.179
			c-0.114-0.053-0.214-0.094-0.314-0.136c0.19-0.576-14.23-0.219-14.705-0.31c-0.372,0.061-0.763,0.065-1.117,0.206
			c-0.332,0.134-0.67,0.269-0.937,0.514c-0.04-0.097-0.069-0.199-0.09-0.302c-0.011-0.066-0.017-0.133-0.026-0.199
			c-0.013-0.114-0.034-0.213-0.041-0.313c-0.007-0.519,0.14-0.998,0.364-1.45C39.433,53.999,39.618,53.776,39.825,53.58z
			 M39.095,57.335c0.523-0.562,1.257-0.898,2.028-0.905c0,0,13.346,0,13.346,0c1.293,0.024,2.497,0.975,2.701,2.268
			c0.16,0.665-0.03,1.336-0.342,1.933c-0.146-0.177-0.32-0.327-0.506-0.461c-0.166-0.145-0.338-0.27-0.547-0.34
			c-0.189-0.082-0.378-0.167-0.57-0.242c-0.105-0.025-0.2-0.022-0.287-0.039c-0.211-0.031-0.422-0.062-0.634-0.086
			c0,0-13.346,0-13.346,0c-0.303,0.039-0.611,0.075-0.91,0.123c-0.277,0.106-0.548,0.228-0.816,0.345
			c-0.208,0.123-0.39,0.277-0.565,0.439c-0.41-0.787-0.338-1.735,0.063-2.507C38.809,57.675,38.966,57.504,39.095,57.335z
			 M38.398,61.842c0.306-0.846,1.093-1.479,1.97-1.662c0.19-0.034,0.382-0.051,0.57-0.074c0,0,13.346,0,13.346,0
			c0.372,0.043,0.749,0.069,1.088,0.244c0.248,0.079,0.439,0.219,0.628,0.377c0.201,0.137,0.345,0.296,0.465,0.483
			c0.07,0.094,0.145,0.182,0.212,0.277c0.07,0.156,0.135,0.314,0.197,0.473c0.237,0.677,0.213,1.443-0.112,2.086
			c-0.248-0.199-0.482-0.419-0.784-0.533c-0.253-0.114-0.453-0.199-0.662-0.259c-0.302-0.049-0.563-0.078-0.845-0.115
			c0,0-13.346,0-13.346,0c-0.521,0.002-0.995,0.128-1.452,0.35c-0.434,0.175-0.798,0.488-1.093,0.818
			C38.164,63.566,38.029,62.628,38.398,61.842z M38.43,65.993c0.029-0.275,0.183-0.52,0.279-0.777
			c0.008-0.017,0.014-0.035,0.022-0.052c0.518-0.835,1.407-1.363,2.392-1.381c0,0,13.346,0,13.346,0
			c0.167,0.019,0.337,0.035,0.502,0.065c0.802,0.121,1.464,0.641,1.89,1.316c0.397,0.708,0.468,1.517,0.207,2.265
			c-0.567-0.492-1.315-0.669-2.055-0.719c0,0-13.346,0-13.346,0c-1.101,0.045-2.183,0.543-2.783,1.483
			C38.45,67.545,38.266,66.758,38.43,65.993z M38.952,69.728c0.014-0.339,0.174-0.635,0.302-0.943
			c0.009-0.017,0.012-0.035,0.022-0.052c0.536-0.828,1.414-1.388,2.392-1.381c0,0,13.346,0,13.346,0
			c1.682,0,3.108,1.673,2.692,3.325c-0.51-0.335-1.177-0.46-1.806-0.523c0,0-13.346,0-13.346,0
			c-1.077,0.052-2.163,0.538-2.763,1.457c-0.057,0.081-0.127,0.148-0.175,0.231c-0.061-0.028-0.123-0.053-0.185-0.08
			C39.065,71.165,38.818,70.428,38.952,69.728z M39.808,73.402c0.033-0.272,0.048-0.55,0.176-0.797
			c0.053-0.131,0.1-0.254,0.156-0.374c0.493-0.873,1.425-1.4,2.414-1.433c0,0,13.346,0,13.346,0c1.579-0.006,2.955,1.472,2.73,3.04
			c-0.453-0.228-0.958-0.38-1.521-0.38H43.763c-1.107,0.064-2.184,0.54-2.788,1.49c-0.048,0.067-0.105,0.13-0.15,0.198
			c-0.238-0.094-0.457-0.224-0.703-0.303C39.891,74.391,39.785,73.9,39.808,73.402z M41.048,76.475
			c0.011-0.3,0.141-0.565,0.258-0.838c0.437-0.94,1.431-1.499,2.457-1.537c0,0,13.346,0,13.346,0
			c1.487-0.033,2.792,1.297,2.767,2.764c-0.093-0.52-14.03-0.169-14.599-0.264c-1.211,0.053-2.313,0.65-2.939,1.689
			c-0.359-0.147-0.705-0.351-1.102-0.368C41.039,77.46,40.972,76.967,41.048,76.475z M42.517,79.957
			c0.003-0.09,0.027-0.179,0.035-0.268c0.017-0.125,0.026-0.251,0.05-0.375c0.357-1.195,1.437-2.064,2.675-2.07
			c0,0,13.346,0,13.346,0c1.353,0.005,2.621,1.083,2.725,2.446c0.43-0.259-14.117-0.071-14.27-0.125
			c-1.203,0.03-2.308,0.664-2.938,1.689c-0.48-0.243-0.944-0.389-1.485-0.42c-0.081-0.269-0.111-0.549-0.144-0.825
			C42.51,79.991,42.516,79.974,42.517,79.957z M44.332,82.808c0.018-0.175,0.023-0.351,0.069-0.523
			c0.326-1.189,1.435-2.06,2.676-2.077c0,0,13.346,0,13.346,0c1.265,0.013,2.478,0.939,2.693,2.209
			c-0.204-0.037-0.405-0.084-0.623-0.084H49.148c-1.214,0.011-2.301,0.676-2.939,1.689c-0.65-0.326-1.077-0.408-1.818-0.445
			C44.361,83.302,44.301,83.053,44.332,82.808z M46.471,85.06c0.07-0.241,0.194-0.469,0.284-0.703
			c0.287-0.431,0.641-0.805,1.1-1.053c0.405-0.203,0.836-0.323,1.292-0.329c0,0,13.346,0,13.346,0
			c1.173,0.007,2.312,0.797,2.63,1.952c-0.105-0.009-0.201-0.042-0.31-0.042H51.468c-1.221,0.019-2.314,0.664-2.939,1.689
			c-0.641-0.34-1.372-0.467-2.097-0.445C46.36,85.773,46.376,85.412,46.471,85.06z M48.764,87.82
			c0.188-1.286,1.407-2.284,2.704-2.291c0,0,13.346,0,13.346,0c1.054,0.038,2.14,0.639,2.516,1.678H54.021
			c-1.32-0.004-2.302,0.721-2.939,1.689c-0.705-0.384-1.566-0.474-2.36-0.445C48.708,88.238,48.723,88.028,48.764,87.82z
			 M52.177,91.162c0.49,0.045,0.997,0.132,1.419,0.394c-0.088,0.247-0.142,0.501-0.172,0.764
			c-0.084,0.011-11.639-0.021-11.713,0.011c-2.603,0.04-4.148,2.984-2.813,5.187c2.047,3.545,4.113,7.125,6.159,10.668
			c-0.985-0.142-1.74-0.846-2.169-1.71c-2.174-3.934-4.731-7.854-6.734-11.869c-0.23-0.956,0.068-1.982,0.764-2.673
			c0.53-0.481,1.196-0.751,1.912-0.773C38.831,91.162,52.177,91.162,52.177,91.162z M45.041,106.872
			c-1.58-2.737-3.17-5.491-4.75-8.228c-0.487-0.908-1.274-1.888-1.256-2.961c-0.012-1.467,1.31-2.71,2.761-2.719
			c0,0,13.346,0,13.346,0c0.491,0.047,1.001,0.136,1.419,0.394c-0.056,0.156-0.097,0.314-0.129,0.477
			c-0.571-0.001-10.592,0-11.493,0c-1.518,0.021-2.887,1.083-3.291,2.548c-0.146,0.708-0.155,1.469,0.164,2.125
			c0.171,0.505,0.552,1.059,0.808,1.526c1.916,3.319,3.858,6.681,5.775,10.003c-1.122-0.017-2.04-0.761-2.523-1.726
			C45.705,108.022,45.214,107.171,45.041,106.872z M47.902,107.897c-1.736-3.007-3.5-6.063-5.236-9.069
			c-1.23-1.813,0.068-4.349,2.272-4.351c0,0,8.332,0,8.332,0l0.401,0h4.613c0.515,0,0.999,0.142,1.419,0.394
			c-0.021,0.059-0.055,0.112-0.073,0.172H48.241c-2.493,0.003-4.209,2.779-2.997,4.99c0.204,0.44,0.525,0.92,0.759,1.349
			c1.933,3.347,3.924,6.797,5.858,10.146c-0.909,0.136-1.846-0.294-2.381-1.008c-0.065-0.081-0.133-0.159-0.19-0.248
			C48.913,109.697,48.265,108.501,47.902,107.897z M51.256,109.195c-1.42-2.461-2.907-5.035-4.325-7.492
			c-0.314-0.567-0.843-1.41-1.131-1.991c-0.951-1.699,0.364-3.977,2.315-4.01c0.235-0.085,13.26,0.027,13.472-0.017
			c0.386,0,0.747,0.098,1.085,0.243H51.687c-0.081,0.002-0.153,0.026-0.234,0.032c-0.136,0.014-0.269,0.036-0.402,0.054
			c-0.374,0.031-0.721,0.212-1.056,0.367c-1.945,1.086-2.135,3.653-0.873,5.321c2.116,3.632,4.223,7.379,6.365,10.991
			c-1.179,0.286-2.356-0.305-2.965-1.306C52.205,110.838,51.58,109.756,51.256,109.195z M54.752,110.168
			c-1.809-3.134-3.647-6.317-5.457-9.453c-1.006-1.681,0.212-4.045,2.189-4.117c0.07-0.005,0.134-0.026,0.203-0.026h2.846
			c-2.098,0.397-3.318,2.914-2.307,4.81c0.245,0.565,1.27,2.22,1.589,2.81c1.633,2.828,3.285,5.69,4.918,8.519
			c0.129,0.242,0.337,0.573,0.519,0.78c-0.166,0.089-0.349,0.097-0.534,0.117c-1.108,0.218-2.173-0.433-2.75-1.335
			C55.669,111.756,55.058,110.697,54.752,110.168z M59.133,112.117c-2.078-3.599-4.193-7.262-6.268-10.857
			c-0.459-0.871-0.476-1.89-0.004-2.753c0.097-0.151,0.216-0.288,0.326-0.43c0.363-0.442,0.896-0.746,1.448-0.88
			c0.433-0.122,2.129-0.073,2.598-0.081c-0.747,0.413-1.248,1.136-1.534,1.923c-0.304,0.914-0.139,1.882,0.286,2.727
			c2.155,3.733,4.319,7.481,6.476,11.216c0.168,0.329,0.427,0.644,0.654,0.932c-1.304,0.675-2.952,0.059-3.634-1.198
			C59.384,112.553,59.229,112.283,59.133,112.117z M63.055,112.729c-2.12-3.672-4.248-7.357-6.366-11.026
			c-0.68-1.03-0.698-2.474,0.15-3.41c0.832-1.13,2.337-1.008,3.578-0.99c-1.252,1.011-1.529,2.888-0.757,4.279
			c1.979,3.428,3.969,6.874,5.946,10.299c0.402,0.666,0.84,1.595,1.432,2.1C65.57,114.852,63.789,114.228,63.055,112.729z
			 M67.033,113.005c-0.208-0.242-0.416-0.681-0.588-0.957c-1.387-2.403-2.786-4.825-4.173-7.228c-0.6-1.039-1.454-2.519-2.055-3.559
			c-0.831-1.424-0.149-3.425,1.446-3.958c0.541-0.243,1.378-0.181,1.956-0.186c-1.054,1.2-1.124,2.929-0.177,4.288
			c1.347,2.333,2.772,4.802,4.119,7.134c1.127,1.668,1.785,3.795,3.338,5.114C69.734,114.579,67.866,114.26,67.033,113.005z
			 M70.832,112.761c-2.422-3.768-4.53-7.822-6.833-11.678c-0.875-1.247-0.745-3.079,0.564-3.966
			c0.614-0.504,1.475-0.577,2.244-0.545c-0.701,1.036-0.77,2.484-0.132,3.579c0.35,0.607,0.821,1.424,1.169,2.024
			c1.796,3.112,3.642,6.309,5.436,9.416c0.093,0.174,0.233,0.326,0.35,0.483c0.253,0.384,0.635,0.648,1.003,0.908
			C73.567,113.954,71.784,113.825,70.832,112.761z M74.536,112.112c-0.203-0.129-0.331-0.334-0.476-0.522
			c-0.048-0.065-0.098-0.123-0.142-0.186c-2.109-3.637-4.255-7.369-6.36-11.01c-0.693-0.982-0.929-2.167-0.357-3.257
			c0.541-0.973,1.62-1.525,2.713-1.453c-0.132,0.305-0.287,0.606-0.315,0.942c-0.028,0.225-0.088,0.447-0.069,0.675
			c-0.003,1.226,1.038,2.587,1.599,3.634c1.555,2.694,3.168,5.487,4.725,8.184c0.462,0.758,0.846,1.645,1.522,2.236
			c0.288,0.212,0.559,0.458,0.909,0.557c-0.877,0.918-2.345,1.108-3.43,0.445C74.748,112.28,74.643,112.195,74.536,112.112z
			 M78.201,111.181c-0.505-0.33-0.916-0.787-1.185-1.334c-1.877-3.251-3.789-6.563-5.667-9.815c-0.134-0.252-0.856-1.423-0.927-1.68
			c-0.856-1.778,0.564-3.863,2.506-3.874c-0.077,0.169-0.146,0.345-0.171,0.53c-0.193,0.952-0.034,1.559,0.363,2.421
			c1.836,3.18,3.698,6.406,5.533,9.583c0.297,0.478,1.036,1.9,1.408,2.322c0.397,0.568,1.005,0.989,1.67,1.187
			c-0.483,0.659-1.276,0.993-2.073,1.033C79.142,111.551,78.657,111.412,78.201,111.181z M81.597,109.777
			c-1.136-0.431-1.774-2.141-2.387-3.089c-1.834-3.175-3.693-6.398-5.527-9.572c-0.269-0.561-0.454-1.175-0.328-1.788
			c0.009-0.307,0.146-0.575,0.267-0.852c0.392-0.805,1.233-1.398,2.133-1.473c-0.216,0.853-0.101,1.775,0.299,2.548
			c1.958,3.455,3.998,6.924,5.975,10.372c0.652,1.247,1.482,2.649,2.999,2.879c-0.487,0.753-1.329,1.201-2.212,1.233
			C82.393,110.034,81.967,109.958,81.597,109.777z M85.003,108.153c-1.481-0.396-1.972-1.859-2.695-3.034
			c-1.834-3.176-3.695-6.4-5.524-9.567c-0.47-0.761-0.684-1.745-0.317-2.589c0.307-0.879,1.108-1.546,2.008-1.728
			c-0.213,1.015,0.146,2.036,0.703,2.886c1.998,3.459,4.041,7,6.043,10.466c0.433,0.791,1.025,1.603,1.896,1.925
			c0.327,0.156,0.677,0.235,1.033,0.266c-0.437,0.74-1.187,1.345-2.059,1.418c-0.109,0.012-0.214,0.039-0.325,0.042
			C85.505,108.238,85.248,108.19,85.003,108.153z M87.779,106.085c-0.789-0.222-1.431-0.778-1.816-1.498
			c-2.051-3.552-4.164-7.213-6.208-10.753c-0.11-0.199-0.404-0.665-0.459-0.871c-0.71-1.427,0.164-3.326,1.687-3.737
			c-0.185,1.356,0.803,2.611,1.42,3.737c1.875,3.247,3.801,6.584,5.677,9.832c0.64,1.031,1.738,1.668,2.934,1.701
			c-0.371,0.8-1.047,1.377-1.864,1.592C88.696,106.161,88.223,106.221,87.779,106.085z M90.957,103.845
			c-1.089-0.027-2.027-0.719-2.501-1.683c-1.879-3.255-3.808-6.594-5.683-9.842c-0.083-0.145-0.737-1.277-0.811-1.405
			c-0.778-1.389-0.203-3.33,1.313-3.903c-0.004,1.329,1.101,2.685,1.696,3.828c1.794,3.107,3.62,6.27,5.413,9.375
			c0.648,1.035,1.728,1.7,2.949,1.727c0.001,0.186,0.032,0.373,0.066,0.56C92.887,103.359,91.934,103.861,90.957,103.845z
			 M93.348,101.301c-1.92-0.001-2.632-1.798-3.451-3.216c-1.838-3.184-3.725-6.451-5.563-9.636
			c-0.838-1.305-0.338-3.219,1.047-3.901c0.032,0.657,0.36,1.328,0.724,1.902c2.259,3.769,4.356,7.831,6.741,11.51
			c0.2,0.303,0.503,0.485,0.784,0.694c0.52,0.315,1.097,0.482,1.701,0.511c0.113,0.333,0.125,0.67,0.237,0.982
			C95.093,100.905,94.205,101.253,93.348,101.301z M95.476,98.526c-1.733,0.086-2.597-1.51-3.3-2.844
			c-1.754-3.039-3.573-6.188-5.33-9.232c-0.115-0.199-0.377-0.653-0.494-0.856c-0.717-1.215-0.33-2.927,0.869-3.669
			c0.136,0.806,0.721,1.578,1.107,2.294c1.402,2.428,2.941,5.095,4.337,7.512c0.991,1.457,1.529,3.539,3.307,4.219
			c0.382,0.189,0.815,0.212,1.231,0.26c0.04,0.449,0.078,0.897,0.299,1.302c-0.213,0.322-0.532,0.565-0.865,0.723
			c-0.174,0.077-0.34,0.145-0.508,0.206C95.908,98.478,95.69,98.498,95.476,98.526z M97.421,95.543
			c-0.645,0.073-1.317-0.152-1.839-0.534c-0.798-0.58-1.156-1.612-1.678-2.418c-1.569-2.719-3.259-5.645-4.833-8.372
			c-0.237-0.409-0.678-1.174-0.917-1.589c-0.646-1.142-0.4-2.723,0.672-3.518c0.224,0.763,0.864,1.637,1.233,2.339
			c1.883,3.26,3.851,6.669,5.725,9.916c0.653,1.025,1.722,1.674,2.933,1.7c0.029,0.242,0.048,0.485,0.085,0.727
			c0.1,0.332,0.242,0.648,0.375,0.961C98.689,95.196,98.089,95.514,97.421,95.543z M99.116,92.377
			c-1.079,0.199-2.181-0.386-2.751-1.3c-1.892-3.248-3.862-6.689-5.749-9.947c-0.132-0.228-0.805-1.393-0.948-1.642
			c-0.623-1.075-0.441-2.528,0.49-3.378c0.252,0.681,0.969,1.739,1.306,2.377c1.807,3.129,3.725,6.452,5.529,9.577
			c0.632,1.03,1.724,1.674,2.934,1.701c0.022,0.698,0.265,1.368,0.62,1.965C100.142,92.069,99.648,92.336,99.116,92.377z
			 M100.405,89.063c-1.116,0.231-2.268-0.368-2.855-1.321c-2.186-3.786-4.492-7.78-6.673-11.558
			c-0.534-0.991-0.493-2.319,0.311-3.169c2.087,3.652,4.359,7.549,6.461,11.203c0.605,1.284,1.811,2.06,3.164,2.1
			c-0.011,0.788,0.376,1.571,0.776,2.236C101.237,88.8,100.838,89.028,100.405,89.063z M101.232,85.625
			c-1.12,0.2-2.298-0.389-2.842-1.407c-1.751-3.033-3.762-6.516-5.495-9.518l-1.133-1.962c-0.475-0.92-0.534-2.113,0.153-2.963
			c2.049,3.548,4.314,7.472,6.369,11.032c0.612,1.134,1.829,1.967,3.072,1.941c0.006,0.89,0.473,1.751,0.931,2.503
			c-0.216,0.15-0.48,0.225-0.723,0.326C101.44,85.611,101.334,85.61,101.232,85.625z M101.755,82.058
			c-1.07,0.215-2.14-0.374-2.713-1.25c-0.019-0.029-0.045-0.051-0.062-0.081l-1.293-2.24c-1.686-2.92-3.695-6.4-5.38-9.318
			c-0.437-0.855-0.512-1.868-0.012-2.733c1.467,2.542,3.3,5.717,4.772,8.265c0.461,0.727,1.341,2.501,1.907,3.143
			c0.587,0.784,1.6,1.231,2.569,1.229c-0.031,1.011,0.577,1.885,1.062,2.731C102.34,81.945,102.058,82.048,101.755,82.058z
			 M102.602,80.513c-0.247-0.467-0.433-0.994-0.42-1.516c0.217-0.04,0.424-0.106,0.631-0.188c1.507,2.61,3.02,5.232,4.527,7.84
			c0.633,0.97,1.067,2.242,2.019,2.947c1.131,0.944,2.944,0.948,4.097,0.035c0.841-0.576,1.241-1.622,1.766-2.462
			c1.808-3.13,3.662-6.342,5.472-9.479c0.588,0.999,0.385,2.172-0.22,3.093c-1.864,3.228-3.738,6.475-5.6,9.7
			c-0.212,0.369-0.649,1.124-0.865,1.499c-0.705,1.185-2.307,1.751-3.555,1.106c-0.694-0.306-1.181-0.96-1.525-1.617
			C106.825,87.828,104.698,84.145,102.602,80.513z M127.54,53.835c0.817,0.859,0.839,2.168,0.311,3.169
			c-0.916,1.587-2.398,4.152-3.337,5.779c-0.606,1.05-2.022,3.501-2.638,4.569c-0.498,0.863-1.075,2.135-2.131,2.4
			c0.497-1.004,0.381-2.144-0.118-3.088c0.948-0.436,1.653-2.017,2.177-2.881C123.552,60.742,125.794,56.896,127.54,53.835z
			 M126.312,50.577c0.074-0.129,0.107-0.264,0.163-0.396c0.874,0.801,1.096,2.16,0.564,3.198c0.033,0.056-1.316,2.302-1.362,2.409
			c-1.272,2.203-3.14,5.438-4.43,7.673c-0.679,1.122-1.252,2.677-2.697,2.952c0.487-0.977,0.336-2.122-0.132-3.053
			c1.007-0.517,1.827-2.32,2.392-3.254C122.526,57.136,124.601,53.542,126.312,50.577z M125.084,46.738
			c1.084,0.798,1.307,2.377,0.671,3.518c-1.755,3.041-3.926,6.799-5.687,9.851c-0.676,1.141-1.402,2.946-2.952,3.033
			c0.376-0.923,0.27-2.066-0.212-2.922c1.078-0.539,2.082-2.814,2.7-3.787c1.169-2.024,2.857-4.948,4.05-7.015
			C124.054,48.651,124.833,47.565,125.084,46.738z M122.997,44.47c0.193-0.334,0.304-0.679,0.375-1.027
			c1.214,0.751,1.588,2.454,0.869,3.67c-0.143,0.249-1.027,1.779-1.144,1.981c-1.717,2.974-3.818,6.613-5.53,9.577
			c-0.478,0.773-1.304,1.331-2.219,1.359c0.342-0.889,0.232-1.957-0.246-2.776c1.351-0.787,2.573-3.786,3.421-5.035
			C119.926,49.79,121.596,46.898,122.997,44.47z M121.343,40.335c1.362,0.67,1.852,2.512,1.098,3.814
			c-2.129,3.689-4.518,7.826-6.673,11.558c-0.524,0.818-1.421,1.41-2.415,1.378c0.225-0.868,0.116-1.814-0.319-2.599
			c0.855-0.44,1.353-1.438,1.823-2.268c0.711-1.231,2.04-3.533,2.735-4.737c0.686-1.188,1.909-3.306,2.605-4.512
			C120.646,42.16,121.305,41.274,121.343,40.335z M118.485,39.362c0.369-0.577,0.58-1.253,0.574-1.884
			c1.495,0.567,2.134,2.53,1.313,3.903c-0.143,0.249-0.599,1.038-0.731,1.267c-0.261,0.452-1.553,2.69-1.814,3.143
			c-1.243,2.152-2.818,4.881-4.082,7.07c-0.513,0.948-1.59,1.571-2.66,1.43c0.178-0.803,0.001-1.639-0.37-2.358
			c0.997-0.498,1.588-1.917,2.153-2.839C114.629,46.04,116.711,42.434,118.485,39.362z M116.004,36.916
			c0.346-0.651,0.554-1.406,0.473-2.099c1.98,0.603,2.472,2.96,1.265,4.545c-1.147,1.987-2.567,4.446-3.711,6.428
			c-0.261,0.451-1.646,2.852-1.907,3.303c-0.133,0.234-0.607,1.048-0.746,1.292c-0.522,0.916-1.566,1.453-2.594,1.355
			c-0.078-0.01-0.151-0.018-0.223-0.029c0.116-0.715-0.061-1.465-0.4-2.099c1.051-0.526,1.939-2.545,2.534-3.5
			C112.382,43.19,114.318,39.836,116.004,36.916z M113.317,34.684c0.347-0.693,0.509-1.504,0.346-2.248
			c1.794,0.296,2.767,2.509,1.834,4.071c-0.404,0.701-1.422,2.462-1.834,3.176c-1.101,1.907-2.62,4.538-3.717,6.438
			c-0.657,1.043-1.318,2.839-2.662,3.178c-0.182,0.088-0.39,0.079-0.588,0.112c-0.291,0.066-0.58-0.011-0.871-0.045
			c0.043-0.635-0.154-1.261-0.433-1.825c0.118-0.087,0.236-0.176,0.354-0.263c0.075-0.06,0.157-0.109,0.23-0.171
			c0.414-0.406,0.74-0.948,1.023-1.459c0.083-0.144,1.727-2.991,1.732-3.001C110.19,40.102,111.878,37.239,113.317,34.684z
			 M110.566,32.364c0.25-0.63,0.249-1.387,0.086-2.029c1.897,0.143,3.04,2.377,2.108,4.028c-1.439,2.554-3.157,5.468-4.614,8.012
			c-0.282,0.491-1.218,2.108-1.514,2.623c-0.434,0.759-0.836,1.583-1.626,2.029c-0.1,0.047-0.206,0.083-0.308,0.127
			c-0.093,0.038-0.18,0.088-0.278,0.115c-0.52,0.125-1.038,0.119-1.558-0.018c-0.037-0.536-0.2-1.031-0.436-1.51
			c0.533-0.339,0.967-0.81,1.293-1.35c1.82-3.152,3.778-6.543,5.605-9.707C109.685,34.003,110.332,33.1,110.566,32.364z
			 M107.18,31.444c0.493-0.916,0.605-2.001,0.192-2.951c2.087-0.03,3.42,2.365,2.394,4.144c-2.209,3.821-4.475,7.761-6.687,11.576
			c-0.333,0.494-0.767,0.948-1.343,1.141c-0.646,0.296-1.418,0.262-2.07,0c-0.064-0.396-0.217-0.764-0.38-1.126
			c0.687-0.43,1.163-1.062,1.526-1.754C102.904,38.849,105.086,35.069,107.18,31.444z M103.877,30.235
			c0.533-1.025,0.612-2.228,0.063-3.256c2.682-0.128,3.894,2.678,2.338,4.742c-1.976,3.422-4.048,7.011-6.023,10.431
			c-0.286,0.527-0.621,1.072-1.133,1.404c-0.368,0.272-0.82,0.439-1.278,0.468c-0.527,0.084-1.082-0.061-1.556-0.282
			c-0.097-0.243-0.197-0.487-0.305-0.724c0.209-0.158,0.43-0.297,0.631-0.47C99.268,38.642,101.419,34.285,103.877,30.235z
			 M100.801,26.979c-0.067-0.435-0.275-0.836-0.502-1.209c2.435-0.284,4.209,1.991,2.986,4.202
			c-2.178,3.773-4.418,7.651-6.594,11.422c-0.761,1.439-2.824,1.934-4.094,0.882c-0.024-0.046-0.035-0.098-0.061-0.143
			c0.501-0.303,0.877-0.726,1.206-1.206c2.165-3.731,4.353-7.54,6.514-11.275C100.784,28.863,100.99,27.901,100.801,26.979z
			 M97.482,24.884c2.08,0.001,3.441,2.343,2.392,4.143c-2.217,3.834-4.466,7.748-6.688,11.577c-0.273,0.404-0.613,0.765-1.035,1.012
			c-0.027,0.014-0.057,0.022-0.085,0.035c-0.895,0.452-2.081,0.406-2.875-0.232c0.984-0.671,1.455-1.955,2.083-2.94
			c1.846-3.198,3.738-6.473,5.586-9.676c0.688-1.248,0.567-2.846-0.39-3.92H97.482z M93.912,24.339
			c2.082,0.003,3.444,2.343,2.392,4.144c-1.918,3.323-3.856,6.68-5.772,9.997c-0.64,1.03-0.953,2.002-1.95,2.592
			c-0.855,0.442-1.945,0.469-2.775-0.055c0.736-0.692,1.163-1.686,1.685-2.538c1.199-2.078,2.421-4.194,3.62-6.27
			c0.59-1.021,1.463-2.535,2.061-3.569c0.788-1.391,0.518-3.289-0.744-4.302H93.912z M90.236,24.154
			c2.284,0.022,3.516,2.607,2.215,4.451c-2.156,3.729-4.348,7.54-6.508,11.266c-0.711,1.202-2.303,1.705-3.564,1.082
			c0.139-0.178,0.28-0.356,0.415-0.537c2.179-3.722,4.385-7.595,6.548-11.322c1.142-1.628,0.602-3.946-1.081-4.94H90.236z
			 M86.56,24.339c2.237,0.023,3.515,2.569,2.247,4.395c-2.158,3.738-4.369,7.567-6.528,11.306c-0.278,0.397-0.546,0.71-0.96,0.977
			c-0.201,0.12-0.413,0.184-0.61,0.27c-0.255,0.106-0.551,0.086-0.822,0.134c-0.297-0.051-0.617-0.036-0.892-0.163
			c1.737-2.689,3.291-5.68,4.94-8.436c0.618-1.072,1.353-2.342,1.967-3.408c1.173-1.956,0.069-4.608-2.187-5.075H86.56z
			 M68.685,25.075c0.295-0.146,0.634-0.153,0.959-0.191c0,0,13.346,0,13.346,0c0.197,0,0.386,0.035,0.573,0.074
			c1.817,0.336,2.759,2.581,1.782,4.135c-2.236,3.827-4.475,7.841-6.751,11.644c-0.604,0.926-1.769,1.412-2.85,1.156
			c0.173-0.224,0.35-0.591,0.501-0.834c1.99-3.446,4.045-7.007,6.037-10.456c1.578-2.251,0.092-5.46-2.737-5.476
			c0,0-10.986,0-10.986,0C68.601,25.109,68.642,25.091,68.685,25.075z M64.806,26.144c0.424-0.243,0.898-0.375,1.393-0.374l13.346,0
			c2.098-0.048,3.444,2.426,2.366,4.19c-0.109,0.196-0.425,0.73-0.539,0.934c-1.831,3.171-3.725,6.452-5.554,9.62
			c-0.148,0.256-0.33,0.571-0.475,0.822c-0.528,0.964-1.612,1.632-2.719,1.484c2.153-3.729,4.386-7.597,6.543-11.333
			c0.121-0.24,0.206-0.497,0.312-0.745c0.727-2.105-1.045-4.421-3.237-4.406c0,0-11.686,0-11.686,0
			C64.64,26.273,64.715,26.197,64.806,26.144z M51.687,26.127c2.061,0,10.208,0,12.103,0c-0.063,0.064-0.109,0.14-0.167,0.208
			c-0.45-0.003-1.085-0.021-1.508,0.106c-0.344-0.116-1.866-0.06-2.25-0.071c-1.933,0-7.262,0-9.264,0
			C50.94,26.226,51.301,26.127,51.687,26.127z M48.241,27.013H59.85c0.225,0,0.813,0,1.044,0c-0.316,0.234-0.588,0.514-0.805,0.837
			c-0.112-0.001-0.385-0.005-0.489,0.021c-0.419-0.209-0.848-0.285-1.316-0.291c0,0-11.686,0-11.686,0
			C47.066,27.228,47.627,27.013,48.241,27.013z M44.938,28.222c3.56,0,9.816,0,13.311,0c-0.603,0.3-1.105,0.752-1.435,1.316
			c-0.523-0.277-1.079-0.415-1.673-0.445c-3.407,0-8.723-0.001-12.205,0C43.45,28.544,44.159,28.222,44.938,28.222z M41.795,29.736
			c2.165,0,8.319,0,10.385,0c0.458,0.025,3.191-0.07,3.583,0.081c-0.827,0.259-1.498,0.813-1.913,1.522
			c-0.517-0.267-1.084-0.419-1.673-0.445l-12.603,0C40.091,30.174,40.893,29.736,41.795,29.736z M36.439,32.918
			c0.496-0.881,1.418-1.324,2.392-1.381c0.458,0.096,14.591-0.262,14.51,0.276c-0.987,0.194-1.782,0.796-2.259,1.597
			c-0.521-0.26-1.08-0.433-1.673-0.445C49.409,32.964,36.42,32.964,36.439,32.918z M33.671,34.988
			c0.497-0.882,1.421-1.334,2.392-1.381c0,0,11.2,0,11.2,0c0.937,0.035,2.749-0.179,3.565,0.394
			c-0.015,0.042-0.039,0.08-0.052,0.123c-0.983,0.214-1.779,0.806-2.247,1.606c-0.518-0.266-1.084-0.421-1.673-0.445
			c0,0-13.308,0-13.308,0C33.59,35.186,33.616,35.083,33.671,34.988z M31.118,37.308c0.498-0.885,1.42-1.337,2.392-1.381
			c0,0,11.092,0,11.092,0c0.948,0.035,2.844-0.179,3.673,0.394c-0.07,0.134-0.104,0.276-0.121,0.426
			c-0.843,0.255-1.524,0.817-1.945,1.536c-1.203-0.701-3.381-0.377-4.892-0.445c0,0-0.371,0-0.371,0H31.19
			c-0.109,0-0.204,0.033-0.31,0.042C30.941,37.685,31.012,37.491,31.118,37.308z M28.798,39.862
			c0.502-0.864,1.425-1.344,2.392-1.381c0,0,10.869,0,10.869,0c0.964,0.049,3.059-0.206,3.896,0.394
			c-0.092,0.247-0.144,0.508-0.173,0.771c-0.698,0.289-1.276,0.778-1.643,1.406c-0.498-0.314-1.096-0.387-1.673-0.445
			c0,0-13.346,0-13.346,0c-0.219,0-0.419,0.047-0.624,0.084C28.556,40.405,28.646,40.125,28.798,39.862z M26.728,42.629
			c0.496-0.856,1.42-1.367,2.392-1.381c0,0,10.533,0,10.533,0c0.993,0.053,3.363-0.214,4.231,0.393
			c-0.127,0.355-0.186,0.728-0.213,1.102c-0.558,0.301-1.021,0.738-1.333,1.272c-0.483-0.285-1.096-0.386-1.673-0.445l-13.346,0
			c-0.325,0-0.633,0.045-0.924,0.125C26.439,43.328,26.534,42.965,26.728,42.629z M24.927,45.594c0.5-0.847,1.418-1.358,2.392-1.381
			c0,0,13.346,0,13.346,0c0.494,0.042,0.995,0.122,1.419,0.394c-0.139,0.456-0.26,0.947-0.176,1.424
			c-0.421,0.314-0.823,0.671-1.084,1.127c-0.486-0.276-1.049-0.445-1.673-0.445c-0.646,0.101-14.408-0.265-14.598,0.264
			C24.553,46.501,24.677,46.027,24.927,45.594z M23.413,48.737c0.508-0.835,1.41-1.367,2.392-1.382c0,0,6.673,0,6.673,0
			c1.369,0,5.253,0,6.673,0c0.507,0.022,1.001,0.135,1.419,0.394c-0.208,0.563-0.235,1.182-0.133,1.792
			c-0.332,0.245-0.603,0.573-0.822,0.92c-0.486-0.276-1.049-0.445-1.673-0.445H24.596c-0.563,0-1.068,0.152-1.521,0.38
			C23.017,49.83,23.114,49.254,23.413,48.737z M22.204,52.04c0.503-0.838,1.396-1.39,2.392-1.381c0,0,13.346,0,13.346,0
			c0.515,0,1,0.142,1.419,0.394c-0.24,0.663-0.267,1.426-0.046,2.121c-0.222,0.219-0.399,0.485-0.586,0.733
			c-0.488-0.276-1.05-0.445-1.673-0.445H23.711c-0.682,0-1.292,0.198-1.806,0.523C21.765,53.329,21.855,52.644,22.204,52.04z
			 M21.318,55.485c0.516-0.82,1.396-1.379,2.392-1.381h13.346c0.517-0.003,0.986,0.157,1.419,0.394
			c-0.282,0.796-0.274,1.704,0.096,2.468c-0.129,0.171-0.261,0.339-0.386,0.511c-0.555-0.274-1.078-0.392-1.673-0.445l-13.346,0
			c-0.741,0.06-1.501,0.269-2.055,0.719C20.854,57.004,20.911,56.19,21.318,55.485z M20.773,59.055
			c0.523-0.822,1.388-1.374,2.392-1.382c3.685,0,9.715,0,13.346,0c0.447,0.033,0.88,0.123,1.28,0.324
			c0.049,0.018,0.094,0.043,0.139,0.07c-0.12,0.23-0.127,0.495-0.169,0.748c-0.135,0.716,0.122,1.447,0.421,2.095
			c-0.058,0.083-0.132,0.154-0.183,0.242c-0.35-0.146-0.689-0.345-1.076-0.364c-0.2-0.026-0.398-0.058-0.597-0.081
			c-1.757,0-9.11,0-10.713,0c-1.457,0.05-3.827-0.316-4.924,0.907C20.296,60.792,20.312,59.854,20.773,59.055z M20.576,62.76
			c0.521-0.877,1.418-1.381,2.405-1.411c3.766,0,9.595,0,13.346,0c0.499,0.035,0.98,0.145,1.419,0.394
			c-0.401,0.999-0.17,2.146,0.376,3.057c-0.505-0.259-1.037-0.395-1.609-0.417c0,0-3.327,0-3.327,0l-0.28,0h-9.738
			c-0.968,0.008-1.911,0.456-2.545,1.168C20.097,64.688,20.08,63.638,20.576,62.76z M20.773,69.169
			c-0.956-1.574,0.085-3.8,1.89-4.078c-0.158-0.122,7.068-0.046,7.175-0.065c1.411,0,5.216,0,6.673,0
			c0.5,0.019,0.98,0.161,1.419,0.394c-0.362,0.858-0.205,1.89,0.199,2.72c-0.336-0.135-0.718-0.123-1.074-0.187
			c0,0-13.346,0-13.346,0c-1.128,0.044-2.155,0.556-2.783,1.483L20.773,69.169z M21.596,73.221c-1.422-1.892-0.3-4.561,2.114-4.626
			c0,0,11.652,0,11.652,0c0.97,0.025,2.249-0.143,3.113,0.394c-0.304,0.789-0.253,1.726,0.107,2.496
			c-0.214-0.03-0.425-0.066-0.64-0.087c0,0-13.346,0-13.346,0C23.36,71.432,22.174,72.116,21.596,73.221z M22.787,76.568
			c-0.059,0.116-0.106,0.238-0.152,0.361l-0.43-0.745c-1.056-1.799,0.324-4.142,2.392-4.143c0,0,13.346,0,13.346,0
			c0.508,0.015,0.978,0.167,1.419,0.394c-0.261,0.716-0.279,1.593,0.026,2.299c-2.448-0.089-10.982-0.004-13.583-0.032
			C24.543,74.752,23.358,75.427,22.787,76.568z M24.275,79.772c-0.117,0.239-0.207,0.489-0.266,0.749l-0.596-1.033
			c-0.989-1.66,0.188-4.006,2.139-4.111c3.493-0.093,10.119-0.002,13.6-0.033c0.497,0.018,0.986,0.164,1.419,0.394
			c-0.267,0.666-0.247,1.416-0.052,2.106H27.319C26.035,77.904,24.81,78.58,24.275,79.772z M26.038,82.825
			c-0.196,0.37-0.259,0.786-0.308,1.197c-0.308-0.619-1.113-1.687-1.128-2.399c-0.269-1.605,1.101-3.143,2.717-3.137
			c0,0,13.346,0,13.346,0c0.493,0.036,0.989,0.152,1.419,0.394c-0.05,0.129-0.086,0.261-0.117,0.396
			c-0.041,0.251-0.07,0.467-0.1,0.68c0.032,0.282,0.06,0.569,0.1,0.851H29.12C27.798,80.835,26.546,81.61,26.038,82.825z
			 M28.158,85.473c-0.346,0.623-0.42,1.37-0.307,2.068c-0.256-0.575-1.373-2.124-1.422-2.753c-0.396-1.657,0.994-3.352,2.69-3.338
			c0,0,13.346,0,13.346,0c0.439,0.037,0.871,0.114,1.266,0.318c0.063,0.031,0.109,0.05,0.153,0.076
			c-0.124,0.289-0.151,0.612-0.195,0.922c-0.004,0.046-0.015,0.077-0.016,0.11c0.009,0.221,0.039,0.436,0.066,0.65
			c0.006,0.049-12.549,0.049-12.549,0.049C29.926,83.607,28.707,84.336,28.158,85.473z M35.471,99.92
			c-2.048-3.546-4.236-7.338-6.295-10.904c-0.715-1.052-1.031-2.246-0.378-3.416c0.528-0.833,1.411-1.354,2.392-1.381
			c0.116,0.013,13.336-0.025,13.446,0.013c0.057,0.003,0.107,0.016,0.159,0.021c0.414,0.019,0.795,0.172,1.16,0.36
			c-0.195,0.47-0.244,1.015-0.165,1.517H33.51c-1.851,0.033-3.386,1.553-3.403,3.408c-0.062,1.035,0.67,2.062,1.173,2.945
			c1.456,2.52,3.151,5.46,4.615,7.993C35.735,100.311,35.59,100.127,35.471,99.92z M38.7,103.411
			c-0.681-0.411-1.057-1.2-1.445-1.867c-0.322-0.558-1.053-1.823-1.373-2.379c-1.558-2.699-3.206-5.551-4.763-8.25
			c-1.059-1.758,0.345-4.185,2.392-4.143c0,0,13.346,0,13.346,0c0.498,0.035,0.979,0.15,1.419,0.394
			c-0.13,0.41-0.234,0.854-0.192,1.284h-12.02c-2.652,0.036-4.27,2.969-2.883,5.222c1.85,3.204,3.834,6.641,5.683,9.843
			C38.806,103.483,38.754,103.446,38.7,103.411z M40.167,104.486c-1.607-2.783-3.32-5.751-4.928-8.536
			c-0.465-0.799-1.097-1.906-1.567-2.714c-0.882-1.551-0.059-3.562,1.663-4.047c0.239-0.042,0.487-0.067,0.73-0.096
			c0,0,13.346,0,13.346,0c0.492,0.044,0.991,0.131,1.419,0.394c-0.15,0.32-0.151,0.689-0.212,1.033H38.831
			c-2.613,0.065-4.201,2.819-2.953,5.098c1.977,3.433,4.03,6.98,6.01,10.413C41.127,105.788,40.535,105.181,40.167,104.486z
			 M45.528,114.851c-1.724-2.985-3.546-6.142-5.269-9.126c0.092,0.1,0.189,0.187,0.29,0.273c1.702,3.087,3.659,6.341,5.403,9.408
			C45.792,115.242,45.647,115.058,45.528,114.851z M47.849,117.405c-2.03-3.515-4.205-7.283-6.236-10.801
			c0.229,0.079,0.461,0.131,0.7,0.161c0.119,0.223,0.324,0.554,0.489,0.739c0.194,0.935,1.399,2.682,1.859,3.564
			c1.339,2.32,2.924,5.065,4.26,7.379C48.484,118.208,48.11,117.858,47.849,117.405z M50.402,119.725
			c-2.103-3.643-4.382-7.591-6.487-11.236c0.481,0.253,1.011,0.385,1.544,0.392l0.036,0.062c0.006,0.549,0.213,1.101,0.44,1.604
			c1.927,3.347,4.082,7.071,6.01,10.413C51.305,120.756,50.753,120.333,50.402,119.725z M53.169,121.795
			c-1.567-2.713-3.407-5.902-4.977-8.621c-0.332-0.624-1.547-2.571-1.82-3.237c0.599,0.472,1.339,0.748,2.081,0.75
			c-0.091,1.189,1.356,3.128,1.875,4.139c1.502,2.603,3.288,5.694,4.788,8.293C54.304,122.987,53.592,122.527,53.169,121.795z
			 M56.239,123.734c-0.274-0.367-1.265-2.176-1.529-2.603c-1.179-2.042-2.844-4.926-4.012-6.949c-0.305-0.588-1.49-2.362-1.547-3.03
			c0.652,0.654,1.549,1.051,2.444,1.048c0.023,0.589,0.188,1.144,0.451,1.673c2.068,3.583,4.345,7.526,6.405,11.094
			C57.543,124.943,56.739,124.487,56.239,123.734z M61.669,126.491c-1.012,0.011-1.858-0.569-2.392-1.381
			c-1.66-2.875-3.683-6.378-5.36-9.284c-0.533-1.04-1.755-2.59-1.681-3.701c0.649,0.84,1.693,1.28,2.664,1.285
			c-0.063,1.162,1.185,2.874,1.71,3.852c1.662,2.88,3.649,6.32,5.31,9.197C61.834,126.466,61.755,126.491,61.669,126.491z
			 M64.972,127.7c-1.015,0.011-1.874-0.554-2.392-1.38c-1.739-3.011-3.87-6.703-5.601-9.701c-0.446-0.835-1.518-2.286-1.441-3.285
			c0.131-0.009,0.256-0.034,0.376-0.087c0.658,0.692,1.538,1.037,2.43,1.049c-0.06,1.165,1.184,2.876,1.712,3.857
			c1.729,2.964,3.735,6.531,5.488,9.473C65.358,127.664,65.169,127.7,64.972,127.7z M68.418,128.585
			c-1.008,0.007-1.867-0.568-2.393-1.381c-1.665-2.885-3.727-6.457-5.411-9.373c-0.465-0.928-1.703-2.488-1.63-3.612
			c0.253-0.021,0.488-0.126,0.722-0.224c0.629,0.549,1.413,0.841,2.208,0.844c-0.061,1.177,1.242,2.968,1.772,3.961
			c1.194,2.068,2.981,5.164,4.195,7.266c0.302,0.478,1.049,1.936,1.429,2.356C69.026,128.519,68.731,128.585,68.418,128.585z
			 M71.987,129.13c-0.815-0.009-1.581-0.373-2.09-0.985c-0.253-0.21-1.264-2.095-1.46-2.4c-1.285-2.226-3.099-5.367-4.38-7.587
			c-0.454-0.857-1.581-2.374-1.504-3.394c0.388-0.03,0.748-0.197,1.09-0.388c0.581,0.414,1.257,0.647,1.947,0.65
			c-0.051,1.23,1.341,3.121,1.889,4.163c1.208,2.092,2.939,5.089,4.165,7.214c0.383,0.605,1.021,1.936,1.527,2.444
			C72.807,129.02,72.411,129.13,71.987,129.13z M75.663,129.316c-0.99,0-1.897-0.542-2.392-1.381c0,0-1.07-1.854-1.07-1.854
			c-1.279-2.214-3.072-5.32-4.35-7.535c-0.44-0.864-1.723-2.565-1.621-3.596c0.483-0.086,0.934-0.288,1.339-0.574
			c0.522,0.303,1.108,0.462,1.698,0.464c-0.068,1.274,1.529,3.407,2.105,4.538c1.148,1.989,2.75,4.763,3.921,6.791
			c0.529,0.824,1.05,2.103,1.804,2.743C76.673,129.169,76.184,129.316,75.663,129.316z M79.339,129.13
			c-0.983-0.012-1.884-0.548-2.392-1.381c-2.146-3.717-4.53-7.846-6.673-11.558c-0.222-0.449-0.374-0.922-0.369-1.427
			c0.585-0.103,1.156-0.365,1.6-0.768c0.425,0.182,0.873,0.298,1.33,0.3c-0.04,0.802,0.411,1.667,0.849,2.362
			c1.735,3.005,3.707,6.421,5.441,9.424c0.516,0.842,0.977,1.969,1.831,2.503C80.494,128.924,79.942,129.13,79.339,129.13z
			 M82.909,128.585c-1.879,0.033-2.625-1.771-3.412-3.147c-1.728-2.994-3.715-6.434-5.441-9.424
			c-0.327-0.533-0.59-1.168-0.581-1.795c0.691-0.118,1.325-0.478,1.821-0.973c0.321,0.098,0.651,0.161,0.985,0.163
			c-0.052,1.149,0.828,2.265,1.36,3.248c1.674,2.899,3.579,6.199,5.247,9.088c0.448,0.815,0.968,1.76,1.802,2.168
			C84.2,128.334,83.584,128.585,82.909,128.585z M86.354,127.7c-1.249-0.009-2.218-0.849-2.723-1.955
			c-1.805-3.125-3.81-6.599-5.618-9.731c-0.448-0.828-1.15-1.698-1.092-2.68c0.79-0.149,1.522-0.564,2.008-1.215
			c0.216,0.048,0.437,0.062,0.655,0.082c-0.025,1.319,1.24,2.913,1.803,4.015c1.136,1.968,2.753,4.767,3.873,6.707
			c0.828,1.287,1.563,3.356,3.084,3.922C87.831,127.385,87.127,127.7,86.354,127.7z M89.657,126.491
			c-1.282-0.011-2.259-0.899-2.77-2.035c-1.641-2.842-3.573-6.189-5.219-9.04c-0.498-0.962-1.476-2.157-1.445-3.292
			c0.128-0.025,0.257-0.043,0.38-0.088c0.754-0.232,1.396-0.726,1.829-1.387c0.099,0.009,0.195,0.036,0.294,0.037
			c0.052,0.348,0.034,0.719,0.191,1.04c1.157,2.464,2.857,5,4.164,7.397c0.383,0.662,1.437,2.489,1.813,3.14
			c0.666,1.149,1.455,2.882,2.893,3.187C91.269,126.098,90.51,126.491,89.657,126.491z M92.874,124.967
			c-1.007,0.034-1.942-0.519-2.466-1.372c-2.167-3.752-4.498-7.792-6.667-11.548c-0.224-0.459-0.368-0.934-0.374-1.437
			c0.982-0.139,1.792-0.831,2.335-1.641c0.04,1.077,0.675,1.987,1.194,2.892c1.786,3.093,3.682,6.377,5.47,9.475
			c0.549,1.138,1.428,2.165,2.721,2.398C94.587,124.487,93.783,124.943,92.874,124.967z M98.157,121.795
			c-0.996,1.813-3.784,1.775-4.785,0c-0.654-1.133-1.63-2.823-2.288-3.963c-1.192-2.065-2.465-4.271-3.654-6.329
			c-0.473-0.845-1.104-1.684-1.099-2.693c0.886-0.15,1.7-0.685,2.192-1.452c0.222,1.184,1.072,2.2,1.616,3.259
			c1.774,3.073,3.668,6.354,5.444,9.429c0.594,0.938,1.523,1.571,2.623,1.662L98.157,121.795z M100.924,119.725
			c-0.998,1.816-3.786,1.789-4.785,0c-0.502-0.869-1.29-2.236-1.793-3.106c-1.481-2.566-3.065-5.309-4.534-7.854
			c-0.375-0.598-0.725-1.305-0.714-2.025c0.804-0.148,1.595-0.615,2.069-1.294c0.272,0.806,0.904,1.742,1.312,2.481
			c1.866,3.232,3.789,6.563,5.657,9.799c0.635,1.013,1.752,1.704,2.96,1.701L100.924,119.725z M103.478,117.405
			c-0.995,1.819-3.786,1.784-4.785,0c-1.924-3.333-3.92-6.789-5.842-10.12c-0.493-0.896-1.197-1.799-1.199-2.865
			c0.767-0.127,1.5-0.557,1.979-1.177c2.135,3.998,4.581,7.946,6.811,11.905c0.714,1.138,2.016,1.896,3.371,1.678L103.478,117.405z
			 M105.798,114.851c-0.982,1.811-3.789,1.784-4.785,0c-0.725-1.257-1.64-2.841-2.363-4.094c-1.336-2.313-2.738-4.744-4.074-7.056
			c-0.367-0.561-0.607-1.16-0.604-1.835c0.232-0.01,0.441-0.113,0.655-0.197c0.465-0.165,0.892-0.469,1.218-0.843
			c2.12,3.681,4.292,7.439,6.409,11.107c0.055,0.09,0.221,0.387,0.272,0.472c0.744,1.3,2.322,1.925,3.759,1.601L105.798,114.851z
			 M107.868,112.084c-0.987,1.808-3.788,1.791-4.785,0c-0.697-1.206-1.495-2.59-2.192-3.797c-1.238-2.145-2.561-4.436-3.801-6.584
			c-0.456-0.815-1.069-1.632-1.048-2.604c0.219-0.009,0.416-0.1,0.617-0.183c0.101-0.039,0.202-0.078,0.302-0.119
			c0.102-0.05,0.178-0.102,0.258-0.152c0.202-0.157,0.419-0.286,0.604-0.468c1.866,3.231,3.787,6.56,5.652,9.79
			c0.316,0.506,0.948,1.787,1.393,2.175c0.971,0.926,2.461,1.272,3.705,0.719L107.868,112.084z M109.669,109.12
			c-1.04,1.804-3.744,1.795-4.785,0c-1.915-3.317-3.844-6.658-5.756-9.97c-0.497-0.934-1.299-1.91-1.286-3.015
			c0.375-0.068,0.754-0.212,1.09-0.388c0.19-0.141,0.382-0.283,0.571-0.426c2.104,3.645,4.235,7.334,6.338,10.978
			c0.993,1.632,3.226,2.221,4.803,1.132L109.669,109.12z M111.182,105.977c-1.083,1.874-3.905,1.776-4.875-0.158
			c-1.92-3.325-3.896-6.747-5.819-10.079c-0.22-0.409-0.728-1.184-0.886-1.618c-0.108-0.229-0.19-0.463-0.202-0.718
			c-0.014-0.122-0.038-0.243-0.048-0.364c0.382-0.094,0.738-0.26,1.079-0.424c0.146-0.107,0.293-0.217,0.439-0.327
			c1.884,3.262,3.783,6.553,5.666,9.814c0.124,0.215,0.39,0.674,0.515,0.892c1.18,2.085,4.396,2.264,5.723,0.226L111.182,105.977z
			 M119.39,90.104c-0.107,0.915-0.8,1.746-1.211,2.546c-1.633,2.829-3.435,5.95-5.074,8.788c-0.163,0.285-0.547,0.946-0.713,1.236
			c-0.898,1.608-3.354,1.859-4.487,0.39c-0.385-0.448-0.696-1.109-0.999-1.603c-1.978-3.426-3.995-6.921-5.972-10.344
			c-0.217-0.451-0.364-0.922-0.369-1.427c0.476-0.074,0.96-0.279,1.344-0.578c1.937,3.356,3.939,6.822,5.877,10.18
			c0.929,1.841,3.377,2.589,5.059,1.311c0.797-0.444,1.365-1.762,1.831-2.511c1.546-2.679,3.198-5.538,4.744-8.216
			C119.417,89.951,119.401,90.027,119.39,90.104z M120.133,87.232c-0.169,0.52-0.603,1.129-0.862,1.615
			c-1.972,3.415-4.027,6.975-5.993,10.38c-0.23,0.403-0.555,0.692-0.918,0.945c-1.254,0.812-3.059,0.4-3.826-0.891
			c-0.098-0.13-0.186-0.314-0.272-0.454c-1.672-2.895-3.456-5.986-5.124-8.875c-0.596-1.206-1.648-2.311-1.687-3.71
			c0.4-0.068,0.814-0.213,1.155-0.438c1.927,3.338,3.944,6.83,5.874,10.174c0.582,0.873,1.478,1.596,2.559,1.654
			c1.134,0.17,2.367-0.338,3.043-1.27c0.36-0.379,0.789-1.278,1.068-1.719c1.678-2.899,3.428-5.943,5.11-8.85
			C120.351,86.278,120.307,86.77,120.133,87.232z M120.666,83.689c-0.153,0.453-0.453,0.879-0.683,1.298
			c-2.168,3.641-4.202,7.503-6.464,11.067c-0.584,0.733-1.586,1.101-2.503,0.931c-0.808-0.088-1.482-0.58-1.916-1.247
			c-1.973-3.341-3.96-6.859-5.91-10.21c-0.474-0.894-1.223-1.795-1.193-2.856c0.323-0.059,0.636-0.156,0.933-0.307
			c2.143,3.521,3.986,7.3,6.314,10.683c2.067,1.873,4.834,0.788,5.833-1.631c1.856-3.214,3.732-6.463,5.587-9.677
			C120.907,82.375,120.909,83.055,120.666,83.689z M126.965,74.941c-1.985,3.437-4.117,7.13-6.104,10.571
			c-0.039-0.165-0.101-0.32-0.164-0.476c0.088-0.153,0.267-0.462,0.355-0.615c0.056-0.115,0.097-0.233,0.143-0.349
			c0.435-0.375,1.072-1.658,1.382-2.157c1.503-2.604,3.235-5.602,4.744-8.216C127.298,74.126,127.189,74.551,126.965,74.941z
			 M127.851,71.495c-2.069,3.584-4.29,7.431-6.361,11.017c-0.034-0.519-0.174-1.021-0.426-1.466
			c1.019-0.548,1.821-2.357,2.386-3.269c1.492-2.583,3.22-5.576,4.709-8.156C128.278,70.254,128.187,70.912,127.851,71.495z
			 M128.395,67.926c-2.206,3.782-4.531,7.924-6.77,11.684c0.159-0.771,0.01-1.583-0.382-2.255c0.5-0.313,0.902-0.725,1.221-1.226
			c1.969-3.41,4.136-7.163,6.098-10.563C128.861,66.338,128.82,67.19,128.395,67.926z M128.581,64.25
			c-1.797,3.112-3.897,6.749-5.688,9.851c-0.352,0.548-1.065,2.071-1.623,2.437c0.379-0.993,0.222-1.975-0.212-2.859
			c0.947-0.501,1.653-1.982,2.177-2.881c1.652-2.861,3.699-6.406,5.358-9.281C129.076,62.376,129.075,63.395,128.581,64.25z"/>
	</g>
</g>
</svg>
